<svg width="15" height="9" viewBox="0 0 15 9" fill="none" xmlns="http://www.w3.org/2000/svg">
<path d="M14.8501 7.8463L14.0987 8.59769C13.9985 8.69803 13.8832 8.74805 13.7528 8.74805C13.6227 8.74805 13.5074 8.69803 13.4073 8.59769L7.50008 2.6908L1.59313 8.59754C1.49295 8.69788 1.37766 8.74789 1.24742 8.74789C1.11712 8.74789 1.00183 8.69788 0.901698 8.59754L0.150353 7.84609C0.0500125 7.74596 0 7.63066 0 7.50037C0 7.37018 0.0501704 7.25489 0.150353 7.15475L7.15436 0.15059C7.25449 0.0504074 7.36984 0.000341415 7.50008 0.000341415C7.63032 0.000341415 7.74546 0.0504074 7.84553 0.15059L14.8501 7.15475C14.9503 7.25494 15 7.37023 15 7.50037C15 7.63066 14.9503 7.74595 14.8501 7.8463Z" fill="#FF8C00"/>
</svg>
