<svg width="200" height="200" viewBox="0 0 200 200" fill="none" xmlns="http://www.w3.org/2000/svg">
<circle cx="100" cy="100" r="100" fill="white"/>
<line x1="99.5" y1="175" x2="99.5" y2="25" stroke="#044C5A"/>
<path d="M165.228 81.5918H163.952V72.9796C163.952 70.9592 162.36 69.3673 160.442 69.3673H159.483V63.6122C159.483 61.5918 157.993 60 156.187 60C156.187 60 156.085 60 155.973 60L119.585 69.3571C119.575 69.3571 119.554 69.3673 119.544 69.3673C117.748 69.5102 116.289 71.051 116.289 72.9796V106.388C116.289 108.408 117.881 110 119.799 110H160.442C162.463 110 164.054 108.408 164.054 106.388V97.551H165.228C165.871 97.551 166.289 97.1225 166.289 96.4898V82.6633C166.289 82.0204 165.758 81.5918 165.228 81.5918ZM156.391 62.0204C156.922 62.1224 157.452 62.7653 157.452 63.6122V69.3571H128.095L156.391 62.0204ZM161.932 106.388C161.932 107.235 161.289 107.98 160.442 107.98H119.799C118.952 107.98 118.309 107.235 118.309 106.388V72.9796C118.309 72.1327 118.952 71.3878 119.799 71.3878H160.33C161.177 71.3878 161.82 72.1327 161.82 72.9796V81.5918H151.289C146.82 81.5918 143.309 85.102 143.309 89.5714C143.309 94.0408 146.922 97.551 151.289 97.551H161.932V106.388ZM164.156 95.5306H151.289C148.095 95.5306 145.442 92.8673 145.442 89.6837C145.442 86.5 148.105 83.8367 151.289 83.8367H164.156V95.5306Z" fill="#044C5A"/>
<path d="M150.115 89.7858C150.115 90.4287 150.646 90.8471 151.177 90.8471H152.136C152.666 90.8471 153.197 90.4185 153.197 89.7858C153.197 89.143 152.666 88.7246 152.136 88.7246H151.187C150.544 88.7246 150.115 89.1532 150.115 89.7858Z" fill="#FF8C00"/>
<path d="M134.078 89.0436H131.288C130.268 89.0436 129.445 88.2204 129.445 87.2005C129.445 86.1806 130.268 85.3574 131.288 85.3574H136.216C136.891 85.3574 137.432 84.8167 137.432 84.1409C137.432 83.4651 136.891 82.9244 136.216 82.9244H133.893V81.2165C133.893 80.5407 133.353 80 132.677 80C132.001 80 131.46 80.5407 131.46 81.2165V82.9244H131.276C128.917 82.9244 127 84.8413 127 87.2005C127 89.5597 128.917 91.4766 131.276 91.4766H134.065C135.085 91.4766 135.908 92.2998 135.908 93.3197C135.908 94.3396 135.085 95.1628 134.065 95.1628H129.04C128.364 95.1628 127.823 95.7035 127.823 96.3793C127.823 97.0551 128.364 97.5957 129.04 97.5957H131.448V99.3406C131.448 100.016 131.989 100.557 132.665 100.557C133.34 100.557 133.881 100.016 133.881 99.3406V97.5957H134.065C136.425 97.5957 138.341 95.6789 138.341 93.3197C138.354 90.9728 136.437 89.0436 134.078 89.0436Z" fill="#FF8C00"/>
<path d="M123.942 133H122.692L120.022 125.84H121.302L123.142 131.09C123.236 131.35 123.299 131.557 123.332 131.71H123.352C123.372 131.61 123.406 131.487 123.452 131.34C123.472 131.293 123.489 131.243 123.502 131.19C123.522 131.15 123.536 131.117 123.542 131.09L125.392 125.84H126.632L123.942 133ZM127.498 130.72C127.511 131.173 127.638 131.54 127.878 131.82C128.118 132.107 128.444 132.25 128.858 132.25C129.198 132.25 129.471 132.14 129.678 131.92C129.751 131.833 129.818 131.733 129.878 131.62C129.918 131.54 129.954 131.447 129.988 131.34L131.108 131.51C130.788 132.583 130.028 133.12 128.828 133.12C127.928 133.12 127.264 132.807 126.838 132.18C126.518 131.713 126.358 131.133 126.358 130.44C126.358 129.693 126.541 129.07 126.908 128.57C127.334 127.99 127.944 127.7 128.738 127.7C129.564 127.7 130.188 127.987 130.608 128.56C130.994 129.093 131.178 129.813 131.158 130.72H127.498ZM130.018 129.93C130.011 129.783 129.991 129.647 129.958 129.52C129.911 129.353 129.851 129.207 129.778 129.08C129.564 128.74 129.231 128.57 128.778 128.57C128.311 128.57 127.964 128.767 127.738 129.16C127.658 129.3 127.594 129.453 127.548 129.62C127.534 129.68 127.524 129.743 127.518 129.81L127.508 129.88L127.498 129.93H130.018ZM132.215 127.82H133.235V128.56H133.255C133.629 127.987 134.182 127.7 134.915 127.7C135.235 127.7 135.532 127.763 135.805 127.89C136.099 128.03 136.305 128.213 136.425 128.44C136.592 128.753 136.675 129.263 136.675 129.97V133H135.565V129.84L135.545 129.59C135.532 129.397 135.499 129.233 135.445 129.1C135.305 128.76 135.019 128.59 134.585 128.59C134.359 128.59 134.145 128.647 133.945 128.76C133.752 128.867 133.615 129.003 133.535 129.17C133.395 129.45 133.325 129.857 133.325 130.39V133H132.215V127.82ZM142.495 133H141.455V132.29H141.435C141.215 132.643 140.919 132.887 140.545 133.02C140.419 133.06 140.289 133.09 140.155 133.11C140.102 133.117 140.052 133.12 140.005 133.12H139.915C139.262 133.12 138.729 132.857 138.315 132.33C137.922 131.823 137.725 131.187 137.725 130.42C137.725 129.553 137.935 128.877 138.355 128.39C138.749 127.93 139.262 127.7 139.895 127.7C140.515 127.7 141.005 127.937 141.365 128.41H141.385V125.84H142.495V133ZM140.155 128.57C139.609 128.57 139.232 128.837 139.025 129.37C138.959 129.55 138.912 129.757 138.885 129.99C138.879 130.07 138.872 130.15 138.865 130.23V130.39C138.865 131.077 139.025 131.577 139.345 131.89C139.472 132.003 139.615 132.09 139.775 132.15C139.895 132.19 140.022 132.21 140.155 132.21C140.282 132.21 140.405 132.19 140.525 132.15C140.685 132.097 140.825 132.013 140.945 131.9C141.265 131.6 141.425 131.117 141.425 130.45C141.425 129.857 141.309 129.393 141.075 129.06C140.849 128.733 140.542 128.57 140.155 128.57ZM143.556 130.47C143.556 129.563 143.816 128.86 144.336 128.36C144.796 127.92 145.386 127.7 146.106 127.7C146.866 127.7 147.479 127.95 147.946 128.45C148.412 128.943 148.646 129.593 148.646 130.4C148.646 131.22 148.406 131.88 147.926 132.38C147.452 132.873 146.842 133.12 146.096 133.12C145.402 133.12 144.826 132.913 144.366 132.5C143.826 132.02 143.556 131.343 143.556 130.47ZM144.696 130.41C144.696 131.037 144.856 131.51 145.176 131.83C145.429 132.083 145.739 132.21 146.106 132.21C146.252 132.21 146.396 132.187 146.536 132.14C146.709 132.08 146.862 131.99 146.996 131.87C147.336 131.55 147.506 131.053 147.506 130.38C147.506 129.807 147.362 129.36 147.076 129.04C146.822 128.753 146.499 128.61 146.106 128.61C145.732 128.61 145.419 128.737 145.166 128.99C144.852 129.31 144.696 129.783 144.696 130.41ZM150.756 133H149.646V127.82H150.666V128.58H150.686C150.739 128.473 150.796 128.377 150.856 128.29C150.929 128.183 151.006 128.09 151.086 128.01C151.292 127.803 151.529 127.7 151.796 127.7C151.996 127.7 152.182 127.73 152.356 127.79C152.422 127.817 152.492 127.847 152.566 127.88L152.646 127.93L152.726 127.97L152.366 128.96L152.306 128.93L152.246 128.89C152.192 128.863 152.142 128.84 152.096 128.82C151.962 128.773 151.826 128.75 151.686 128.75C151.312 128.75 151.052 128.987 150.906 129.46C150.846 129.647 150.806 129.87 150.786 130.13C150.766 130.323 150.756 130.55 150.756 130.81V133ZM156.368 129.3C156.314 129.007 156.158 128.797 155.898 128.67C155.804 128.623 155.694 128.59 155.568 128.57C155.474 128.557 155.378 128.55 155.278 128.55C155.178 128.55 155.078 128.557 154.978 128.57C154.851 128.59 154.741 128.617 154.648 128.65C154.394 128.743 154.268 128.897 154.268 129.11C154.268 129.27 154.358 129.397 154.538 129.49C154.698 129.583 155.014 129.683 155.488 129.79C156.221 129.957 156.728 130.13 157.008 130.31C157.414 130.557 157.618 130.92 157.618 131.4C157.618 131.86 157.448 132.247 157.108 132.56C156.708 132.933 156.134 133.12 155.388 133.12C154.674 133.12 154.111 132.94 153.698 132.58C153.358 132.3 153.144 131.933 153.058 131.48L154.157 131.31C154.218 131.683 154.391 131.95 154.678 132.11C154.784 132.17 154.908 132.213 155.048 132.24C155.154 132.26 155.264 132.27 155.378 132.27H155.468C155.521 132.263 155.571 132.26 155.618 132.26C155.758 132.24 155.881 132.21 155.988 132.17C156.314 132.057 156.478 131.853 156.478 131.56C156.478 131.287 156.241 131.097 155.768 130.99C154.834 130.777 154.211 130.577 153.898 130.39C153.444 130.137 153.218 129.757 153.218 129.25C153.218 128.763 153.414 128.38 153.808 128.1C154.168 127.833 154.621 127.7 155.168 127.7C155.388 127.7 155.591 127.713 155.778 127.74C156.031 127.773 156.261 127.833 156.468 127.92C157.001 128.153 157.321 128.553 157.428 129.12L156.368 129.3Z" fill="#044C5A"/>
<path d="M38.3152 128.09C38.0485 127.183 37.4718 126.73 36.5852 126.73C35.7852 126.73 35.2085 127.053 34.8552 127.7C34.7218 127.947 34.6252 128.237 34.5652 128.57C34.5185 128.823 34.4952 129.097 34.4952 129.39C34.4952 129.51 34.4985 129.637 34.5052 129.77C34.5185 129.93 34.5385 130.083 34.5652 130.23C34.6252 130.623 34.7252 130.943 34.8652 131.19C35.2318 131.803 35.7918 132.11 36.5452 132.11C37.0852 132.11 37.5185 131.93 37.8452 131.57C38.1052 131.29 38.2885 130.91 38.3952 130.43L39.5552 130.77C39.5418 130.81 39.5318 130.85 39.5252 130.89C39.5118 130.937 39.4985 130.98 39.4852 131.02C39.4452 131.14 39.4052 131.253 39.3652 131.36C39.2385 131.653 39.0818 131.913 38.8952 132.14C38.5818 132.52 38.1685 132.793 37.6552 132.96C37.4618 133.02 37.2618 133.063 37.0552 133.09C36.8952 133.11 36.7385 133.12 36.5852 133.12C35.4918 133.12 34.6518 132.75 34.0652 132.01C33.5385 131.343 33.2752 130.477 33.2752 129.41C33.2752 128.27 33.5885 127.363 34.2152 126.69C34.8218 126.043 35.6285 125.72 36.6352 125.72C37.5018 125.72 38.1918 125.967 38.7052 126.46C38.9052 126.653 39.0752 126.883 39.2152 127.15C39.3218 127.35 39.4118 127.57 39.4852 127.81L38.3152 128.09ZM44.0727 133V132.23H44.0527C43.8127 132.583 43.506 132.833 43.1327 132.98C42.9927 133.033 42.8493 133.073 42.7027 133.1C42.6427 133.107 42.5827 133.113 42.5227 133.12H42.3927C42.0793 133.12 41.7827 133.053 41.5027 132.92C41.216 132.78 41.0127 132.6 40.8927 132.38C40.726 132.06 40.6427 131.62 40.6427 131.06V127.82H41.7527V130.45C41.7527 131.15 41.8093 131.597 41.9227 131.79C42.016 131.95 42.1493 132.063 42.3227 132.13C42.3893 132.163 42.4627 132.183 42.5427 132.19C42.6027 132.203 42.666 132.21 42.7327 132.21C42.9593 132.21 43.1727 132.153 43.3727 132.04C43.5593 131.933 43.6927 131.803 43.7727 131.65C43.906 131.377 43.9727 130.93 43.9727 130.31V127.82H45.0827V133H44.0727ZM49.4827 129.3C49.4294 129.007 49.2727 128.797 49.0127 128.67C48.9194 128.623 48.8094 128.59 48.6827 128.57C48.5894 128.557 48.4927 128.55 48.3927 128.55C48.2927 128.55 48.1927 128.557 48.0927 128.57C47.9661 128.59 47.8561 128.617 47.7627 128.65C47.5094 128.743 47.3827 128.897 47.3827 129.11C47.3827 129.27 47.4727 129.397 47.6527 129.49C47.8127 129.583 48.1294 129.683 48.6027 129.79C49.3361 129.957 49.8427 130.13 50.1227 130.31C50.5294 130.557 50.7327 130.92 50.7327 131.4C50.7327 131.86 50.5627 132.247 50.2227 132.56C49.8227 132.933 49.2494 133.12 48.5027 133.12C47.7894 133.12 47.2261 132.94 46.8127 132.58C46.4727 132.3 46.2594 131.933 46.1727 131.48L47.2727 131.31C47.3327 131.683 47.5061 131.95 47.7927 132.11C47.8994 132.17 48.0227 132.213 48.1627 132.24C48.2694 132.26 48.3794 132.27 48.4927 132.27H48.5827C48.6361 132.263 48.6861 132.26 48.7327 132.26C48.8727 132.24 48.9961 132.21 49.1027 132.17C49.4294 132.057 49.5927 131.853 49.5927 131.56C49.5927 131.287 49.3561 131.097 48.8827 130.99C47.9494 130.777 47.3261 130.577 47.0127 130.39C46.5594 130.137 46.3327 129.757 46.3327 129.25C46.3327 128.763 46.5294 128.38 46.9227 128.1C47.2827 127.833 47.7361 127.7 48.2827 127.7C48.5027 127.7 48.7061 127.713 48.8927 127.74C49.1461 127.773 49.3761 127.833 49.5827 127.92C50.1161 128.153 50.4361 128.553 50.5427 129.12L49.4827 129.3ZM53.0152 127.82H53.9252V128.69H53.0152V131.27C53.0152 131.603 53.0319 131.82 53.0652 131.92C53.1119 132.06 53.2286 132.13 53.4152 132.13C53.5086 132.13 53.6086 132.12 53.7152 132.1C53.7552 132.087 53.7919 132.077 53.8252 132.07L53.8752 132.05L53.9152 132.04L54.0352 132.95C53.9819 132.97 53.9352 132.987 53.8952 133C53.8352 133.013 53.7752 133.027 53.7152 133.04C53.5619 133.073 53.3919 133.09 53.2052 133.09C52.6252 133.09 52.2452 132.917 52.0652 132.57C51.9586 132.357 51.9052 131.943 51.9052 131.33V128.69H51.2652V127.82H51.9052V126.65L53.0152 125.99V127.82ZM54.5028 130.47C54.5028 129.563 54.7628 128.86 55.2828 128.36C55.7428 127.92 56.3328 127.7 57.0528 127.7C57.8128 127.7 58.4261 127.95 58.8928 128.45C59.3595 128.943 59.5928 129.593 59.5928 130.4C59.5928 131.22 59.3528 131.88 58.8728 132.38C58.3995 132.873 57.7895 133.12 57.0428 133.12C56.3495 133.12 55.7728 132.913 55.3128 132.5C54.7728 132.02 54.5028 131.343 54.5028 130.47ZM55.6428 130.41C55.6428 131.037 55.8028 131.51 56.1228 131.83C56.3761 132.083 56.6861 132.21 57.0528 132.21C57.1995 132.21 57.3428 132.187 57.4828 132.14C57.6561 132.08 57.8095 131.99 57.9428 131.87C58.2828 131.55 58.4528 131.053 58.4528 130.38C58.4528 129.807 58.3095 129.36 58.0228 129.04C57.7695 128.753 57.4461 128.61 57.0528 128.61C56.6795 128.61 56.3661 128.737 56.1128 128.99C55.7995 129.31 55.6428 129.783 55.6428 130.41ZM60.5829 127.82H61.5929V128.53H61.6129C61.9929 127.977 62.5196 127.7 63.1929 127.7H63.3129C63.3729 127.707 63.4296 127.713 63.4829 127.72C63.6229 127.74 63.7562 127.773 63.8829 127.82C64.2429 127.967 64.4996 128.217 64.6529 128.57L64.6929 128.52L64.7329 128.46C64.7662 128.413 64.8029 128.367 64.8429 128.32C64.9362 128.213 65.0396 128.12 65.1529 128.04C65.4662 127.813 65.8362 127.7 66.2629 127.7C66.9562 127.7 67.4329 127.957 67.6929 128.47C67.7796 128.65 67.8362 128.857 67.8629 129.09C67.8762 129.177 67.8862 129.267 67.8929 129.36V133H66.7829V129.66L66.7729 129.44C66.7529 129.273 66.7229 129.137 66.6829 129.03C66.5562 128.737 66.3096 128.59 65.9429 128.59C65.7496 128.59 65.5662 128.64 65.3929 128.74C65.2129 128.84 65.0829 128.967 65.0029 129.12C64.8629 129.387 64.7929 129.757 64.7929 130.23V133H63.6829V129.68L63.6729 129.46C63.6529 129.3 63.6229 129.16 63.5829 129.04C63.4629 128.74 63.2262 128.59 62.8729 128.59C62.6662 128.59 62.4696 128.64 62.2829 128.74C62.1096 128.84 61.9829 128.963 61.9029 129.11C61.7629 129.383 61.6929 129.81 61.6929 130.39V133H60.5829V127.82ZM69.988 130.72C70.0014 131.173 70.128 131.54 70.368 131.82C70.608 132.107 70.9347 132.25 71.348 132.25C71.688 132.25 71.9614 132.14 72.168 131.92C72.2414 131.833 72.308 131.733 72.368 131.62C72.408 131.54 72.4447 131.447 72.478 131.34L73.598 131.51C73.278 132.583 72.518 133.12 71.318 133.12C70.418 133.12 69.7547 132.807 69.328 132.18C69.008 131.713 68.848 131.133 68.848 130.44C68.848 129.693 69.0314 129.07 69.398 128.57C69.8247 127.99 70.4347 127.7 71.228 127.7C72.0547 127.7 72.678 127.987 73.098 128.56C73.4847 129.093 73.668 129.813 73.648 130.72H69.988ZM72.508 129.93C72.5014 129.783 72.4814 129.647 72.448 129.52C72.4014 129.353 72.3414 129.207 72.268 129.08C72.0547 128.74 71.7214 128.57 71.268 128.57C70.8014 128.57 70.4547 128.767 70.228 129.16C70.148 129.3 70.0847 129.453 70.038 129.62C70.0247 129.68 70.0147 129.743 70.008 129.81L69.998 129.88L69.988 129.93H72.508ZM75.7556 133H74.6456V127.82H75.6656V128.58H75.6856C75.739 128.473 75.7956 128.377 75.8556 128.29C75.929 128.183 76.0056 128.09 76.0856 128.01C76.2923 127.803 76.529 127.7 76.7956 127.7C76.9956 127.7 77.1823 127.73 77.3556 127.79C77.4223 127.817 77.4923 127.847 77.5656 127.88L77.6456 127.93L77.7256 127.97L77.3656 128.96L77.3056 128.93L77.2456 128.89C77.1923 128.863 77.1423 128.84 77.0956 128.82C76.9623 128.773 76.8256 128.75 76.6856 128.75C76.3123 128.75 76.0523 128.987 75.9056 129.46C75.8456 129.647 75.8056 129.87 75.7856 130.13C75.7656 130.323 75.7556 130.55 75.7556 130.81V133ZM81.3675 129.3C81.3142 129.007 81.1575 128.797 80.8975 128.67C80.8042 128.623 80.6942 128.59 80.5675 128.57C80.4742 128.557 80.3775 128.55 80.2775 128.55C80.1775 128.55 80.0775 128.557 79.9775 128.57C79.8508 128.59 79.7408 128.617 79.6475 128.65C79.3942 128.743 79.2675 128.897 79.2675 129.11C79.2675 129.27 79.3575 129.397 79.5375 129.49C79.6975 129.583 80.0142 129.683 80.4875 129.79C81.2208 129.957 81.7275 130.13 82.0075 130.31C82.4142 130.557 82.6175 130.92 82.6175 131.4C82.6175 131.86 82.4475 132.247 82.1075 132.56C81.7075 132.933 81.1342 133.12 80.3875 133.12C79.6742 133.12 79.1108 132.94 78.6975 132.58C78.3575 132.3 78.1442 131.933 78.0575 131.48L79.1575 131.31C79.2175 131.683 79.3908 131.95 79.6775 132.11C79.7842 132.17 79.9075 132.213 80.0475 132.24C80.1542 132.26 80.2642 132.27 80.3775 132.27H80.4675C80.5208 132.263 80.5708 132.26 80.6175 132.26C80.7575 132.24 80.8808 132.21 80.9875 132.17C81.3142 132.057 81.4775 131.853 81.4775 131.56C81.4775 131.287 81.2408 131.097 80.7675 130.99C79.8342 130.777 79.2108 130.577 78.8975 130.39C78.4442 130.137 78.2175 129.757 78.2175 129.25C78.2175 128.763 78.4142 128.38 78.8075 128.1C79.1675 127.833 79.6208 127.7 80.1675 127.7C80.3875 127.7 80.5908 127.713 80.7775 127.74C81.0308 127.773 81.2608 127.833 81.4675 127.92C82.0008 128.153 82.3208 128.553 82.4275 129.12L81.3675 129.3Z" fill="#044C5A"/>
<g clip-path="url(#clip0)">
<path d="M78.7462 109.078C82.9608 109.548 82.9608 107.453 82.9608 107.453V76.4573C83.1803 74.149 81.2486 74.149 81.2486 74.149H38.034C37.8246 74.1291 37.6136 74.1621 37.4192 74.2451C37.2248 74.3282 37.0526 74.4589 36.9174 74.626C36.7823 74.7932 36.6881 74.9918 36.643 75.2049C36.5979 75.418 36.6031 75.6393 36.6583 75.8499V106.374C33.8193 112.449 30.8047 106.374 30.8047 106.374V67.7859C30.8047 67.7859 30.9657 65.918 32.6047 65.918H47.9266L51.2925 70.0183H79.2583C79.5208 70.0682 79.77 70.1752 79.9897 70.3323C80.2093 70.4895 80.3944 70.6931 80.5327 70.9299C80.6709 71.1667 80.7593 71.4312 80.7919 71.7059C80.8245 71.9807 80.8006 72.2595 80.7218 72.524" stroke="#044C5A" stroke-width="2" stroke-miterlimit="10"/>
<path d="M34.3176 109.017L54.9518 109.047H55.464" stroke="#044C5A" stroke-width="2" stroke-miterlimit="10"/>
<path d="M77.2041 96.6115L66.9268 107.264L63.0713 103.264C62.5908 102.765 61.8291 102.765 61.3604 103.264C60.8799 103.762 60.8799 104.553 61.3604 105.039L66.0713 109.928C66.3057 110.171 66.6221 110.293 66.9268 110.293C67.2314 110.293 67.5478 110.171 67.7822 109.928L78.915 98.3748C79.3955 97.8762 79.3955 97.0858 78.915 96.5993C78.4346 96.125 77.6846 96.125 77.2041 96.6115Z" fill="#FF8C00"/>
</g>
<defs>
<clipPath id="clip0">
<rect width="60" height="48" fill="white" transform="translate(27 62)"/>
</clipPath>
</defs>
</svg>
