<svg width="150" height="150" viewBox="0 0 150 150" fill="none" xmlns="http://www.w3.org/2000/svg">
<circle cx="75" cy="75" r="75" fill="white"/>
<g clip-path="url(#clip0)">
<path d="M100.371 101.924C105.288 102.474 105.288 100.028 105.288 100.028V63.8672C105.544 61.1741 103.29 61.1741 103.29 61.1741H52.8731C52.6288 61.1509 52.3827 61.1894 52.1559 61.2863C51.9291 61.3832 51.7282 61.5357 51.5705 61.7307C51.4128 61.9257 51.3029 62.1574 51.2503 62.4061C51.1977 62.6547 51.2038 62.9129 51.2682 63.1585V98.7706C47.956 105.858 44.439 98.7706 44.439 98.7706V53.7505C44.439 53.7505 44.6268 51.5713 46.539 51.5713H64.4146L68.3414 56.355H100.968C101.274 56.4132 101.565 56.5381 101.821 56.7214C102.078 56.9047 102.294 57.1423 102.455 57.4185C102.616 57.6948 102.719 58.0033 102.757 58.3239C102.795 58.6445 102.768 58.9698 102.676 59.2784" stroke="#044C5A" stroke-width="2" stroke-miterlimit="10"/>
<path d="M48.5371 101.853L72.6103 101.888H73.2078" stroke="#044C5A" stroke-width="2" stroke-miterlimit="10"/>
<path d="M98.5713 87.3805L86.5811 99.8091L82.083 95.1413C81.5225 94.5596 80.6338 94.5596 80.0869 95.1413C79.5264 95.723 79.5264 96.6452 80.0869 97.2127L85.583 102.916C85.8564 103.2 86.2256 103.342 86.5811 103.342C86.9365 103.342 87.3057 103.2 87.5791 102.916L100.567 89.4378C101.128 88.8561 101.128 87.9339 100.567 87.3664C100.007 86.813 99.1318 86.813 98.5713 87.3805Z" fill="#FF8C00"/>
</g>
<defs>
<clipPath id="clip0">
<rect width="70" height="56" fill="white" transform="translate(40 47)"/>
</clipPath>
</defs>
</svg>
