<svg width="30" height="30" viewBox="0 0 30 30" fill="none" xmlns="http://www.w3.org/2000/svg">
<path d="M24.4617 7H10.6155V8.53847H24.4617V7Z" fill="#044C5A"/>
<path d="M24.4617 11.6152H10.6155V13.1537H24.4617V11.6152Z" fill="#044C5A"/>
<path d="M24.4617 16.231H10.6155V17.7694H24.4617V16.231Z" fill="#044C5A"/>
<path d="M24.4617 20.8462H10.6155V22.3847H24.4617V20.8462Z" fill="#044C5A"/>
<path d="M6.76924 8.53847C7.19408 8.53847 7.53848 8.19407 7.53848 7.76923C7.53848 7.3444 7.19408 7 6.76924 7C6.3444 7 6 7.3444 6 7.76923C6 8.19407 6.3444 8.53847 6.76924 8.53847Z" fill="#044C5A"/>
<path d="M6.76924 13.1537C7.19408 13.1537 7.53848 12.8093 7.53848 12.3845C7.53848 11.9596 7.19408 11.6152 6.76924 11.6152C6.3444 11.6152 6 11.9596 6 12.3845C6 12.8093 6.3444 13.1537 6.76924 13.1537Z" fill="#044C5A"/>
<path d="M6.76924 17.7694C7.19408 17.7694 7.53848 17.425 7.53848 17.0002C7.53848 16.5754 7.19408 16.231 6.76924 16.231C6.3444 16.231 6 16.5754 6 17.0002C6 17.425 6.3444 17.7694 6.76924 17.7694Z" fill="#044C5A"/>
<path d="M6.76924 22.3847C7.19408 22.3847 7.53848 22.0403 7.53848 21.6154C7.53848 21.1906 7.19408 20.8462 6.76924 20.8462C6.3444 20.8462 6 21.1906 6 21.6154C6 22.0403 6.3444 22.3847 6.76924 22.3847Z" fill="#044C5A"/>
<rect x="2.5" y="1.5" width="25" height="27" rx="1.5" stroke="#044C5A"/>
</svg>
