<svg width="150" height="150" viewBox="0 0 150 150" fill="none" xmlns="http://www.w3.org/2000/svg">
<circle cx="75" cy="75" r="75" fill="white"/>
<g clip-path="url(#clip0)">
<path d="M69.0202 40.2861H44.0151C41.8004 40.2861 40 42.0865 40 44.3012V62.262C40 64.4768 41.8004 66.2771 44.0151 66.2771H55.1031V69.9207H51.4738C50.6879 69.9207 50.0592 70.5494 50.0592 71.3353C50.0592 72.1212 50.6879 72.7499 51.4738 72.7499H61.533C62.3188 72.7499 62.9475 72.1212 62.9475 71.3353C62.9475 70.5494 62.3188 69.9207 61.533 69.9207H57.9179V66.2771H69.0059C71.2207 66.2771 73.021 64.4768 73.021 62.262V44.2869C73.021 42.0865 71.2207 40.2861 69.0202 40.2861ZM70.1919 62.2478C70.1919 62.8907 69.6632 63.4337 69.0059 63.4337H44.0008C43.3435 63.4337 42.8149 62.905 42.8149 62.2478V44.2869C42.8149 43.644 43.3435 43.101 44.0008 43.101H69.0059C69.6632 43.101 70.1919 43.6297 70.1919 44.2869V62.2478Z" fill="#044C5A"/>
<path d="M105.985 77.251H80.9799C78.7652 77.251 76.9648 79.0513 76.9648 81.2661V99.2269C76.9648 101.442 78.7652 103.242 80.9799 103.242H92.0679V106.886H88.4529C87.667 106.886 87.0383 107.514 87.0383 108.3C87.0383 109.086 87.667 109.715 88.4529 109.715H98.5121C99.298 109.715 99.9267 109.086 99.9267 108.3C99.9267 107.514 99.298 106.886 98.5121 106.886H94.8971V103.242H105.985C108.2 103.242 110 101.442 110 99.2269V81.2518C109.986 79.0371 108.185 77.251 105.985 77.251ZM107.157 99.2126C107.157 99.8556 106.628 100.399 105.971 100.399H80.9657C80.3084 100.399 79.7797 99.8699 79.7797 99.2126V81.2518C79.7797 80.6088 80.3084 80.0658 80.9657 80.0658H105.971C106.614 80.0658 107.157 80.5945 107.157 81.2518V99.2126Z" fill="#044C5A"/>
<path d="M93.4683 51.8594H79.7798C78.9939 51.8594 78.3652 52.4881 78.3652 53.2739C78.3652 54.0598 78.9939 54.6885 79.7798 54.6885H92.0537V68.2199L89.9676 66.1337C89.4103 65.5765 88.5244 65.5765 87.9672 66.1337C87.4099 66.691 87.4099 67.5769 87.9672 68.1341L92.4681 72.635C92.7396 72.9065 93.1111 73.0494 93.4683 73.0494C93.8255 73.0494 94.197 72.9065 94.4685 72.635L98.9694 68.1341C99.5267 67.5769 99.5267 66.691 98.9694 66.1337C98.4122 65.5765 97.5263 65.5765 96.969 66.1337L94.8829 68.2199V53.2739C94.8829 52.4881 94.2542 51.8594 93.4683 51.8594Z" fill="#FF8C00"/>
<path d="M70.2062 96.0549H57.9323V82.5236L60.0184 84.6097C60.2899 84.8812 60.6614 85.0241 61.0186 85.0241C61.3758 85.0241 61.7473 84.8812 62.0188 84.6097C62.5761 84.0524 62.5761 83.1665 62.0188 82.6093L57.5179 78.1084C56.9606 77.5511 56.0747 77.5511 55.5175 78.1084L51.0166 82.6093C50.4593 83.1665 50.4593 84.0524 51.0166 84.6097C51.5738 85.167 52.4597 85.167 53.017 84.6097L55.1031 82.5236V97.4695C55.1031 98.2553 55.7318 98.884 56.5177 98.884H70.2062C70.9921 98.884 71.6208 98.2553 71.6208 97.4695C71.6208 96.6836 70.9778 96.0549 70.2062 96.0549Z" fill="#FF8C00"/>
</g>
<defs>
<clipPath id="clip0">
<rect width="70" height="70" fill="white" transform="translate(40 40)"/>
</clipPath>
</defs>
</svg>
