<svg width="150" height="150" viewBox="0 0 150 150" fill="none" xmlns="http://www.w3.org/2000/svg">
<circle cx="75" cy="75" r="75" fill="white"/>
<path d="M43.4447 64.3087H45.0628C45.4954 65.869 46.1203 67.3497 46.9213 68.7508L45.7838 69.8812C44.438 71.2187 44.438 73.384 45.7838 74.7214L47.9948 76.9186C48.6517 77.5714 49.5169 77.9217 50.4301 77.9217C51.3433 77.9217 52.2085 77.5714 52.8654 76.9186L54.0029 75.7882C55.4128 76.6002 56.9028 77.2211 58.4729 77.6351V79.2432C58.4729 81.1378 60.011 82.6663 61.9176 82.6663H65.0418C66.9484 82.6663 68.4865 81.1378 68.4865 79.2432V77.6351C70.0566 77.2052 71.5466 76.5842 72.9565 75.7882L74.094 76.9186C74.7509 77.5714 75.6161 77.9217 76.5293 77.9217C77.4426 77.9217 78.3077 77.5714 78.9646 76.9186L81.1756 74.7214C82.5214 73.384 82.5214 71.2187 81.1756 69.8812L80.0381 68.7508C80.8552 67.3497 81.48 65.869 81.8966 64.3087H83.5148C85.4213 64.3087 86.9594 62.7802 86.9594 60.8855V57.7808C86.9594 55.8861 85.4213 54.3576 83.5148 54.3576H81.8966C81.464 52.7973 80.8391 51.3166 80.0381 49.9155L81.1756 48.7851C82.5214 47.4477 82.5214 45.2823 81.1756 43.9449L78.9646 41.7477C78.3077 41.0949 77.4426 40.7446 76.5293 40.7446C75.6161 40.7446 74.7509 41.0949 74.094 41.7477L72.9565 42.8781C71.5466 42.0661 70.0566 41.4452 68.4865 41.0312V39.4232C68.4865 37.5285 66.9484 36 65.0418 36H61.9176C60.011 36 58.4729 37.5285 58.4729 39.4232V41.0153C56.9028 41.4452 55.4128 42.0661 54.0029 42.8622L52.8654 41.7318C52.2085 41.079 51.3433 40.7287 50.4301 40.7287C49.5169 40.7287 48.6517 41.079 47.9948 41.7318L45.7838 43.929C44.438 45.2664 44.438 47.4317 45.7838 48.7692L46.9213 49.8996C46.1042 51.3007 45.4794 52.7814 45.0628 54.3417H43.4447C41.5381 54.3417 40 55.8702 40 57.7649V60.8696C40 62.7643 41.5381 64.2927 43.4447 64.3087ZM46.3125 61.1562H43.4447C43.3005 61.1562 43.1723 61.0288 43.1723 60.8855V57.7808C43.1723 57.6375 43.3005 57.5101 43.4447 57.5101H46.3125C47.0655 57.5101 47.7224 56.9688 47.8666 56.2364C48.2832 54.1984 49.0682 52.2878 50.2378 50.5524C50.6704 49.9314 50.5743 49.0876 50.0456 48.5622L47.9788 46.5401C47.8666 46.4287 47.8666 46.2695 47.9788 46.158L50.1898 43.9608C50.2538 43.8971 50.334 43.8812 50.382 43.8812C50.4301 43.8812 50.5102 43.8971 50.5743 43.9608L52.609 45.9829C53.1377 46.5083 53.9869 46.5879 54.6117 46.1739C56.3581 45.0116 58.2807 44.2156 60.3315 43.8175C61.0845 43.6742 61.6132 43.0214 61.6132 42.2731V39.4232C61.6132 39.2799 61.7414 39.1525 61.8856 39.1525H65.0098C65.154 39.1525 65.2821 39.2799 65.2821 39.4232V42.2413C65.2821 42.9896 65.8269 43.6424 66.5639 43.7857C68.6146 44.1996 70.5372 44.9798 72.2836 46.1421C72.9084 46.572 73.7576 46.4764 74.2863 45.951L76.321 43.929C76.3851 43.8653 76.4652 43.8494 76.5133 43.8494C76.5614 43.8494 76.6415 43.8653 76.7056 43.929L78.9166 46.1262C79.0287 46.2376 79.0287 46.3968 78.9166 46.5083L76.8818 48.5303C76.3531 49.0557 76.273 49.8996 76.6895 50.5205C77.8591 52.256 78.6602 54.1666 79.0607 56.2046C79.2049 56.9529 79.8618 57.4783 80.6148 57.4783H83.4827C83.6269 57.4783 83.7551 57.6057 83.7551 57.749V60.8537C83.7551 60.997 83.6269 61.1243 83.4827 61.1243H80.6148C79.8618 61.1243 79.2049 61.6657 79.0607 62.3981C78.6442 64.436 77.8591 66.3466 76.6895 68.0821C76.257 68.703 76.3531 69.5469 76.8818 70.0723L78.9166 72.0943C79.0287 72.2058 79.0287 72.365 78.9166 72.4765L76.7056 74.6736C76.6415 74.7373 76.5614 74.7533 76.5133 74.7533C76.4652 74.7533 76.3851 74.7373 76.321 74.6736L74.3183 72.6516C74.0139 72.3491 73.6134 72.1899 73.1968 72.1899C72.8924 72.1899 72.588 72.2854 72.3156 72.4605C70.5693 73.6228 68.6467 74.4189 66.5959 74.8169C65.8429 74.9602 65.3142 75.613 65.3142 76.3613V79.2113C65.3142 79.3546 65.186 79.482 65.0418 79.482H61.9176C61.7734 79.482 61.6452 79.3546 61.6452 79.2113V76.3613C61.6452 75.613 61.1005 74.9602 60.3635 74.8169C58.3127 74.403 56.3901 73.6228 54.6438 72.4605C54.0189 72.0307 53.1698 72.1262 52.6411 72.6516L50.6063 74.6736C50.5422 74.7373 50.4621 74.7533 50.4141 74.7533C50.366 74.7533 50.2859 74.7373 50.2218 74.6736L48.0108 72.4924C47.8987 72.3809 47.8987 72.2217 48.0108 72.1103L50.0456 70.0882C50.5743 69.5628 50.6544 68.719 50.2378 68.098C49.0682 66.3626 48.2672 64.452 47.8666 62.414C47.7224 61.6657 47.0655 61.1403 46.3125 61.1562Z" fill="#FF8C00"/>
<path d="M53.4746 59.3101C53.4746 64.7871 57.9607 69.2452 63.4721 69.2452C68.9835 69.2452 73.4696 64.7871 73.4696 59.3101C73.4696 53.8331 68.9835 49.375 63.4721 49.375C57.9607 49.375 53.4746 53.8331 53.4746 59.3101ZM56.6469 59.3101C56.6469 55.5685 59.707 52.5275 63.4721 52.5275C67.2372 52.5275 70.2973 55.5685 70.2973 59.3101C70.2973 63.0517 67.2372 66.0927 63.4721 66.0927C59.707 66.0927 56.6469 63.0517 56.6469 59.3101Z" fill="#FF8C00"/>
<path d="M97.5978 107.822C101.363 107.822 104.423 104.781 104.423 101.04V93.461H105.224C107.099 93.461 108.637 92.7127 109.438 91.4071C110.223 90.1015 110.191 88.3979 109.31 86.7421L104.407 77.4597V73.7341C104.407 63.5442 98.3989 54.1823 89.0904 49.8835C88.2252 49.4695 87.312 49.1033 86.3827 48.7849C85.5496 48.5142 84.6524 48.9441 84.364 49.772C84.0916 50.5999 84.5242 51.4915 85.3573 51.7781C86.1744 52.0488 86.9755 52.3832 87.7606 52.7494C95.9797 56.5387 101.267 64.7861 101.267 73.75V77.8578C101.267 78.1125 101.331 78.3673 101.443 78.5902L106.506 88.2228C106.858 88.8755 106.938 89.4646 106.73 89.799C106.522 90.1334 105.961 90.3403 105.224 90.3403H102.837C101.956 90.3403 101.251 91.0409 101.251 91.9166V101.072C101.251 103.046 99.6807 104.638 97.71 104.702L90.6445 103.651C90.1958 103.587 89.7312 103.715 89.3787 104.017C89.0423 104.32 88.834 104.749 88.834 105.211V110.831H62.5585V91.9643C62.5585 91.5185 62.3663 91.1046 62.0458 90.8021C59.1139 88.1272 56.9029 84.72 55.6532 80.9784C55.3808 80.1505 54.4836 79.7047 53.6505 79.9754C52.8174 80.246 52.3688 81.1376 52.6411 81.9656C53.9709 86.0097 56.2941 89.6876 59.3862 92.649V112.424C59.3862 113.299 60.0912 114 60.9724 114H90.4202C91.3013 114 92.0063 113.299 92.0063 112.424V107.042L97.3735 107.838C97.4536 107.838 97.5338 107.854 97.5978 107.822Z" fill="#044C5A"/>
</svg>
