<svg width="12" height="7" viewBox="0 0 12 7" fill="none" xmlns="http://www.w3.org/2000/svg">
<path d="M10.9766 0.721401L10.4212 0.120283C10.3472 0.0400099 10.2619 0 10.1655 0C10.0694 0 9.98415 0.0400099 9.91013 0.120283L5.54376 4.8458L1.17758 0.120409C1.10353 0.0401364 1.01831 0.000126278 0.92204 0.000126278C0.825731 0.000126278 0.740512 0.0401364 0.666499 0.120409L0.111135 0.721569C0.0369672 0.801673 0 0.893907 0 0.998143C0 1.1023 0.037084 1.19453 0.111135 1.27463L5.28822 6.87797C5.36223 6.95811 5.44749 6.99816 5.54376 6.99816C5.64003 6.99816 5.72513 6.95811 5.79911 6.87797L10.9766 1.27463C11.0506 1.19449 11.0874 1.10225 11.0874 0.998143C11.0874 0.893907 11.0506 0.801674 10.9766 0.721401Z" fill="#FFF"/>
</svg>
