<svg width="70" height="93" viewBox="0 0 70 93" fill="none" xmlns="http://www.w3.org/2000/svg">
<path d="M2.61594 47.949C3.36786 40.0964 10.0736 34.168 17.9591 34.3844L24.3394 34.5595C24.6537 34.5681 24.9457 34.7241 25.1277 34.9806L35 48.9024L45.4363 34.9599C45.6192 34.7156 45.9036 34.5682 46.2087 34.5596L52.0305 34.3954C59.9203 34.1728 66.6327 40.1026 67.3851 47.9596L69.7386 72.5389C69.9014 74.2391 69.1851 75.9047 67.8391 76.956L64.4144 79.6308C63.7347 80.1616 62.7467 79.6407 62.8009 78.7799L64.1544 57.2492C64.263 55.5217 62.8912 54.061 61.1603 54.061H8.27516C6.54427 54.061 5.17248 55.5217 5.28108 57.2492L6.62698 78.6583C6.68227 79.5377 5.65567 80.0536 4.98303 79.4845L1.99696 76.9579C0.746079 75.8996 0.0931551 74.2954 0.24934 72.6643L2.61594 47.949Z" fill="#044C5A"/>
<path d="M9.11476 58.1034C9.0534 57.5134 9.51619 57 10.1094 57H59.8906C60.4838 57 60.9466 57.5134 60.8852 58.1034L58.4932 81.1034C58.4403 81.6129 58.0108 82 57.4986 82H12.5014C11.9892 82 11.5597 81.6129 11.5068 81.1034L9.11476 58.1034Z" fill="#FF8C00"/>
<path d="M5.82536 86.4856C5.45506 85.8191 5.93703 85 6.69951 85H63.3005C64.063 85 64.5449 85.8191 64.1746 86.4856L60.8413 92.4856C60.6649 92.8031 60.3303 93 59.9672 93H10.0328C9.66968 93 9.33506 92.8031 9.15869 92.4856L5.82536 86.4856Z" fill="#FF8C00"/>
<path d="M32.9269 34.4128C32.9692 34.174 33.1767 34 33.4192 34H36.5808C36.8233 34 37.0308 34.174 37.0731 34.4128L37.9477 39.3516C37.9799 39.5335 37.9092 39.7183 37.7639 39.8322L35.3086 41.758C35.1274 41.9001 34.8726 41.9001 34.6914 41.758L32.2361 39.8322C32.0908 39.7183 32.0201 39.5335 32.0523 39.3516L32.9269 34.4128Z" fill="#FF8C00"/>
<path d="M49.4208 10.625C41.0508 7.33918 43.0324 8.85489 37.0102 11.6723C34.8749 12.6713 32.4722 13.1226 30.1557 12.6827C25.5396 11.8061 25.6428 9.78278 21.015 14.0417C21.1169 5.52787 26.9209 0.0703854 35.3311 0.173553C43.428 2.32859 45.9414 4.41514 49.4208 10.625Z" fill="#044C5A"/>
<path d="M49 15.5C49 23.5393 42.7013 30 35 30C27.2987 30 21 23.5393 21 15.5C21 7.46071 27.2987 1 35 1C42.7013 1 49 7.46071 49 15.5Z" stroke="#044C5A" stroke-width="2"/>
</svg>
