<svg width="15" height="15" viewBox="0 0 15 15" fill="none" xmlns="http://www.w3.org/2000/svg">
<path d="M0 3.39844V11.6016H15V3.39844H0ZM14.1211 5.08072C13.7471 4.94808 13.4504 4.65134 13.3177 4.27734H14.1211V5.08072ZM12.4075 10.7227H2.59254C2.41734 9.86298 1.73859 9.18423 0.878906 9.00902V5.99098C1.73859 5.81577 2.41734 5.13702 2.59254 4.27734H12.4075C12.5827 5.13702 13.2614 5.81577 14.1211 5.99098V9.00913C13.2614 9.18423 12.5827 9.86298 12.4075 10.7227ZM1.68228 4.27734C1.54964 4.65134 1.2529 4.94808 0.878906 5.08072V4.27734H1.68228ZM0.878906 9.91928C1.2529 10.0519 1.54964 10.3487 1.68228 10.7227H0.878906V9.91928ZM13.3177 10.7227C13.4504 10.3487 13.7471 10.0519 14.1211 9.91928V10.7227H13.3177Z" fill="black"/>
<path d="M7.5 5.15625C7.00665 5.15625 6.53515 5.4285 6.20647 5.90332C5.9071 6.33579 5.74219 6.90285 5.74219 7.5C5.74219 8.09715 5.9071 8.66421 6.20647 9.09668C6.53515 9.5715 7.00665 9.84375 7.5 9.84375C7.99335 9.84375 8.46485 9.5715 8.79353 9.09668C9.0929 8.66421 9.25781 8.09715 9.25781 7.5C9.25781 6.90285 9.0929 6.33579 8.79353 5.90332C8.46485 5.4285 7.99335 5.15625 7.5 5.15625ZM7.5 8.96484C7.03182 8.96484 6.62109 8.28037 6.62109 7.5C6.62109 6.71963 7.03182 6.03516 7.5 6.03516C7.96818 6.03516 8.37891 6.71963 8.37891 7.5C8.37891 8.28037 7.96818 8.96484 7.5 8.96484Z" fill="black"/>
</svg>
