<svg width="200" height="200" viewBox="0 0 200 200" fill="none" xmlns="http://www.w3.org/2000/svg">
<circle cx="100" cy="100" r="100" fill="white"/>
<line x1="99.5" y1="175" x2="99.5" y2="25" stroke="#044C5A"/>
<path d="M30.8788 70.7759H32.1158C32.4465 71.9761 32.9241 73.1151 33.5365 74.1929L32.6669 75.0625C31.6381 76.0912 31.6381 77.7569 32.6669 78.7857L34.3571 80.4758C34.8592 80.978 35.5206 81.2474 36.2187 81.2474C36.9168 81.2474 37.5781 80.978 38.0803 80.4758L38.9498 79.6062C40.0276 80.2309 41.1666 80.7085 42.3669 81.0269V82.2639C42.3669 83.7214 43.5426 84.8971 45 84.8971H47.3883C48.8457 84.8971 50.0215 83.7214 50.0215 82.2639V81.0269C51.2217 80.6963 52.3607 80.2186 53.4385 79.6062L54.3081 80.4758C54.8102 80.978 55.4716 81.2474 56.1697 81.2474C56.8678 81.2474 57.5291 80.978 58.0313 80.4758L59.7214 78.7857C60.7502 77.7569 60.7502 76.0912 59.7214 75.0625L58.8518 74.1929C59.4765 73.1151 59.9541 71.9761 60.2725 70.7759H61.5095C62.967 70.7759 64.1427 69.6001 64.1427 68.1427V65.7544C64.1427 64.297 62.967 63.1212 61.5095 63.1212H60.2725C59.9419 61.921 59.4642 60.782 58.8518 59.7042L59.7214 58.8347C60.7502 57.8059 60.7502 56.1402 59.7214 55.1115L58.0313 53.4213C57.5291 52.9192 56.8678 52.6497 56.1697 52.6497C55.4716 52.6497 54.8102 52.9192 54.3081 53.4213L53.4385 54.2909C52.3607 53.6663 51.2217 53.1886 50.0215 52.8702V51.6332C50.0215 50.1758 48.8457 49 47.3883 49H45C43.5426 49 42.3669 50.1758 42.3669 51.6332V52.8579C41.1666 53.1886 40.0276 53.6663 38.9498 54.2786L38.0803 53.4091C37.5781 52.9069 36.9168 52.6375 36.2187 52.6375C35.5206 52.6375 34.8592 52.9069 34.3571 53.4091L32.6669 55.0992C31.6381 56.128 31.6381 57.7936 32.6669 58.8224L33.5365 59.692C32.9119 60.7697 32.4342 61.9088 32.1158 63.109H30.8788C29.4214 63.109 28.2456 64.2848 28.2456 65.7422V68.1304C28.2456 69.5879 29.4214 70.7636 30.8788 70.7759ZM33.0711 68.3509H30.8788C30.7686 68.3509 30.6706 68.2529 30.6706 68.1427V65.7544C30.6706 65.6442 30.7686 65.5462 30.8788 65.5462H33.0711C33.6467 65.5462 34.1488 65.1298 34.2591 64.5664C34.5775 62.9988 35.1776 61.5291 36.0717 60.1941C36.4024 59.7165 36.3289 59.0674 35.9247 58.6632L34.3448 57.1078C34.2591 57.022 34.2591 56.8996 34.3448 56.8138L36.0349 55.1237C36.0839 55.0747 36.1452 55.0625 36.1819 55.0625C36.2187 55.0625 36.2799 55.0747 36.3289 55.1237L37.8843 56.6791C38.2885 57.0833 38.9376 57.1445 39.4152 56.8261C40.7502 55.932 42.2199 55.3197 43.7875 55.0135C44.3632 54.9032 44.7673 54.4011 44.7673 53.8255V51.6332C44.7673 51.523 44.8653 51.425 44.9755 51.425H47.3638C47.474 51.425 47.572 51.523 47.572 51.6332V53.801C47.572 54.3766 47.9884 54.8788 48.5518 54.989C50.1195 55.3074 51.5891 55.9075 52.9241 56.8016C53.4018 57.1323 54.0509 57.0588 54.455 56.6546L56.0105 55.0992C56.0594 55.0502 56.1207 55.038 56.1574 55.038C56.1942 55.038 56.2554 55.0502 56.3044 55.0992L57.9945 56.7893C58.0803 56.8751 58.0803 56.9976 57.9945 57.0833L56.4391 58.6387C56.0349 59.0429 55.9737 59.692 56.2921 60.1696C57.1862 61.5046 57.7986 62.9743 58.1048 64.5419C58.215 65.1176 58.7171 65.5217 59.2928 65.5217H61.485C61.5953 65.5217 61.6932 65.6197 61.6932 65.7299V68.1182C61.6932 68.2284 61.5953 68.3264 61.485 68.3264H59.2928C58.7171 68.3264 58.215 68.7428 58.1048 69.3062C57.7863 70.8739 57.1862 72.3435 56.2921 73.6785C55.9615 74.1562 56.0349 74.8053 56.4391 75.2094L57.9945 76.7648C58.0803 76.8506 58.0803 76.9731 57.9945 77.0588L56.3044 78.7489C56.2554 78.7979 56.1942 78.8102 56.1574 78.8102C56.1207 78.8102 56.0594 78.7979 56.0105 78.7489L54.4795 77.1935C54.2468 76.9608 53.9406 76.8383 53.6222 76.8383C53.3895 76.8383 53.1568 76.9118 52.9486 77.0465C51.6136 77.9406 50.1439 78.553 48.5763 78.8592C48.0007 78.9694 47.5965 79.4715 47.5965 80.0472V82.2394C47.5965 82.3497 47.4985 82.4476 47.3883 82.4476H45C44.8898 82.4476 44.7918 82.3497 44.7918 82.2394V80.0472C44.7918 79.4715 44.3754 78.9694 43.812 78.8592C42.2444 78.5407 40.7747 77.9406 39.4397 77.0465C38.9621 76.7159 38.313 76.7893 37.9088 77.1935L36.3534 78.7489C36.3044 78.7979 36.2432 78.8102 36.2064 78.8102C36.1697 78.8102 36.1084 78.7979 36.0594 78.7489L34.3693 77.071C34.2836 76.9853 34.2836 76.8628 34.3693 76.7771L35.9247 75.2217C36.3289 74.8175 36.3901 74.1684 36.0717 73.6908C35.1776 72.3558 34.5653 70.8861 34.2591 69.3184C34.1488 68.7428 33.6467 68.3386 33.0711 68.3509Z" fill="#FF8C00"/>
<path d="M38.5459 66.9305C38.5459 71.1436 41.9752 74.5728 46.1883 74.5728C50.4014 74.5728 53.8306 71.1436 53.8306 66.9305C53.8306 62.7174 50.4014 59.2881 46.1883 59.2881C41.9752 59.2881 38.5459 62.7174 38.5459 66.9305ZM40.9709 66.9305C40.9709 64.0523 43.3101 61.7131 46.1883 61.7131C49.0664 61.7131 51.4057 64.0523 51.4057 66.9305C51.4057 69.8086 49.0664 72.1479 46.1883 72.1479C43.3101 72.1479 40.9709 69.8086 40.9709 66.9305Z" fill="#FF8C00"/>
<path d="M72.2749 104.248C75.1531 104.248 77.4923 101.909 77.4923 99.0305V93.2008H78.1047C79.5377 93.2008 80.7134 92.6252 81.3258 91.6209C81.9259 90.6166 81.9014 89.3061 81.2278 88.0324L77.4801 80.8922V78.0263C77.4801 70.1879 72.8873 62.9865 65.7716 59.6797C65.1102 59.3612 64.4121 59.0795 63.7018 58.8346C63.0649 58.6264 62.379 58.9571 62.1586 59.5939C61.9504 60.2308 62.2811 60.9166 62.9179 61.1371C63.5426 61.3453 64.1549 61.6025 64.755 61.8842C71.038 64.7991 75.0796 71.1432 75.0796 78.0385V81.1983C75.0796 81.3943 75.1286 81.5903 75.2143 81.7617L79.0845 89.1714C79.3539 89.6735 79.4152 90.1267 79.256 90.3839C79.0967 90.6411 78.6681 90.8003 78.1047 90.8003H76.2798C75.6062 90.8003 75.0674 91.3392 75.0674 92.0128V99.055C75.0674 100.574 73.8671 101.798 72.3607 101.847L66.9596 101.039C66.6167 100.99 66.2615 101.088 65.992 101.321C65.7348 101.554 65.5756 101.884 65.5756 102.239V106.563H45.4899V92.0495C45.4899 91.7066 45.3429 91.3882 45.098 91.1555C42.8567 89.0979 41.1666 86.477 40.2113 83.5988C40.0031 82.962 39.3172 82.619 38.6803 82.8272C38.0435 83.0354 37.7005 83.7213 37.9088 84.3582C38.9253 87.469 40.7012 90.2982 43.0649 92.5762V107.787C43.0649 108.461 43.6038 109 44.2774 109H66.7881C67.4617 109 68.0006 108.461 68.0006 107.787V103.648L72.1035 104.26C72.1647 104.26 72.226 104.272 72.2749 104.248Z" fill="#044C5A"/>
<path d="M35.3152 127.09C35.0485 126.183 34.4718 125.73 33.5852 125.73C32.7852 125.73 32.2085 126.053 31.8552 126.7C31.7218 126.947 31.6252 127.237 31.5652 127.57C31.5185 127.823 31.4952 128.097 31.4952 128.39C31.4952 128.51 31.4985 128.637 31.5052 128.77C31.5185 128.93 31.5385 129.083 31.5652 129.23C31.6252 129.623 31.7252 129.943 31.8652 130.19C32.2318 130.803 32.7918 131.11 33.5452 131.11C34.0852 131.11 34.5185 130.93 34.8452 130.57C35.1052 130.29 35.2885 129.91 35.3952 129.43L36.5552 129.77C36.5418 129.81 36.5318 129.85 36.5252 129.89C36.5118 129.937 36.4985 129.98 36.4852 130.02C36.4452 130.14 36.4052 130.253 36.3652 130.36C36.2385 130.653 36.0818 130.913 35.8952 131.14C35.5818 131.52 35.1685 131.793 34.6552 131.96C34.4618 132.02 34.2618 132.063 34.0552 132.09C33.8952 132.11 33.7385 132.12 33.5852 132.12C32.4918 132.12 31.6518 131.75 31.0652 131.01C30.5385 130.343 30.2752 129.477 30.2752 128.41C30.2752 127.27 30.5885 126.363 31.2152 125.69C31.8218 125.043 32.6285 124.72 33.6352 124.72C34.5018 124.72 35.1918 124.967 35.7052 125.46C35.9052 125.653 36.0752 125.883 36.2152 126.15C36.3218 126.35 36.4118 126.57 36.4852 126.81L35.3152 127.09ZM41.0727 132V131.23H41.0527C40.8127 131.583 40.506 131.833 40.1327 131.98C39.9927 132.033 39.8493 132.073 39.7027 132.1C39.6427 132.107 39.5827 132.113 39.5227 132.12H39.3927C39.0793 132.12 38.7827 132.053 38.5027 131.92C38.216 131.78 38.0127 131.6 37.8927 131.38C37.726 131.06 37.6427 130.62 37.6427 130.06V126.82H38.7527V129.45C38.7527 130.15 38.8093 130.597 38.9227 130.79C39.016 130.95 39.1493 131.063 39.3227 131.13C39.3893 131.163 39.4627 131.183 39.5427 131.19C39.6027 131.203 39.666 131.21 39.7327 131.21C39.9593 131.21 40.1727 131.153 40.3727 131.04C40.5593 130.933 40.6927 130.803 40.7727 130.65C40.906 130.377 40.9727 129.93 40.9727 129.31V126.82H42.0827V132H41.0727ZM46.4827 128.3C46.4294 128.007 46.2727 127.797 46.0127 127.67C45.9194 127.623 45.8094 127.59 45.6827 127.57C45.5894 127.557 45.4927 127.55 45.3927 127.55C45.2927 127.55 45.1927 127.557 45.0927 127.57C44.9661 127.59 44.8561 127.617 44.7627 127.65C44.5094 127.743 44.3827 127.897 44.3827 128.11C44.3827 128.27 44.4727 128.397 44.6527 128.49C44.8127 128.583 45.1294 128.683 45.6027 128.79C46.3361 128.957 46.8427 129.13 47.1227 129.31C47.5294 129.557 47.7327 129.92 47.7327 130.4C47.7327 130.86 47.5627 131.247 47.2227 131.56C46.8227 131.933 46.2494 132.12 45.5027 132.12C44.7894 132.12 44.2261 131.94 43.8127 131.58C43.4727 131.3 43.2594 130.933 43.1727 130.48L44.2727 130.31C44.3327 130.683 44.5061 130.95 44.7927 131.11C44.8994 131.17 45.0227 131.213 45.1627 131.24C45.2694 131.26 45.3794 131.27 45.4927 131.27H45.5827C45.6361 131.263 45.6861 131.26 45.7327 131.26C45.8727 131.24 45.9961 131.21 46.1027 131.17C46.4294 131.057 46.5927 130.853 46.5927 130.56C46.5927 130.287 46.3561 130.097 45.8827 129.99C44.9494 129.777 44.3261 129.577 44.0127 129.39C43.5594 129.137 43.3327 128.757 43.3327 128.25C43.3327 127.763 43.5294 127.38 43.9227 127.1C44.2827 126.833 44.7361 126.7 45.2827 126.7C45.5027 126.7 45.7061 126.713 45.8927 126.74C46.1461 126.773 46.3761 126.833 46.5827 126.92C47.1161 127.153 47.4361 127.553 47.5427 128.12L46.4827 128.3ZM50.0152 126.82H50.9252V127.69H50.0152V130.27C50.0152 130.603 50.0319 130.82 50.0652 130.92C50.1119 131.06 50.2286 131.13 50.4152 131.13C50.5086 131.13 50.6086 131.12 50.7152 131.1C50.7552 131.087 50.7919 131.077 50.8252 131.07L50.8752 131.05L50.9152 131.04L51.0352 131.95C50.9819 131.97 50.9352 131.987 50.8952 132C50.8352 132.013 50.7752 132.027 50.7152 132.04C50.5619 132.073 50.3919 132.09 50.2052 132.09C49.6252 132.09 49.2452 131.917 49.0652 131.57C48.9586 131.357 48.9052 130.943 48.9052 130.33V127.69H48.2652V126.82H48.9052V125.65L50.0152 124.99V126.82ZM51.5028 129.47C51.5028 128.563 51.7628 127.86 52.2828 127.36C52.7428 126.92 53.3328 126.7 54.0528 126.7C54.8128 126.7 55.4261 126.95 55.8928 127.45C56.3595 127.943 56.5928 128.593 56.5928 129.4C56.5928 130.22 56.3528 130.88 55.8728 131.38C55.3995 131.873 54.7895 132.12 54.0428 132.12C53.3495 132.12 52.7728 131.913 52.3128 131.5C51.7728 131.02 51.5028 130.343 51.5028 129.47ZM52.6428 129.41C52.6428 130.037 52.8028 130.51 53.1228 130.83C53.3761 131.083 53.6861 131.21 54.0528 131.21C54.1995 131.21 54.3428 131.187 54.4828 131.14C54.6561 131.08 54.8095 130.99 54.9428 130.87C55.2828 130.55 55.4528 130.053 55.4528 129.38C55.4528 128.807 55.3095 128.36 55.0228 128.04C54.7695 127.753 54.4461 127.61 54.0528 127.61C53.6795 127.61 53.3661 127.737 53.1128 127.99C52.7995 128.31 52.6428 128.783 52.6428 129.41ZM57.5829 126.82H58.5929V127.53H58.6129C58.9929 126.977 59.5196 126.7 60.1929 126.7H60.3129C60.3729 126.707 60.4296 126.713 60.4829 126.72C60.6229 126.74 60.7562 126.773 60.8829 126.82C61.2429 126.967 61.4996 127.217 61.6529 127.57L61.6929 127.52L61.7329 127.46C61.7662 127.413 61.8029 127.367 61.8429 127.32C61.9362 127.213 62.0396 127.12 62.1529 127.04C62.4662 126.813 62.8362 126.7 63.2629 126.7C63.9562 126.7 64.4329 126.957 64.6929 127.47C64.7796 127.65 64.8362 127.857 64.8629 128.09C64.8762 128.177 64.8862 128.267 64.8929 128.36V132H63.7829V128.66L63.7729 128.44C63.7529 128.273 63.7229 128.137 63.6829 128.03C63.5562 127.737 63.3096 127.59 62.9429 127.59C62.7496 127.59 62.5662 127.64 62.3929 127.74C62.2129 127.84 62.0829 127.967 62.0029 128.12C61.8629 128.387 61.7929 128.757 61.7929 129.23V132H60.6829V128.68L60.6729 128.46C60.6529 128.3 60.6229 128.16 60.5829 128.04C60.4629 127.74 60.2262 127.59 59.8729 127.59C59.6662 127.59 59.4696 127.64 59.2829 127.74C59.1096 127.84 58.9829 127.963 58.9029 128.11C58.7629 128.383 58.6929 128.81 58.6929 129.39V132H57.5829V126.82ZM66.988 129.72C67.0014 130.173 67.128 130.54 67.368 130.82C67.608 131.107 67.9347 131.25 68.348 131.25C68.688 131.25 68.9614 131.14 69.168 130.92C69.2414 130.833 69.308 130.733 69.368 130.62C69.408 130.54 69.4447 130.447 69.478 130.34L70.598 130.51C70.278 131.583 69.518 132.12 68.318 132.12C67.418 132.12 66.7547 131.807 66.328 131.18C66.008 130.713 65.848 130.133 65.848 129.44C65.848 128.693 66.0314 128.07 66.398 127.57C66.8247 126.99 67.4347 126.7 68.228 126.7C69.0547 126.7 69.678 126.987 70.098 127.56C70.4847 128.093 70.668 128.813 70.648 129.72H66.988ZM69.508 128.93C69.5014 128.783 69.4814 128.647 69.448 128.52C69.4014 128.353 69.3414 128.207 69.268 128.08C69.0547 127.74 68.7214 127.57 68.268 127.57C67.8014 127.57 67.4547 127.767 67.228 128.16C67.148 128.3 67.0847 128.453 67.038 128.62C67.0247 128.68 67.0147 128.743 67.008 128.81L66.998 128.88L66.988 128.93H69.508ZM72.7556 132H71.6456V126.82H72.6656V127.58H72.6856C72.739 127.473 72.7956 127.377 72.8556 127.29C72.929 127.183 73.0056 127.09 73.0856 127.01C73.2923 126.803 73.529 126.7 73.7956 126.7C73.9956 126.7 74.1823 126.73 74.3556 126.79C74.4223 126.817 74.4923 126.847 74.5656 126.88L74.6456 126.93L74.7256 126.97L74.3656 127.96L74.3056 127.93L74.2456 127.89C74.1923 127.863 74.1423 127.84 74.0956 127.82C73.9623 127.773 73.8256 127.75 73.6856 127.75C73.3123 127.75 73.0523 127.987 72.9056 128.46C72.8456 128.647 72.8056 128.87 72.7856 129.13C72.7656 129.323 72.7556 129.55 72.7556 129.81V132ZM78.3675 128.3C78.3142 128.007 78.1575 127.797 77.8975 127.67C77.8042 127.623 77.6942 127.59 77.5675 127.57C77.4742 127.557 77.3775 127.55 77.2775 127.55C77.1775 127.55 77.0775 127.557 76.9775 127.57C76.8508 127.59 76.7408 127.617 76.6475 127.65C76.3942 127.743 76.2675 127.897 76.2675 128.11C76.2675 128.27 76.3575 128.397 76.5375 128.49C76.6975 128.583 77.0142 128.683 77.4875 128.79C78.2208 128.957 78.7275 129.13 79.0075 129.31C79.4142 129.557 79.6175 129.92 79.6175 130.4C79.6175 130.86 79.4475 131.247 79.1075 131.56C78.7075 131.933 78.1342 132.12 77.3875 132.12C76.6742 132.12 76.1108 131.94 75.6975 131.58C75.3575 131.3 75.1442 130.933 75.0575 130.48L76.1575 130.31C76.2175 130.683 76.3908 130.95 76.6775 131.11C76.7842 131.17 76.9075 131.213 77.0475 131.24C77.1542 131.26 77.2642 131.27 77.3775 131.27H77.4675C77.5208 131.263 77.5708 131.26 77.6175 131.26C77.7575 131.24 77.8808 131.21 77.9875 131.17C78.3142 131.057 78.4775 130.853 78.4775 130.56C78.4775 130.287 78.2408 130.097 77.7675 129.99C76.8342 129.777 76.2108 129.577 75.8975 129.39C75.4442 129.137 75.2175 128.757 75.2175 128.25C75.2175 127.763 75.4142 127.38 75.8075 127.1C76.1675 126.833 76.6208 126.7 77.1675 126.7C77.3875 126.7 77.5908 126.713 77.7775 126.74C78.0308 126.773 78.2608 126.833 78.4675 126.92C79.0008 127.153 79.3208 127.553 79.4275 128.12L78.3675 128.3Z" fill="#044C5A"/>
<g clip-path="url(#clip0)">
<path d="M138.074 81.707V72.2617C138.074 71.8633 137.863 71.4766 137.535 71.2539C136.645 70.6562 136.105 69.6602 136.105 68.582V58.7969C136.105 54.6016 139.527 51.1914 143.711 51.1914H145.82C150.016 51.1914 153.426 54.6133 153.426 58.7969V68.5938C153.426 69.6719 152.887 70.668 151.996 71.2656C151.656 71.4883 151.457 71.8633 151.457 72.2734V81.7188C151.457 82.3516 151.809 82.9141 152.371 83.1953C153.613 83.793 160.094 87.0742 166.07 91.9844C166.891 92.6523 167.359 93.6484 167.359 94.7148V101.43C167.359 102.098 167.898 102.637 168.566 102.637C169.234 102.637 169.773 102.098 169.773 101.43V94.7031C169.773 92.9102 168.977 91.2344 167.605 90.0977C161.934 85.4453 155.84 82.2109 153.871 81.2148V72.8477C155.125 71.7812 155.84 70.2227 155.84 68.5703V58.7969C155.852 53.2539 151.34 48.7656 145.82 48.7656H143.711C138.18 48.7656 133.68 53.2773 133.68 58.7969V68.5938C133.68 70.2461 134.406 71.8047 135.648 72.8711V81.2266C133.68 82.2227 127.574 85.4453 121.914 90.1094C120.531 91.2344 119.746 92.9102 119.746 94.7148V101.43C119.746 102.098 120.285 102.637 120.953 102.637C121.621 102.637 122.16 102.098 122.16 101.43V94.7031C122.16 93.6367 122.629 92.6406 123.449 91.9727C129.426 87.0625 135.918 83.793 137.148 83.1836C137.723 82.9023 138.074 82.3398 138.074 81.707Z" fill="#044C5A"/>
<path d="M152.418 88.8902L142.141 99.1558L138.285 95.3003C137.805 94.8198 137.043 94.8198 136.574 95.3003C136.094 95.7808 136.094 96.5425 136.574 97.0112L141.285 101.722C141.52 101.957 141.836 102.074 142.141 102.074C142.445 102.074 142.762 101.957 142.996 101.722L154.129 90.5894C154.609 90.1089 154.609 89.3472 154.129 88.8784C153.648 88.4214 152.898 88.4214 152.418 88.8902Z" fill="#FF8C00"/>
</g>
<path d="M130.942 132H129.692L127.022 124.84H128.302L130.142 130.09C130.236 130.35 130.299 130.557 130.332 130.71H130.352C130.372 130.61 130.406 130.487 130.452 130.34C130.472 130.293 130.489 130.243 130.502 130.19C130.522 130.15 130.536 130.117 130.542 130.09L132.392 124.84H133.632L130.942 132ZM134.498 129.72C134.511 130.173 134.638 130.54 134.878 130.82C135.118 131.107 135.444 131.25 135.858 131.25C136.198 131.25 136.471 131.14 136.678 130.92C136.751 130.833 136.818 130.733 136.878 130.62C136.918 130.54 136.954 130.447 136.988 130.34L138.108 130.51C137.788 131.583 137.028 132.12 135.828 132.12C134.928 132.12 134.264 131.807 133.838 131.18C133.518 130.713 133.358 130.133 133.358 129.44C133.358 128.693 133.541 128.07 133.908 127.57C134.334 126.99 134.944 126.7 135.738 126.7C136.564 126.7 137.188 126.987 137.608 127.56C137.994 128.093 138.178 128.813 138.158 129.72H134.498ZM137.018 128.93C137.011 128.783 136.991 128.647 136.958 128.52C136.911 128.353 136.851 128.207 136.778 128.08C136.564 127.74 136.231 127.57 135.778 127.57C135.311 127.57 134.964 127.767 134.738 128.16C134.658 128.3 134.594 128.453 134.548 128.62C134.534 128.68 134.524 128.743 134.518 128.81L134.508 128.88L134.498 128.93H137.018ZM139.215 126.82H140.235V127.56H140.255C140.629 126.987 141.182 126.7 141.915 126.7C142.235 126.7 142.532 126.763 142.805 126.89C143.099 127.03 143.305 127.213 143.425 127.44C143.592 127.753 143.675 128.263 143.675 128.97V132H142.565V128.84L142.545 128.59C142.532 128.397 142.499 128.233 142.445 128.1C142.305 127.76 142.019 127.59 141.585 127.59C141.359 127.59 141.145 127.647 140.945 127.76C140.752 127.867 140.615 128.003 140.535 128.17C140.395 128.45 140.325 128.857 140.325 129.39V132H139.215V126.82ZM149.495 132H148.455V131.29H148.435C148.215 131.643 147.919 131.887 147.545 132.02C147.419 132.06 147.289 132.09 147.155 132.11C147.102 132.117 147.052 132.12 147.005 132.12H146.915C146.262 132.12 145.729 131.857 145.315 131.33C144.922 130.823 144.725 130.187 144.725 129.42C144.725 128.553 144.935 127.877 145.355 127.39C145.749 126.93 146.262 126.7 146.895 126.7C147.515 126.7 148.005 126.937 148.365 127.41H148.385V124.84H149.495V132ZM147.155 127.57C146.609 127.57 146.232 127.837 146.025 128.37C145.959 128.55 145.912 128.757 145.885 128.99C145.879 129.07 145.872 129.15 145.865 129.23V129.39C145.865 130.077 146.025 130.577 146.345 130.89C146.472 131.003 146.615 131.09 146.775 131.15C146.895 131.19 147.022 131.21 147.155 131.21C147.282 131.21 147.405 131.19 147.525 131.15C147.685 131.097 147.825 131.013 147.945 130.9C148.265 130.6 148.425 130.117 148.425 129.45C148.425 128.857 148.309 128.393 148.075 128.06C147.849 127.733 147.542 127.57 147.155 127.57ZM150.556 129.47C150.556 128.563 150.816 127.86 151.336 127.36C151.796 126.92 152.386 126.7 153.106 126.7C153.866 126.7 154.479 126.95 154.946 127.45C155.412 127.943 155.646 128.593 155.646 129.4C155.646 130.22 155.406 130.88 154.926 131.38C154.452 131.873 153.842 132.12 153.096 132.12C152.402 132.12 151.826 131.913 151.366 131.5C150.826 131.02 150.556 130.343 150.556 129.47ZM151.696 129.41C151.696 130.037 151.856 130.51 152.176 130.83C152.429 131.083 152.739 131.21 153.106 131.21C153.252 131.21 153.396 131.187 153.536 131.14C153.709 131.08 153.862 130.99 153.996 130.87C154.336 130.55 154.506 130.053 154.506 129.38C154.506 128.807 154.362 128.36 154.076 128.04C153.822 127.753 153.499 127.61 153.106 127.61C152.732 127.61 152.419 127.737 152.166 127.99C151.852 128.31 151.696 128.783 151.696 129.41ZM157.756 132H156.646V126.82H157.666V127.58H157.686C157.739 127.473 157.796 127.377 157.856 127.29C157.929 127.183 158.006 127.09 158.086 127.01C158.292 126.803 158.529 126.7 158.796 126.7C158.996 126.7 159.182 126.73 159.356 126.79C159.422 126.817 159.492 126.847 159.566 126.88L159.646 126.93L159.726 126.97L159.366 127.96L159.306 127.93L159.246 127.89C159.192 127.863 159.142 127.84 159.096 127.82C158.962 127.773 158.826 127.75 158.686 127.75C158.312 127.75 158.052 127.987 157.906 128.46C157.846 128.647 157.806 128.87 157.786 129.13C157.766 129.323 157.756 129.55 157.756 129.81V132ZM163.368 128.3C163.314 128.007 163.158 127.797 162.898 127.67C162.804 127.623 162.694 127.59 162.568 127.57C162.474 127.557 162.378 127.55 162.278 127.55C162.178 127.55 162.078 127.557 161.978 127.57C161.851 127.59 161.741 127.617 161.648 127.65C161.394 127.743 161.268 127.897 161.268 128.11C161.268 128.27 161.358 128.397 161.538 128.49C161.698 128.583 162.014 128.683 162.488 128.79C163.221 128.957 163.728 129.13 164.008 129.31C164.414 129.557 164.618 129.92 164.618 130.4C164.618 130.86 164.448 131.247 164.108 131.56C163.708 131.933 163.134 132.12 162.388 132.12C161.674 132.12 161.111 131.94 160.698 131.58C160.358 131.3 160.144 130.933 160.058 130.48L161.157 130.31C161.218 130.683 161.391 130.95 161.678 131.11C161.784 131.17 161.908 131.213 162.048 131.24C162.154 131.26 162.264 131.27 162.378 131.27H162.468C162.521 131.263 162.571 131.26 162.618 131.26C162.758 131.24 162.881 131.21 162.988 131.17C163.314 131.057 163.478 130.853 163.478 130.56C163.478 130.287 163.241 130.097 162.768 129.99C161.834 129.777 161.211 129.577 160.898 129.39C160.444 129.137 160.218 128.757 160.218 128.25C160.218 127.763 160.414 127.38 160.808 127.1C161.168 126.833 161.621 126.7 162.168 126.7C162.388 126.7 162.591 126.713 162.778 126.74C163.031 126.773 163.261 126.833 163.468 126.92C164.001 127.153 164.321 127.553 164.428 128.12L163.368 128.3Z" fill="#044C5A"/>
<defs>
<clipPath id="clip0">
<rect width="60" height="60" fill="white" transform="translate(115 49)"/>
</clipPath>
</defs>
</svg>
