<svg width="35" height="27" viewBox="0 0 35 27" fill="none" xmlns="http://www.w3.org/2000/svg">
<path fill-rule="evenodd" clip-rule="evenodd" d="M12.9784 0H22.0216C22.6417 0 23.4555 0.403594 23.8372 0.90125L26.3222 4.56531C26.565 4.92187 26.9686 5.13844 27.3995 5.13844H32.7436C33.9905 5.13844 34.9989 6.15562 34.9989 7.41672V23.9717C34.9989 25.2306 33.9905 26.2511 32.7436 26.2511H2.25641C1.00953 26.2511 0 25.2328 0 23.9717V7.41672C0 6.15781 1.00953 5.13844 2.25641 5.13844H7.62234C8.03906 5.13844 8.42953 4.93062 8.66578 4.585L11.1617 0.90125C11.5445 0.404687 12.3616 0 12.9784 0ZM25.9678 7.99093C25.9678 8.62093 26.4731 9.13171 27.0965 9.13171C27.721 9.13171 28.2253 8.62093 28.2253 7.99093C28.2253 7.36093 27.721 6.84906 27.0965 6.84906C26.4731 6.84906 25.9678 7.36093 25.9678 7.99093ZM9.59654 15.4088C9.59654 19.821 13.1348 23.3975 17.5 23.3975C21.8651 23.3975 25.4023 19.821 25.4023 15.4088C25.4023 10.9955 21.8651 7.42002 17.5 7.42002C13.1348 7.42002 9.59654 10.9955 9.59654 15.4088ZM11.2908 15.4088C11.2908 11.9405 14.07 9.13175 17.5 9.13175C20.93 9.13175 23.7092 11.9405 23.7092 15.4088C23.7092 18.876 20.93 21.6858 17.5 21.6858C14.07 21.6858 11.2908 18.876 11.2908 15.4088Z" fill="#044C5A"/>
</svg>
