<svg width="15" height="15" viewBox="0 0 15 15" fill="none" xmlns="http://www.w3.org/2000/svg">
<path d="M0 3.88403V14.3305H15V3.88403H0ZM14.4643 13.7947H0.535714V4.41975H14.4643V13.7947Z" fill="#044C5A"/>
<path d="M0.803502 3.34821H14.1964C14.3442 3.34821 14.4642 3.22821 14.4642 3.08036C14.4642 2.9325 14.3442 2.8125 14.1964 2.8125H0.803502C0.655645 2.8125 0.535645 2.9325 0.535645 3.08036C0.535645 3.22821 0.655645 3.34821 0.803502 3.34821Z" fill="black"/>
<path d="M1.60721 2.27693H13.3929C13.5408 2.27693 13.6608 2.15693 13.6608 2.00907C13.6608 1.86121 13.5408 1.74121 13.3929 1.74121H1.60721C1.45936 1.74121 1.33936 1.86121 1.33936 2.00907C1.33936 2.15693 1.45936 2.27693 1.60721 2.27693Z" fill="black"/>
<path d="M2.41092 1.20539H12.5895C12.7374 1.20539 12.8574 1.08539 12.8574 0.937535C12.8574 0.789678 12.7374 0.669678 12.5895 0.669678H2.41092C2.26307 0.669678 2.14307 0.789678 2.14307 0.937535C2.14307 1.08539 2.26307 1.20539 2.41092 1.20539Z" fill="black"/>
</svg>
