<svg width="40" height="40" viewBox="0 0 40 40" fill="none" xmlns="http://www.w3.org/2000/svg">
<path d="M20 40C31.0457 40 40 31.0457 40 20C40 8.95431 31.0457 0 20 0C8.95431 0 0 8.95431 0 20C0 31.0457 8.95431 40 20 40Z" fill="white"/>
<path d="M20.0945 28.5669C20.063 28.5669 20.0315 28.5984 20 28.5984C19.9685 28.5984 19.937 28.5669 19.9055 28.5669H20.0945Z" fill="#84DBFF"/>
<path d="M35.5275 32.5983C31.874 37.1022 26.2677 39.9998 20 39.9998C13.7323 39.9998 8.12596 37.1022 4.47241 32.5983C7.08659 29.1022 11.0866 27.3699 14.3622 26.5195C14.1102 28.5983 15.1811 31.3699 15.2126 31.3069C16.3149 28.7872 20 28.5668 20 28.5668C20 28.5668 23.685 28.7872 24.7559 31.3069C24.7874 31.3699 25.8897 28.5983 25.6063 26.5195C28.9134 27.3699 32.9449 29.1022 35.5275 32.5983Z" fill="#84DBFF"/>
<path d="M24.5038 24.5667C24.5038 24.5667 24.5038 24.5667 24.5038 24.5982C24.5038 24.9132 24.3464 26.9289 20.0944 28.5352H19.9054C15.6535 26.9289 15.496 24.9132 15.496 24.5982C15.496 24.5667 15.496 24.5667 15.496 24.5667C15.496 24.1573 15.5905 23.7478 15.6849 23.3384C16.9133 24.8817 18.3936 25.9211 19.9999 25.9211C21.6062 25.9211 23.0865 24.8817 24.3149 23.3384C24.4094 23.7478 24.5038 24.1573 24.5038 24.5667Z" fill="white"/>
<path d="M24.5039 24.5669C24.5039 24.5669 24.7244 26.8346 20 28.5984C20 28.5984 23.685 28.8189 24.7559 31.3385C24.8189 31.4015 26.9291 25.9212 24.5039 24.5669Z" fill="#54C0EB"/>
<path d="M15.4961 24.5669C13.0709 25.9212 15.1812 31.4015 15.2442 31.3071C16.3465 28.7874 20.0001 28.5669 20.0001 28.5669C15.2757 26.8346 15.4961 24.5669 15.4961 24.5669Z" fill="#54C0EB"/>
<path d="M26.6143 16.5985C26.3308 18.5513 25.4804 20.378 24.0631 21.7639C23.7796 22.0473 23.5276 22.2678 23.2127 22.4883L22.7087 20.882H17.2914L16.7875 22.4883C15.7796 21.7324 13.6694 19.6221 13.6379 17.6379C12.756 6.33079 21.4174 8.72449 21.4174 8.72449C27.2442 8.31504 27.0552 13.4489 26.6143 16.5985Z" fill="white"/>
<path d="M27.7795 18.6457C27.3386 19.3701 26.7401 19.874 26.1732 20.063C26.3937 19.5591 26.5827 19.0236 26.7401 18.4882C26.7401 18.4882 26.7401 18.4882 26.7401 18.4567C26.8661 17.9843 26.9921 17.5118 27.1181 17.0394H27.0866C27.2126 16.567 27.3386 16.0945 27.4331 15.6221C27.559 15.6221 27.685 15.6851 27.811 15.7481C28.5039 16.189 28.4724 17.4803 27.7795 18.6457Z" fill="white"/>
<path d="M13.8268 20.0628C13.2599 19.8738 12.6615 19.3699 12.2205 18.6454C11.4961 17.4801 11.4961 16.1887 12.189 15.7793C12.252 15.7478 12.2835 15.7163 12.3465 15.7163C12.7245 17.1966 13.1654 18.299 13.2599 18.5195C13.4174 19.0234 13.6064 19.5588 13.8268 20.0628Z" fill="white"/>
<path d="M23.4331 5.57495C23.6851 2.67731 19.0867 2.86629 19.0867 2.86629C12.126 3.87416 11.3701 10.3623 11.3701 10.3623L12.315 9.22849C10.8347 12.4726 13.0709 18.0474 13.2599 18.4883C14.4252 22.3624 17.0079 25.9214 20 25.9214C22.9922 25.9214 25.5748 22.3624 26.7402 18.4883C26.7402 18.4883 26.7402 18.4883 26.7402 18.4568C26.8662 17.9844 26.9922 17.512 27.0867 17.0395H27.0552C27.6851 14.5198 28.378 11.9686 28.378 11.9686C30.1733 2.92928 23.4331 5.57495 23.4331 5.57495ZM26.6142 16.5986C26.3307 18.5513 25.4804 20.3781 24.063 21.7639C23.7796 22.0474 23.4961 22.2679 23.2126 22.4883L22.7087 20.9135H17.2914L16.7874 22.5198C15.7796 21.7639 14.9292 20.7246 14.2363 19.5277C13.9213 18.8978 13.7323 18.2364 13.6378 17.6694C12.7559 6.36235 21.4174 8.75605 21.4174 8.75605C27.2441 8.3151 27.0552 13.449 26.6142 16.5986Z" fill="#324A5E"/>
<path d="M23.4331 5.57495C23.6851 2.67731 19.0867 2.86629 19.0867 2.86629C12.126 3.87416 11.3701 10.3623 11.3701 10.3623L12.315 9.22849C10.8347 12.4726 13.0709 18.0474 13.2599 18.4883C14.4252 22.3624 17.0079 25.9214 20 25.9214C22.9922 25.9214 25.5748 22.3624 26.7402 18.4883C26.7402 18.4883 26.7402 18.4883 26.7402 18.4568C26.8662 17.9844 26.9922 17.512 27.0867 17.0395H27.0552C27.6851 14.5198 28.378 11.9686 28.378 11.9686C30.1733 2.92928 23.4331 5.57495 23.4331 5.57495ZM26.6142 16.5986C26.3307 18.5513 25.4804 20.3781 24.063 21.7639C23.7796 22.0474 23.4961 22.2679 23.2126 22.4883L22.7087 20.9135H17.2914L16.7874 22.5198C15.7796 21.7639 14.9292 20.7246 14.2363 19.5277C13.9213 18.8978 13.7323 18.2364 13.6378 17.6694C12.7559 6.36235 21.4174 8.75605 21.4174 8.75605C27.2441 8.3151 27.0552 13.449 26.6142 16.5986Z" fill="#324A5E"/>
<path d="M23.063 5.71118C23.315 2.81354 18.7165 3.00252 18.7165 3.00252C11.7559 4.01039 11 10.4986 11 10.4986L11.9449 9.36472C10.4646 12.6088 12.7008 18.1836 12.8898 18.6246C14.0551 22.4986 16.6378 26.0576 19.6299 26.0576C22.622 26.0576 25.2047 22.4986 26.3701 18.6246C26.3701 18.6246 26.3701 18.6246 26.3701 18.5931C26.4961 18.1206 26.622 17.6482 26.7165 17.1757H26.685C27.315 14.6561 28.0079 12.1049 28.0079 12.1049C29.8031 3.06551 23.063 5.71118 23.063 5.71118ZM26.2441 16.7348C25.9606 18.6876 25.1102 20.5143 23.6929 21.9002C23.4094 22.1836 23.126 22.4041 22.8425 22.6246L22.3386 21.0498H16.9213L16.4173 22.6561C15.4094 21.9002 13.2992 19.7899 13.2677 17.8057C12.3858 6.49858 21.0472 8.89228 21.0472 8.89228C26.874 8.45133 26.685 13.5852 26.2441 16.7348Z" fill="#324A5E"/>
<path d="M17.7953 21.9844C18.3307 22.5828 19.1181 22.9922 20 22.9922C20.8819 22.9922 21.6693 22.6143 22.2047 21.9844H17.7953Z" fill="white"/>
<circle cx="32" cy="36.6668" r="3.33333" fill="#67AA56"/>
</svg>
