<svg width="30" height="30" viewBox="0 0 30 30" fill="none" xmlns="http://www.w3.org/2000/svg">
    <path d="M25.3817 1.81246e-05C24.775 -0.00176074 24.174 0.127418 23.6135 0.38008C23.053 0.632741 22.5441 1.00387 22.1162 1.47198L4.43211 20.7154C4.18597 20.9786 3.99017 21.2922 3.85602 21.6382C3.72186 21.9841 3.652 22.3555 3.65048 22.731C3.64896 23.1065 3.7158 23.4786 3.84715 23.8258C3.97849 24.173 4.17174 24.4885 4.41574 24.754C4.65973 25.0195 4.94964 25.2298 5.26873 25.3727C5.58781 25.5157 5.92975 25.5884 6.27481 25.5867C6.61986 25.5851 6.9612 25.509 7.27911 25.363C7.59702 25.2171 7.8852 25.004 8.12703 24.7361L19.0964 12.7997C19.1452 12.7467 19.1839 12.6837 19.2103 12.6143C19.2367 12.545 19.2503 12.4707 19.2503 12.3956C19.2503 12.3206 19.2367 12.2462 19.2103 12.1769C19.1839 12.1076 19.1452 12.0446 19.0964 11.9915C19.0477 11.9384 18.9898 11.8963 18.926 11.8676C18.8623 11.8389 18.794 11.8241 18.7251 11.8241C18.6561 11.8241 18.5878 11.8389 18.5241 11.8676C18.4604 11.8963 18.4025 11.9384 18.3537 11.9915L7.38422 23.9279C7.23983 24.0891 7.06746 24.2175 6.87711 24.3057C6.68676 24.3938 6.48222 24.4399 6.27535 24.4414C6.06849 24.4428 5.86342 24.3995 5.67204 24.3141C5.48067 24.2286 5.3068 24.1026 5.16052 23.9434C5.01424 23.7842 4.89847 23.595 4.81992 23.3868C4.74137 23.1785 4.70161 22.9554 4.70295 22.7303C4.70428 22.5051 4.74668 22.2826 4.82769 22.0754C4.9087 21.8683 5.0267 21.6807 5.17485 21.5236L22.8588 2.28014C23.5288 1.55639 24.435 1.15107 25.3791 1.15295C26.3231 1.15483 27.228 1.56376 27.8955 2.29017C28.563 3.01658 28.9388 4.00126 28.9405 5.02854C28.9422 6.05583 28.5697 7.04198 27.9046 7.771L10.0759 27.1719C9.0829 28.243 7.74043 28.8424 6.34226 28.839C4.9441 28.8357 3.60409 28.2298 2.61545 27.1539C1.62681 26.078 1.07005 24.6198 1.067 23.0984C1.06395 21.5769 1.61485 20.1161 2.59916 19.0355L18.2859 1.96525C18.3844 1.85806 18.4397 1.71268 18.4397 1.5611C18.4397 1.40952 18.3843 1.26415 18.2858 1.15698C18.1873 1.0498 18.0538 0.989587 17.9145 0.989594C17.7752 0.989601 17.6416 1.04982 17.5431 1.15701L1.85616 18.2273C0.667668 19.5206 -1.23112e-05 21.2747 1.70253e-10 23.1037C1.23115e-05 24.9328 0.667716 26.6869 1.85623 27.9802C3.04473 29.2735 4.65669 30 6.33748 30C8.01828 30 9.63022 29.2734 10.8187 27.9801L28.6474 8.57917C29.2933 7.87632 29.7331 6.98085 29.9113 6.006C30.0895 5.03114 29.998 4.02068 29.6484 3.10238C29.2989 2.18409 28.707 1.39921 27.9475 0.846996C27.188 0.294781 26.2951 3.11808e-05 25.3817 1.81246e-05Z" fill="#ff8c00"/>
</svg>
