<svg width="150" height="150" xmlns="http://www.w3.org/2000/svg" fill="none">
 <g>
  <title>Layer 1</title>
  <circle cx="75" cy="76.02564" r="75" fill="white" id="svg_1"/>
  <path id="svg_1" fill="#044C5A" d="m108.87328,67.63886l-1.7857,0l0,-12.0572c0,-2.8285 -2.2286,-5.0571 -4.9143,-5.0571l-1.3429,0l0,-8.05716c0,-2.82857 -2.0857,-5.05714 -4.6143,-5.05714c0,0 -0.1428,0 -0.3,0l-50.94281,13.1c-0.01429,0 -0.04286,0.0143 -0.05715,0.0143c-2.51428,0.2 -4.55714,2.3571 -4.55714,5.0571l0,46.7715c0,2.8285 2.22857,5.0571 4.91429,5.0571l56.90001,0c2.8286,0 5.0571,-2.2286 5.0571,-5.0571l0,-12.3715l1.6429,0c0.9,0 1.4857,-0.6 1.4857,-1.4857l0,-19.3571c0,-0.9 -0.7429,-1.5 -1.4857,-1.5zm-12.3714,-27.40003c0.7428,0.14286 1.4857,1.04286 1.4857,2.22857l0,8.04286l-41.1,0l39.6143,-10.27143zm7.7571,62.11433c0,1.1857 -0.9,2.2285 -2.0857,2.2285l-56.90001,0c-1.18572,0 -2.08572,-1.0428 -2.08572,-2.2285l0,-46.7715c0,-1.1857 0.9,-2.2285 2.08572,-2.2285l56.74281,0c1.1858,0 2.0858,1.0428 2.0858,2.2285l0,12.0572l-14.7429,0c-6.2571,0 -11.1714,4.9143 -11.1714,11.1714c0,6.2571 5.0571,11.1714 11.1714,11.1714l14.9,0l0,12.3715zm3.1143,-15.2l-18.0143,0c-4.4714,0 -8.1857,-3.7286 -8.1857,-8.1858c0,-4.4571 3.7286,-8.1857 8.1857,-8.1857l18.0143,0l0,16.3715z"/>
  <path id="svg_2" fill="#FF8C00" d="m88.32413,78.79737c0,0.9 0.7429,1.4857 1.4858,1.4857l1.3428,0c0.7429,0 1.4857,-0.6 1.4857,-1.4857c0,-0.9 -0.7428,-1.4858 -1.4857,-1.4858l-1.3286,0c-0.9,0 -1.5,0.6 -1.5,1.4858z"/>
  <path id="svg_1" fill="#FF8C00" d="m61.32688,76.92657l-3.93498,0c-1.43877,0 -2.6002,-1.2014 -2.6002,-2.6897c0,-1.48838 1.16143,-2.68981 2.6002,-2.68981l6.9512,0c0.9534,0 1.7162,-0.789 1.7162,-1.77525c0,-0.98626 -0.7628,-1.77526 -1.7162,-1.77526l-3.27624,0l0,-2.49253c0,-0.98625 -0.76273,-1.77525 -1.71613,-1.77525c-0.95341,0 -1.71614,0.789 -1.71614,1.77525l0,2.49253l-0.26002,0c-3.32826,0 -6.03247,2.79737 -6.03247,6.24032c0,3.4429 2.70421,6.2403 6.03247,6.2403l3.93498,0c1.43875,0 2.60015,1.2014 2.60015,2.6897c0,1.4884 -1.1614,2.6898 -2.60015,2.6898l-7.08989,0c-0.95341,0 -1.71614,0.789 -1.71614,1.7753c0,0.9862 0.76273,1.7752 1.71614,1.7752l3.3976,0l0,2.5463c0,0.9863 0.76272,1.7753 1.71613,1.7753c0.95341,0 1.71614,-0.789 1.71614,-1.7753l0,-2.5463l0.26002,0c3.32825,0 6.03245,-2.7973 6.03245,-6.2403c0.0174,-3.4249 -2.6869,-6.2403 -6.01512,-6.2403z"/>
 </g>

</svg>