<svg width="200" height="200" viewBox="0 0 200 200" fill="none" xmlns="http://www.w3.org/2000/svg">
<circle cx="100" cy="100" r="100" fill="white"/>
<g clip-path="url(#clip0)">
<path d="M94.0202 49.2861H69.0151C66.8004 49.2861 65 51.0865 65 53.3012V71.262C65 73.4768 66.8004 75.2771 69.0151 75.2771H80.1031V78.9207H76.4738C75.6879 78.9207 75.0592 79.5494 75.0592 80.3353C75.0592 81.1212 75.6879 81.7499 76.4738 81.7499H86.533C87.3188 81.7499 87.9475 81.1212 87.9475 80.3353C87.9475 79.5494 87.3188 78.9207 86.533 78.9207H82.9179V75.2771H94.0059C96.2207 75.2771 98.021 73.4768 98.021 71.262V53.2869C98.021 51.0865 96.2207 49.2861 94.0202 49.2861ZM95.1919 71.2478C95.1919 71.8907 94.6632 72.4337 94.0059 72.4337H69.0008C68.3435 72.4337 67.8149 71.905 67.8149 71.2478V53.2869C67.8149 52.644 68.3435 52.101 69.0008 52.101H94.0059C94.6632 52.101 95.1919 52.6297 95.1919 53.2869V71.2478Z" fill="#044C5A"/>
<path d="M130.985 86.251H105.98C103.765 86.251 101.965 88.0513 101.965 90.2661V108.227C101.965 110.442 103.765 112.242 105.98 112.242H117.068V115.886H113.453C112.667 115.886 112.038 116.514 112.038 117.3C112.038 118.086 112.667 118.715 113.453 118.715H123.512C124.298 118.715 124.926 118.086 124.926 117.3C124.926 116.514 124.298 115.886 123.512 115.886H119.897V112.242H130.985C133.2 112.242 135 110.442 135 108.227V90.2518C134.986 88.0371 133.185 86.251 130.985 86.251ZM132.156 108.213C132.156 108.856 131.628 109.399 130.971 109.399H105.965C105.308 109.399 104.779 108.87 104.779 108.213V90.2518C104.779 89.6088 105.308 89.0658 105.965 89.0658H130.971C131.614 89.0658 132.156 89.5945 132.156 90.2518V108.213Z" fill="#044C5A"/>
<path d="M118.468 60.8594H104.78C103.994 60.8594 103.365 61.4881 103.365 62.2739C103.365 63.0598 103.994 63.6885 104.78 63.6885H117.053V77.2199L114.967 75.1337C114.41 74.5765 113.524 74.5765 112.967 75.1337C112.41 75.691 112.41 76.5769 112.967 77.1341L117.468 81.635C117.739 81.9065 118.111 82.0494 118.468 82.0494C118.825 82.0494 119.197 81.9065 119.468 81.635L123.969 77.1341C124.526 76.5769 124.526 75.691 123.969 75.1337C123.412 74.5765 122.526 74.5765 121.969 75.1337L119.883 77.2199V62.2739C119.883 61.4881 119.254 60.8594 118.468 60.8594Z" fill="#FF8C00"/>
<path d="M95.2062 105.055H82.9323V91.5236L85.0184 93.6097C85.2899 93.8812 85.6614 94.0241 86.0186 94.0241C86.3758 94.0241 86.7473 93.8812 87.0188 93.6097C87.5761 93.0524 87.5761 92.1665 87.0188 91.6093L82.5179 87.1084C81.9606 86.5511 81.0747 86.5511 80.5175 87.1084L76.0166 91.6093C75.4593 92.1665 75.4593 93.0524 76.0166 93.6097C76.5738 94.167 77.4597 94.167 78.017 93.6097L80.1031 91.5236V106.469C80.1031 107.255 80.7318 107.884 81.5177 107.884H95.2062C95.9921 107.884 96.6208 107.255 96.6208 106.469C96.6208 105.684 95.9778 105.055 95.2062 105.055Z" fill="#FF8C00"/>
</g>
<path d="M48.6023 142.09C48.3356 141.183 47.7589 140.73 46.8723 140.73C46.0723 140.73 45.4956 141.053 45.1423 141.7C45.0089 141.947 44.9123 142.237 44.8523 142.57C44.8056 142.823 44.7823 143.097 44.7823 143.39C44.7823 143.51 44.7856 143.637 44.7923 143.77C44.8056 143.93 44.8256 144.083 44.8523 144.23C44.9123 144.623 45.0123 144.943 45.1523 145.19C45.5189 145.803 46.0789 146.11 46.8323 146.11C47.3723 146.11 47.8056 145.93 48.1323 145.57C48.3923 145.29 48.5756 144.91 48.6823 144.43L49.8423 144.77C49.8289 144.81 49.8189 144.85 49.8123 144.89C49.7989 144.937 49.7856 144.98 49.7723 145.02C49.7323 145.14 49.6923 145.253 49.6523 145.36C49.5256 145.653 49.3689 145.913 49.1823 146.14C48.8689 146.52 48.4556 146.793 47.9423 146.96C47.7489 147.02 47.5489 147.063 47.3423 147.09C47.1823 147.11 47.0256 147.12 46.8723 147.12C45.7789 147.12 44.9389 146.75 44.3523 146.01C43.8256 145.343 43.5623 144.477 43.5623 143.41C43.5623 142.27 43.8756 141.363 44.5023 140.69C45.1089 140.043 45.9156 139.72 46.9223 139.72C47.7889 139.72 48.4789 139.967 48.9923 140.46C49.1923 140.653 49.3623 140.883 49.5023 141.15C49.6089 141.35 49.6989 141.57 49.7723 141.81L48.6023 142.09ZM54.3598 147V146.23H54.3398C54.0998 146.583 53.7931 146.833 53.4198 146.98C53.2798 147.033 53.1364 147.073 52.9898 147.1C52.9298 147.107 52.8698 147.113 52.8098 147.12H52.6798C52.3664 147.12 52.0698 147.053 51.7898 146.92C51.5031 146.78 51.2998 146.6 51.1798 146.38C51.0131 146.06 50.9298 145.62 50.9298 145.06V141.82H52.0398V144.45C52.0398 145.15 52.0964 145.597 52.2098 145.79C52.3031 145.95 52.4364 146.063 52.6098 146.13C52.6764 146.163 52.7498 146.183 52.8298 146.19C52.8898 146.203 52.9531 146.21 53.0198 146.21C53.2464 146.21 53.4598 146.153 53.6598 146.04C53.8464 145.933 53.9798 145.803 54.0598 145.65C54.1931 145.377 54.2598 144.93 54.2598 144.31V141.82H55.3698V147H54.3598ZM59.7698 143.3C59.7165 143.007 59.5598 142.797 59.2998 142.67C59.2065 142.623 59.0965 142.59 58.9698 142.57C58.8765 142.557 58.7798 142.55 58.6798 142.55C58.5798 142.55 58.4798 142.557 58.3798 142.57C58.2532 142.59 58.1432 142.617 58.0498 142.65C57.7965 142.743 57.6698 142.897 57.6698 143.11C57.6698 143.27 57.7598 143.397 57.9398 143.49C58.0998 143.583 58.4165 143.683 58.8898 143.79C59.6232 143.957 60.1298 144.13 60.4098 144.31C60.8165 144.557 61.0198 144.92 61.0198 145.4C61.0198 145.86 60.8498 146.247 60.5098 146.56C60.1098 146.933 59.5365 147.12 58.7898 147.12C58.0765 147.12 57.5132 146.94 57.0998 146.58C56.7598 146.3 56.5465 145.933 56.4598 145.48L57.5598 145.31C57.6198 145.683 57.7932 145.95 58.0798 146.11C58.1865 146.17 58.3098 146.213 58.4498 146.24C58.5565 146.26 58.6665 146.27 58.7798 146.27H58.8698C58.9232 146.263 58.9732 146.26 59.0198 146.26C59.1598 146.24 59.2832 146.21 59.3898 146.17C59.7165 146.057 59.8798 145.853 59.8798 145.56C59.8798 145.287 59.6432 145.097 59.1698 144.99C58.2365 144.777 57.6132 144.577 57.2998 144.39C56.8465 144.137 56.6198 143.757 56.6198 143.25C56.6198 142.763 56.8165 142.38 57.2098 142.1C57.5698 141.833 58.0232 141.7 58.5698 141.7C58.7898 141.7 58.9932 141.713 59.1798 141.74C59.4332 141.773 59.6632 141.833 59.8698 141.92C60.4032 142.153 60.7232 142.553 60.8298 143.12L59.7698 143.3ZM63.3023 141.82H64.2123V142.69H63.3023V145.27C63.3023 145.603 63.319 145.82 63.3523 145.92C63.399 146.06 63.5157 146.13 63.7023 146.13C63.7957 146.13 63.8957 146.12 64.0023 146.1C64.0423 146.087 64.079 146.077 64.1123 146.07L64.1623 146.05L64.2023 146.04L64.3223 146.95C64.269 146.97 64.2223 146.987 64.1823 147C64.1223 147.013 64.0623 147.027 64.0023 147.04C63.849 147.073 63.679 147.09 63.4923 147.09C62.9123 147.09 62.5323 146.917 62.3523 146.57C62.2457 146.357 62.1923 145.943 62.1923 145.33V142.69H61.5523V141.82H62.1923V140.65L63.3023 139.99V141.82ZM64.7899 144.47C64.7899 143.563 65.0499 142.86 65.5699 142.36C66.0299 141.92 66.6199 141.7 67.3399 141.7C68.0999 141.7 68.7133 141.95 69.1799 142.45C69.6466 142.943 69.8799 143.593 69.8799 144.4C69.8799 145.22 69.6399 145.88 69.1599 146.38C68.6866 146.873 68.0766 147.12 67.3299 147.12C66.6366 147.12 66.0599 146.913 65.5999 146.5C65.0599 146.02 64.7899 145.343 64.7899 144.47ZM65.9299 144.41C65.9299 145.037 66.0899 145.51 66.4099 145.83C66.6633 146.083 66.9733 146.21 67.3399 146.21C67.4866 146.21 67.6299 146.187 67.7699 146.14C67.9433 146.08 68.0966 145.99 68.2299 145.87C68.5699 145.55 68.7399 145.053 68.7399 144.38C68.7399 143.807 68.5966 143.36 68.3099 143.04C68.0566 142.753 67.7333 142.61 67.3399 142.61C66.9666 142.61 66.6533 142.737 66.3999 142.99C66.0866 143.31 65.9299 143.783 65.9299 144.41ZM70.87 141.82H71.88V142.53H71.9C72.28 141.977 72.8067 141.7 73.48 141.7H73.6C73.66 141.707 73.7167 141.713 73.77 141.72C73.91 141.74 74.0433 141.773 74.17 141.82C74.53 141.967 74.7867 142.217 74.94 142.57L74.98 142.52L75.02 142.46C75.0533 142.413 75.09 142.367 75.13 142.32C75.2233 142.213 75.3267 142.12 75.44 142.04C75.7533 141.813 76.1233 141.7 76.55 141.7C77.2433 141.7 77.72 141.957 77.98 142.47C78.0667 142.65 78.1233 142.857 78.15 143.09C78.1633 143.177 78.1733 143.267 78.18 143.36V147H77.07V143.66L77.06 143.44C77.04 143.273 77.01 143.137 76.97 143.03C76.8433 142.737 76.5967 142.59 76.23 142.59C76.0367 142.59 75.8533 142.64 75.68 142.74C75.5 142.84 75.37 142.967 75.29 143.12C75.15 143.387 75.08 143.757 75.08 144.23V147H73.97V143.68L73.96 143.46C73.94 143.3 73.91 143.16 73.87 143.04C73.75 142.74 73.5133 142.59 73.16 142.59C72.9533 142.59 72.7567 142.64 72.57 142.74C72.3967 142.84 72.27 142.963 72.19 143.11C72.05 143.383 71.98 143.81 71.98 144.39V147H70.87V141.82ZM80.2752 144.72C80.2885 145.173 80.4152 145.54 80.6552 145.82C80.8952 146.107 81.2218 146.25 81.6352 146.25C81.9752 146.25 82.2485 146.14 82.4552 145.92C82.5285 145.833 82.5952 145.733 82.6552 145.62C82.6952 145.54 82.7318 145.447 82.7652 145.34L83.8852 145.51C83.5652 146.583 82.8052 147.12 81.6052 147.12C80.7052 147.12 80.0418 146.807 79.6152 146.18C79.2952 145.713 79.1352 145.133 79.1352 144.44C79.1352 143.693 79.3185 143.07 79.6852 142.57C80.1118 141.99 80.7218 141.7 81.5152 141.7C82.3418 141.7 82.9652 141.987 83.3852 142.56C83.7718 143.093 83.9552 143.813 83.9352 144.72H80.2752ZM82.7952 143.93C82.7885 143.783 82.7685 143.647 82.7352 143.52C82.6885 143.353 82.6285 143.207 82.5552 143.08C82.3418 142.74 82.0085 142.57 81.5552 142.57C81.0885 142.57 80.7418 142.767 80.5152 143.16C80.4352 143.3 80.3718 143.453 80.3252 143.62C80.3118 143.68 80.3018 143.743 80.2952 143.81L80.2852 143.88L80.2752 143.93H82.7952ZM86.0427 147H84.9327V141.82H85.9527V142.58H85.9727C86.0261 142.473 86.0827 142.377 86.1427 142.29C86.2161 142.183 86.2927 142.09 86.3727 142.01C86.5794 141.803 86.8161 141.7 87.0827 141.7C87.2827 141.7 87.4694 141.73 87.6427 141.79C87.7094 141.817 87.7794 141.847 87.8527 141.88L87.9327 141.93L88.0127 141.97L87.6527 142.96L87.5927 142.93L87.5327 142.89C87.4794 142.863 87.4294 142.84 87.3827 142.82C87.2494 142.773 87.1127 142.75 86.9727 142.75C86.5994 142.75 86.3394 142.987 86.1927 143.46C86.1327 143.647 86.0927 143.87 86.0727 144.13C86.0527 144.323 86.0427 144.55 86.0427 144.81V147ZM91.6546 143.3C91.6013 143.007 91.4446 142.797 91.1846 142.67C91.0913 142.623 90.9813 142.59 90.8546 142.57C90.7613 142.557 90.6646 142.55 90.5646 142.55C90.4646 142.55 90.3646 142.557 90.2646 142.57C90.1379 142.59 90.0279 142.617 89.9346 142.65C89.6813 142.743 89.5546 142.897 89.5546 143.11C89.5546 143.27 89.6446 143.397 89.8246 143.49C89.9846 143.583 90.3013 143.683 90.7746 143.79C91.5079 143.957 92.0146 144.13 92.2946 144.31C92.7013 144.557 92.9046 144.92 92.9046 145.4C92.9046 145.86 92.7346 146.247 92.3946 146.56C91.9946 146.933 91.4213 147.12 90.6746 147.12C89.9613 147.12 89.3979 146.94 88.9846 146.58C88.6446 146.3 88.4313 145.933 88.3446 145.48L89.4446 145.31C89.5046 145.683 89.6779 145.95 89.9646 146.11C90.0713 146.17 90.1946 146.213 90.3346 146.24C90.4413 146.26 90.5513 146.27 90.6646 146.27H90.7546C90.8079 146.263 90.8579 146.26 90.9046 146.26C91.0446 146.24 91.1679 146.21 91.2746 146.17C91.6013 146.057 91.7646 145.853 91.7646 145.56C91.7646 145.287 91.5279 145.097 91.0546 144.99C90.1213 144.777 89.4979 144.577 89.1846 144.39C88.7313 144.137 88.5046 143.757 88.5046 143.25C88.5046 142.763 88.7013 142.38 89.0946 142.1C89.4546 141.833 89.9079 141.7 90.4546 141.7C90.6746 141.7 90.8779 141.713 91.0646 141.74C91.3179 141.773 91.5479 141.833 91.7546 141.92C92.2879 142.153 92.6079 142.553 92.7146 143.12L91.6546 143.3ZM96.5608 143.21C96.7141 142.757 96.9208 142.42 97.1808 142.2C97.5674 141.867 98.1308 141.7 98.8708 141.7C99.6441 141.7 100.204 141.87 100.551 142.21C100.811 142.463 100.941 142.95 100.941 143.67L100.931 145.52C100.937 145.927 100.974 146.263 101.041 146.53C101.067 146.63 101.101 146.723 101.141 146.81L101.191 146.91L101.231 147H100.101C100.014 146.78 99.9541 146.577 99.9208 146.39C99.8874 146.423 99.8541 146.453 99.8208 146.48C99.7741 146.52 99.7274 146.56 99.6808 146.6C99.5674 146.693 99.4474 146.773 99.3208 146.84C98.9674 147.027 98.5874 147.12 98.1808 147.12C97.6341 147.12 97.2008 146.98 96.8808 146.7C96.5674 146.427 96.4108 146.063 96.4108 145.61C96.4108 145.043 96.6708 144.617 97.1908 144.33C97.3708 144.23 97.5874 144.15 97.8408 144.09C97.9274 144.063 98.0241 144.04 98.1308 144.02L98.2708 144L98.3808 143.98C98.6141 143.947 98.8508 143.907 99.0908 143.86C99.4108 143.793 99.6574 143.73 99.8308 143.67C99.8441 143.497 99.8408 143.337 99.8208 143.19C99.7874 142.95 99.6374 142.777 99.3708 142.67C99.2774 142.63 99.1741 142.603 99.0608 142.59C99.0141 142.583 98.9708 142.577 98.9308 142.57H98.8308C98.4174 142.57 98.1174 142.647 97.9308 142.8C97.7908 142.913 97.6808 143.113 97.6008 143.4L96.5608 143.21ZM99.8308 144.45C99.5708 144.55 99.1608 144.647 98.6008 144.74L98.4408 144.77L98.2708 144.81C98.1308 144.843 98.0174 144.883 97.9308 144.93C97.6774 145.063 97.5508 145.263 97.5508 145.53C97.5508 145.717 97.6141 145.88 97.7408 146.02C97.9074 146.207 98.1574 146.3 98.4908 146.3C99.0241 146.3 99.4141 146.093 99.6608 145.68C99.7741 145.487 99.8308 145.077 99.8308 144.45ZM102.258 141.82H103.278V142.56H103.298C103.672 141.987 104.225 141.7 104.958 141.7C105.278 141.7 105.575 141.763 105.848 141.89C106.142 142.03 106.348 142.213 106.468 142.44C106.635 142.753 106.718 143.263 106.718 143.97V147H105.608V143.84L105.588 143.59C105.575 143.397 105.542 143.233 105.488 143.1C105.348 142.76 105.062 142.59 104.628 142.59C104.402 142.59 104.188 142.647 103.988 142.76C103.795 142.867 103.658 143.003 103.578 143.17C103.438 143.45 103.368 143.857 103.368 144.39V147H102.258V141.82ZM112.538 147H111.498V146.29H111.478C111.258 146.643 110.962 146.887 110.588 147.02C110.462 147.06 110.332 147.09 110.198 147.11C110.145 147.117 110.095 147.12 110.048 147.12H109.958C109.305 147.12 108.772 146.857 108.358 146.33C107.965 145.823 107.768 145.187 107.768 144.42C107.768 143.553 107.978 142.877 108.398 142.39C108.792 141.93 109.305 141.7 109.938 141.7C110.558 141.7 111.048 141.937 111.408 142.41H111.428V139.84H112.538V147ZM110.198 142.57C109.652 142.57 109.275 142.837 109.068 143.37C109.002 143.55 108.955 143.757 108.928 143.99C108.922 144.07 108.915 144.15 108.908 144.23V144.39C108.908 145.077 109.068 145.577 109.388 145.89C109.515 146.003 109.658 146.09 109.818 146.15C109.938 146.19 110.065 146.21 110.198 146.21C110.325 146.21 110.448 146.19 110.568 146.15C110.728 146.097 110.868 146.013 110.988 145.9C111.308 145.6 111.468 145.117 111.468 144.45C111.468 143.857 111.352 143.393 111.118 143.06C110.892 142.733 110.585 142.57 110.198 142.57ZM119.942 147H118.692L116.022 139.84H117.302L119.142 145.09C119.236 145.35 119.299 145.557 119.332 145.71H119.352C119.372 145.61 119.406 145.487 119.452 145.34C119.472 145.293 119.489 145.243 119.502 145.19C119.522 145.15 119.536 145.117 119.542 145.09L121.392 139.84H122.632L119.942 147ZM123.498 144.72C123.511 145.173 123.638 145.54 123.878 145.82C124.118 146.107 124.444 146.25 124.858 146.25C125.198 146.25 125.471 146.14 125.678 145.92C125.751 145.833 125.818 145.733 125.878 145.62C125.918 145.54 125.954 145.447 125.988 145.34L127.108 145.51C126.788 146.583 126.028 147.12 124.828 147.12C123.928 147.12 123.264 146.807 122.838 146.18C122.518 145.713 122.358 145.133 122.358 144.44C122.358 143.693 122.541 143.07 122.908 142.57C123.334 141.99 123.944 141.7 124.738 141.7C125.564 141.7 126.188 141.987 126.608 142.56C126.994 143.093 127.178 143.813 127.158 144.72H123.498ZM126.018 143.93C126.011 143.783 125.991 143.647 125.958 143.52C125.911 143.353 125.851 143.207 125.778 143.08C125.564 142.74 125.231 142.57 124.778 142.57C124.311 142.57 123.964 142.767 123.738 143.16C123.658 143.3 123.594 143.453 123.548 143.62C123.534 143.68 123.524 143.743 123.518 143.81L123.508 143.88L123.498 143.93H126.018ZM128.215 141.82H129.235V142.56H129.255C129.629 141.987 130.182 141.7 130.915 141.7C131.235 141.7 131.532 141.763 131.805 141.89C132.099 142.03 132.305 142.213 132.425 142.44C132.592 142.753 132.675 143.263 132.675 143.97V147H131.565V143.84L131.545 143.59C131.532 143.397 131.499 143.233 131.445 143.1C131.305 142.76 131.019 142.59 130.585 142.59C130.359 142.59 130.145 142.647 129.945 142.76C129.752 142.867 129.615 143.003 129.535 143.17C129.395 143.45 129.325 143.857 129.325 144.39V147H128.215V141.82ZM138.495 147H137.455V146.29H137.435C137.215 146.643 136.919 146.887 136.545 147.02C136.419 147.06 136.289 147.09 136.155 147.11C136.102 147.117 136.052 147.12 136.005 147.12H135.915C135.262 147.12 134.729 146.857 134.315 146.33C133.922 145.823 133.725 145.187 133.725 144.42C133.725 143.553 133.935 142.877 134.355 142.39C134.749 141.93 135.262 141.7 135.895 141.7C136.515 141.7 137.005 141.937 137.365 142.41H137.385V139.84H138.495V147ZM136.155 142.57C135.609 142.57 135.232 142.837 135.025 143.37C134.959 143.55 134.912 143.757 134.885 143.99C134.879 144.07 134.872 144.15 134.865 144.23V144.39C134.865 145.077 135.025 145.577 135.345 145.89C135.472 146.003 135.615 146.09 135.775 146.15C135.895 146.19 136.022 146.21 136.155 146.21C136.282 146.21 136.405 146.19 136.525 146.15C136.685 146.097 136.825 146.013 136.945 145.9C137.265 145.6 137.425 145.117 137.425 144.45C137.425 143.857 137.309 143.393 137.075 143.06C136.849 142.733 136.542 142.57 136.155 142.57ZM139.556 144.47C139.556 143.563 139.816 142.86 140.336 142.36C140.796 141.92 141.386 141.7 142.106 141.7C142.866 141.7 143.479 141.95 143.946 142.45C144.412 142.943 144.646 143.593 144.646 144.4C144.646 145.22 144.406 145.88 143.926 146.38C143.452 146.873 142.842 147.12 142.096 147.12C141.402 147.12 140.826 146.913 140.366 146.5C139.826 146.02 139.556 145.343 139.556 144.47ZM140.696 144.41C140.696 145.037 140.856 145.51 141.176 145.83C141.429 146.083 141.739 146.21 142.106 146.21C142.252 146.21 142.396 146.187 142.536 146.14C142.709 146.08 142.862 145.99 142.996 145.87C143.336 145.55 143.506 145.053 143.506 144.38C143.506 143.807 143.362 143.36 143.076 143.04C142.822 142.753 142.499 142.61 142.106 142.61C141.732 142.61 141.419 142.737 141.166 142.99C140.852 143.31 140.696 143.783 140.696 144.41ZM146.756 147H145.646V141.82H146.666V142.58H146.686C146.739 142.473 146.796 142.377 146.856 142.29C146.929 142.183 147.006 142.09 147.086 142.01C147.292 141.803 147.529 141.7 147.796 141.7C147.996 141.7 148.182 141.73 148.356 141.79C148.422 141.817 148.492 141.847 148.566 141.88L148.646 141.93L148.726 141.97L148.366 142.96L148.306 142.93L148.246 142.89C148.192 142.863 148.142 142.84 148.096 142.82C147.962 142.773 147.826 142.75 147.686 142.75C147.312 142.75 147.052 142.987 146.906 143.46C146.846 143.647 146.806 143.87 146.786 144.13C146.766 144.323 146.756 144.55 146.756 144.81V147ZM152.368 143.3C152.314 143.007 152.158 142.797 151.898 142.67C151.804 142.623 151.694 142.59 151.568 142.57C151.474 142.557 151.378 142.55 151.278 142.55C151.178 142.55 151.078 142.557 150.978 142.57C150.851 142.59 150.741 142.617 150.648 142.65C150.394 142.743 150.268 142.897 150.268 143.11C150.268 143.27 150.358 143.397 150.538 143.49C150.698 143.583 151.014 143.683 151.488 143.79C152.221 143.957 152.728 144.13 153.008 144.31C153.414 144.557 153.618 144.92 153.618 145.4C153.618 145.86 153.448 146.247 153.108 146.56C152.708 146.933 152.134 147.12 151.388 147.12C150.674 147.12 150.111 146.94 149.698 146.58C149.358 146.3 149.144 145.933 149.058 145.48L150.157 145.31C150.218 145.683 150.391 145.95 150.678 146.11C150.784 146.17 150.908 146.213 151.048 146.24C151.154 146.26 151.264 146.27 151.378 146.27H151.468C151.521 146.263 151.571 146.26 151.618 146.26C151.758 146.24 151.881 146.21 151.988 146.17C152.314 146.057 152.478 145.853 152.478 145.56C152.478 145.287 152.241 145.097 151.768 144.99C150.834 144.777 150.211 144.577 149.898 144.39C149.444 144.137 149.218 143.757 149.218 143.25C149.218 142.763 149.414 142.38 149.808 142.1C150.168 141.833 150.621 141.7 151.168 141.7C151.388 141.7 151.591 141.713 151.778 141.74C152.031 141.773 152.261 141.833 152.468 141.92C153.001 142.153 153.321 142.553 153.428 143.12L152.368 143.3Z" fill="#044C5A"/>
<defs>
<clipPath id="clip0">
<rect width="70" height="70" fill="white" transform="translate(65 49)"/>
</clipPath>
</defs>
</svg>
