<svg width="8" height="11" viewBox="0 0 8 11" fill="none" xmlns="http://www.w3.org/2000/svg">
<path d="M5.36056 4.1582C5.23315 4.1582 5.12988 4.25501 5.12988 4.37446V8.46181C5.12988 8.58117 5.23315 8.67807 5.36056 8.67807C5.48798 8.67807 5.59124 8.58117 5.59124 8.46181V4.37446C5.59124 4.25501 5.48798 4.1582 5.36056 4.1582Z" fill="white"/>
<path d="M2.63888 4.1582C2.51147 4.1582 2.4082 4.25501 2.4082 4.37446V8.46181C2.4082 8.58117 2.51147 8.67807 2.63888 8.67807C2.7663 8.67807 2.86956 8.58117 2.86956 8.46181V4.37446C2.86956 4.25501 2.7663 4.1582 2.63888 4.1582Z" fill="white"/>
<path d="M0.655164 3.56166V8.88988C0.655164 9.20481 0.778343 9.50056 0.993522 9.71276C1.20771 9.92556 1.50579 10.0464 1.81775 10.0469H6.18225C6.4943 10.0464 6.79238 9.92556 7.00648 9.71276C7.22166 9.50056 7.34484 9.20481 7.34484 8.88988V3.56166C7.77258 3.45522 8.04976 3.06781 7.99254 2.65632C7.93523 2.24492 7.56137 1.93717 7.11875 1.93709H5.9377V1.66676C5.93905 1.43943 5.84317 1.22114 5.67152 1.06055C5.49986 0.900047 5.26666 0.81067 5.02418 0.812528H2.97582C2.73334 0.81067 2.50014 0.900047 2.32848 1.06055C2.15683 1.22114 2.06095 1.43943 2.0623 1.66676V1.93709H0.881247C0.438633 1.93717 0.0647717 2.24492 0.00746257 2.65632C-0.0497565 3.06781 0.227418 3.45522 0.655164 3.56166ZM6.18225 9.61435H1.81775C1.42334 9.61435 1.11652 9.29672 1.11652 8.88988V3.58067H6.88348V8.88988C6.88348 9.29672 6.57666 9.61435 6.18225 9.61435ZM2.52366 1.66676C2.52213 1.55415 2.56934 1.44577 2.65459 1.36627C2.73974 1.28678 2.85562 1.24311 2.97582 1.24505H5.02418C5.14438 1.24311 5.26026 1.28678 5.34541 1.36627C5.43066 1.44568 5.47787 1.55415 5.47634 1.66676V1.93709H2.52366V1.66676ZM0.881247 2.36961H7.11875C7.34808 2.36961 7.53397 2.54388 7.53397 2.75888C7.53397 2.97387 7.34808 3.14815 7.11875 3.14815H0.881247C0.65192 3.14815 0.466026 2.97387 0.466026 2.75888C0.466026 2.54388 0.65192 2.36961 0.881247 2.36961Z" fill="white"/>
<path d="M4.00021 4.1582C3.87279 4.1582 3.76953 4.25501 3.76953 4.37446V8.46181C3.76953 8.58117 3.87279 8.67807 4.00021 8.67807C4.12762 8.67807 4.23088 8.58117 4.23088 8.46181V4.37446C4.23088 4.25501 4.12762 4.1582 4.00021 4.1582Z" fill="white"/>
</svg>
