<svg width="35" height="39" viewBox="0 0 35 39" fill="none" xmlns="http://www.w3.org/2000/svg">
<path d="M4.90039 31.3393L8.40039 25.7678L11.2004 29.9464L16.8004 29.25L12.6004 35.5178L9.80039 32.0357L4.90039 31.3393Z" fill="#FF8C00" stroke="#FF8C00"/>
<path d="M30.0996 30.6428L25.8996 25.0714L23.7996 29.25L21.6996 29.9464L18.1996 29.25L22.3996 34.8214L25.1996 31.3393L30.0996 30.6428Z" fill="#FF8C00" stroke="#FF8C00"/>
<path d="M30.7187 18.0651C30.3669 17.292 30.0031 16.4926 30.0031 15.8697C30.0031 15.2469 30.3669 14.4474 30.7187 13.6742C31.2806 12.4395 31.8615 11.1628 31.359 9.95743C30.8365 8.70376 29.4253 8.18144 28.1803 7.72067C27.407 7.43443 26.6073 7.13845 26.1987 6.732C25.7901 6.32554 25.4925 5.53004 25.205 4.76054C24.7418 3.52179 24.2169 2.11774 22.9568 1.59791C21.7453 1.09808 20.4618 1.67594 19.2209 2.23495C18.4438 2.58493 17.6403 2.94693 17.0142 2.94693C16.3882 2.94693 15.5846 2.58493 14.8076 2.23495C13.5665 1.67594 12.2834 1.09797 11.0716 1.59791C9.81151 2.11774 9.28651 3.52169 8.82338 4.76044C8.53568 5.52972 8.23818 6.32533 7.82963 6.73189C7.42099 7.13835 6.62141 7.43433 5.84807 7.72057C4.60297 8.18144 3.19182 8.70365 2.66932 9.95733C2.16682 11.1629 2.74776 12.4396 3.30963 13.6742C3.6614 14.4473 4.02526 15.2468 4.02526 15.8696C4.02526 16.4925 3.6614 17.2919 3.30963 18.065C2.74776 19.2997 2.16682 20.5764 2.66932 21.7819C3.19182 23.0356 4.60307 23.5579 5.84807 24.0187C6.6213 24.3049 7.42099 24.6009 7.82963 25.0073C8.23828 25.4138 8.53578 26.2093 8.82338 26.9788C9.28661 28.2175 9.8114 29.6215 11.0716 30.1414C11.3971 30.2757 11.7277 30.3321 12.0614 30.3321C12.9697 30.3321 13.9001 29.9131 14.8077 29.5043C15.5847 29.1543 16.3883 28.7923 17.0143 28.7923C17.6404 28.7923 18.4439 29.1543 19.221 29.5043C20.462 30.0633 21.7453 30.6414 22.9569 30.1413C24.217 29.6215 24.742 28.2174 25.2052 26.9788C25.4929 26.2095 25.7904 25.4139 26.1989 25.0073C26.6074 24.6009 27.4071 24.3048 28.1805 24.0187C29.4256 23.5578 30.8367 23.0356 31.3593 21.7819C31.8615 20.5765 31.2806 19.2997 30.7187 18.0651ZM29.2756 18.7151C29.6981 19.6437 30.1352 20.6041 29.8957 21.1783C29.6374 21.798 28.6158 22.176 27.6278 22.5416C26.6954 22.8867 25.7313 23.2435 25.0785 23.8931C24.4256 24.5426 24.0669 25.5018 23.7202 26.4294C23.3527 27.4123 22.9726 28.4288 22.3498 28.6857C21.7727 28.9239 20.8076 28.4892 19.8741 28.0687C18.9438 27.6497 17.9819 27.2165 17.014 27.2165C16.0461 27.2165 15.0842 27.6498 14.1539 28.0687C13.2205 28.4891 12.2553 28.9238 11.6782 28.6857C11.0554 28.4286 10.6754 27.4123 10.3078 26.4293C9.96099 25.5017 9.60234 24.5425 8.94943 23.8931C8.29661 23.2435 7.33245 22.8868 6.40005 22.5416C5.41213 22.176 4.39047 21.7979 4.13224 21.1782C3.89286 20.6039 4.32984 19.6437 4.75234 18.7151C5.17349 17.7896 5.6089 16.8326 5.6089 15.8696C5.6089 14.9066 5.17338 13.9497 4.75234 13.0241C4.32984 12.0955 3.89276 11.1352 4.13224 10.561C4.39047 9.94137 5.41213 9.56331 6.40005 9.19768C7.33245 8.85268 8.29651 8.49576 8.94943 7.84628C9.60234 7.1969 9.96099 6.23755 10.3078 5.30991C10.6753 4.32704 11.0554 3.31058 11.6782 3.05367C11.7918 3.00683 11.9203 2.986 12.0608 2.986C12.634 2.986 13.4043 3.33297 14.154 3.67061C15.0843 4.08961 16.0462 4.5228 17.0141 4.5228C17.982 4.5228 18.9439 4.08951 19.8742 3.67061C20.8077 3.25027 21.7728 2.81531 22.3501 3.05367C22.9729 3.31058 23.3529 4.32704 23.7205 5.30991C24.0672 6.23755 24.426 7.1967 25.0788 7.84618C25.7317 8.49576 26.6958 8.85248 27.6282 9.19758C28.6161 9.56321 29.6378 9.94137 29.8961 10.561C30.1355 11.1354 29.6985 12.0955 29.276 13.0241C28.8548 13.9496 28.4194 14.9066 28.4194 15.8696C28.419 16.8326 28.8544 17.7897 29.2756 18.7151Z" fill="#044C5A"/>
<path d="M20.4478 17.9522L21.3207 21.6615C21.3353 21.7372 21.3274 21.8155 21.2981 21.8869C21.2688 21.9583 21.2193 22.0197 21.1556 22.0637C21.0919 22.1077 21.0167 22.1325 20.9391 22.1349C20.8615 22.1373 20.7848 22.1174 20.7184 22.0775L17.4976 20.0235C17.4346 19.9852 17.3621 19.9649 17.2881 19.9649C17.2142 19.9649 17.1417 19.9852 17.0787 20.0235L13.7706 21.9735C13.7036 22.0143 13.6259 22.0342 13.5474 22.0307C13.4689 22.0271 13.3932 22.0003 13.3303 21.9536C13.2673 21.907 13.2199 21.8426 13.1941 21.7689C13.1684 21.6952 13.1654 21.6155 13.1858 21.5402L14.1546 17.9002C14.1723 17.8289 14.1703 17.7543 14.1488 17.6841C14.1273 17.614 14.0871 17.5509 14.0324 17.5015L11.1433 15.0055C11.0852 14.9534 11.0436 14.8855 11.0238 14.8103C11.004 14.735 11.0068 14.6557 11.0318 14.582C11.0569 14.5083 11.1031 14.4435 11.1648 14.3955C11.2265 14.3476 11.3009 14.3186 11.379 14.3122L15.202 14.0955C15.2755 14.0892 15.3459 14.0633 15.4058 14.0206C15.4657 13.9779 15.5129 13.9199 15.5425 13.8528L17.0437 10.3862C17.0741 10.3133 17.1256 10.251 17.1916 10.2072C17.2577 10.1634 17.3353 10.14 17.4147 10.14C17.4941 10.14 17.5718 10.1634 17.6378 10.2072C17.7038 10.251 17.7553 10.3133 17.7857 10.3862L19.1735 13.9222C19.2033 13.9898 19.2504 14.0486 19.3101 14.0927C19.3698 14.1368 19.44 14.1646 19.5139 14.1735L23.2933 14.4335C23.3721 14.439 23.4474 14.4679 23.5094 14.5166C23.5714 14.5652 23.6171 14.6313 23.6407 14.7062C23.6643 14.7811 23.6646 14.8613 23.6415 14.9363C23.6185 15.0114 23.5731 15.0777 23.5115 15.1268L20.5438 17.5448C20.4896 17.596 20.4516 17.6619 20.4346 17.7342C20.4175 17.8066 20.4221 17.8824 20.4478 17.9522Z" fill="#FF8C00" stroke="#FF8C00" stroke-miterlimit="10"/>
</svg>
