<svg width="15" height="15" viewBox="0 0 15 15" fill="none" xmlns="http://www.w3.org/2000/svg">
<g clip-path="url(#clip0)">
<path d="M7.4999 0C7.33136 0 7.19653 0.134831 7.19653 0.303371V11.3381L4.93197 9.07355C4.81246 8.95404 4.62247 8.95404 4.50296 9.07355C4.38345 9.19306 4.38345 9.38304 4.50296 9.50255L7.2854 12.285C7.34362 12.3432 7.42329 12.3739 7.4999 12.3739C7.57651 12.3739 7.65618 12.3432 7.7144 12.285L10.4968 9.50255C10.6163 9.38304 10.6163 9.19306 10.4968 9.07355C10.3773 8.95404 10.1873 8.95404 10.0678 9.07355L7.80327 11.3381V0.303371C7.80327 0.134831 7.66844 0 7.4999 0Z" fill="#044C5A"/>
<path d="M1.1874 11.2429C1.01886 11.2429 0.884033 11.3778 0.884033 11.5463V14.6964C0.884033 14.865 1.01886 14.9998 1.1874 14.9998H13.8125C13.9811 14.9998 14.1159 14.865 14.1159 14.6964V11.5463C14.1159 11.3778 13.9811 11.2429 13.8125 11.2429C13.644 11.2429 13.5092 11.3778 13.5092 11.5463V14.3931H1.49077V11.5463C1.49077 11.3778 1.35594 11.2429 1.1874 11.2429Z" fill="#2C2F33"/>
</g>
<defs>
<clipPath id="clip0">
<rect width="15" height="15" fill="white"/>
</clipPath>
</defs>
</svg>
