<svg width="60" height="54" viewBox="0 0 60 54" fill="none" xmlns="http://www.w3.org/2000/svg">
    <path d="M27.5529 7.5C26.9077 7.5 26.3022 7.18879 25.9267 6.66421L21.8134 0.918571C21.8131 0.918191 21.8128 0.917834 21.8125 0.917504C21.8122 0.917169 21.8119 0.916806 21.8116 0.91642L21.7707 0.858972C21.6103 0.633739 21.3508 0.5 21.0743 0.5H2C0.895429 0.5 0 1.39543 0 2.5V51.5C0 52.6046 0.895431 53.5 2 53.5H58C59.1046 53.5 60 52.6046 60 51.5V9.5C60 8.39543 59.1046 7.5 58 7.5H27.5529ZM57 9.5C57.5523 9.5 58 9.94771 58 10.5V13.5C58 14.0523 57.5523 14.5 57 14.5H32.051C31.7284 14.5 31.4256 14.3444 31.2378 14.0821L29.0904 11.0821C28.6167 10.4203 29.0898 9.5 29.9036 9.5H57ZM3 51.5C2.44771 51.5 2 51.0523 2 50.5V3.5C2 2.94771 2.44772 2.5 3 2.5H19.9704C20.2933 2.5 20.5964 2.65597 20.7841 2.91876L25.4815 9.49512C25.4837 9.49818 25.4872 9.5 25.491 9.5C25.4948 9.5 25.4983 9.50181 25.5005 9.50488L30.187 16.051C30.3798 16.32 30.6822 16.4648 30.9897 16.4689C30.9954 16.469 31 16.4736 31 16.4793C31 16.4907 31.0093 16.5 31.0207 16.5H57C57.5523 16.5 58 16.9477 58 17.5V50.5C58 51.0523 57.5523 51.5 57 51.5H3Z" fill="#A1A1A1"/>
    <path d="M31 40.086V22.5H29V40.086L22.707 33.793L21.293 35.207L30 43.914L38.707 35.207L37.293 33.793L31 40.086Z" fill="#A1A1A1"/>
</svg>
