<svg width="15" height="17" viewBox="0 0 15 17" fill="none" xmlns="http://www.w3.org/2000/svg">
<g clip-path="url(#clip0)">
<path d="M2.1001 13.5001L3.6001 11.1001L4.8001 12.9001L7.2001 12.6001L5.4001 15.3001L4.2001 13.8001L2.1001 13.5001Z" fill="#FF8C00" stroke="#FF8C00"/>
<path d="M12.8999 13.2L11.0999 10.8L10.1999 12.6L9.2999 12.9L7.7999 12.6L9.5999 15L10.7999 13.5L12.8999 13.2Z" fill="#FF8C00" stroke="#FF8C00"/>
<path d="M13.1649 7.78196C13.0141 7.44893 12.8582 7.10455 12.8582 6.83625C12.8582 6.56795 13.0141 6.22357 13.1649 5.89049C13.4057 5.35862 13.6547 4.80866 13.4393 4.28942C13.2154 3.74938 12.6105 3.52438 12.077 3.32589C11.7456 3.20259 11.4029 3.07509 11.2277 2.9C11.0526 2.72491 10.9251 2.38223 10.8019 2.05076C10.6034 1.51714 10.3784 0.912322 9.83836 0.688394C9.31912 0.473081 8.76907 0.722009 8.23724 0.962813C7.90421 1.11357 7.55983 1.26951 7.29153 1.26951C7.02323 1.26951 6.67885 1.11357 6.34582 0.962813C5.81394 0.722009 5.26403 0.473037 4.7447 0.688394C4.20465 0.912322 3.97965 1.5171 3.78117 2.05071C3.65787 2.3821 3.53037 2.72482 3.35528 2.89996C3.18014 3.07504 2.83747 3.20255 2.50604 3.32585C1.97242 3.52438 1.36764 3.74933 1.14372 4.28938C0.928359 4.80871 1.17733 5.35866 1.41814 5.89049C1.56889 6.22353 1.72483 6.5679 1.72483 6.83621C1.72483 7.10451 1.56889 7.44888 1.41814 7.78192C1.17733 8.3138 0.928359 8.86375 1.14372 9.38304C1.36764 9.92308 1.97247 10.1481 2.50604 10.3466C2.83742 10.4699 3.18014 10.5974 3.35528 10.7725C3.53041 10.9475 3.65791 11.2902 3.78117 11.6217C3.9797 12.1553 4.20461 12.7601 4.7447 12.9841C4.88421 13.0419 5.02586 13.0662 5.16889 13.0662C5.55818 13.0662 5.95689 12.8857 6.34586 12.7096C6.6789 12.5588 7.02327 12.4029 7.29157 12.4029C7.55988 12.4029 7.90425 12.5588 8.23729 12.7096C8.76916 12.9504 9.31912 13.1994 9.8384 12.984C10.3784 12.7601 10.6034 12.1553 10.8019 11.6217C10.9252 11.2903 11.0527 10.9476 11.2278 10.7725C11.4029 10.5974 11.7456 10.4698 12.0771 10.3466C12.6107 10.148 13.2155 9.92308 13.4394 9.38304C13.6547 8.8638 13.4057 8.31379 13.1649 7.78196ZM12.5464 8.06196C12.7275 8.46196 12.9148 8.87567 12.8122 9.12304C12.7015 9.38996 12.2636 9.55281 11.8402 9.71031C11.4406 9.85893 11.0274 10.0126 10.7476 10.2925C10.4678 10.5723 10.3141 10.9854 10.1655 11.385C10.008 11.8084 9.8451 12.2463 9.57823 12.357C9.33086 12.4596 8.91724 12.2723 8.5172 12.0912C8.11849 11.9107 7.70626 11.7241 7.29144 11.7241C6.87662 11.7241 6.46439 11.9108 6.06568 12.0912C5.66564 12.2723 5.25197 12.4596 5.00465 12.357C4.73773 12.2463 4.57488 11.8084 4.41733 11.385C4.26872 10.9854 4.11501 10.5722 3.83519 10.2925C3.55541 10.0126 3.1422 9.85897 2.7426 9.71031C2.31921 9.55281 1.88135 9.38991 1.77068 9.12299C1.66809 8.87558 1.85537 8.46196 2.03644 8.06196C2.21693 7.66326 2.40354 7.25103 2.40354 6.83621C2.40354 6.42138 2.21689 6.00915 2.03644 5.61045C1.85537 5.21045 1.66805 4.79679 1.77068 4.54942C1.88135 4.2825 2.31921 4.11964 2.7426 3.96214C3.1422 3.81353 3.55537 3.65978 3.83519 3.38C4.11501 3.10027 4.26872 2.68701 4.41733 2.28741C4.57483 1.86402 4.73773 1.42616 5.00465 1.31549C5.05336 1.29531 5.1084 1.28634 5.16863 1.28634C5.4143 1.28634 5.74443 1.4358 6.06572 1.58125C6.46443 1.76174 6.87666 1.94835 7.29148 1.94835C7.70631 1.94835 8.11854 1.7617 8.51724 1.58125C8.91729 1.40018 9.3309 1.21281 9.57831 1.31549C9.84523 1.42616 10.0081 1.86402 10.1656 2.28741C10.3143 2.68701 10.468 3.10018 10.7478 3.37996C11.0276 3.65978 11.4408 3.81344 11.8404 3.9621C12.2638 4.1196 12.7016 4.2825 12.8123 4.54942C12.9149 4.79683 12.7276 5.21045 12.5466 5.61045C12.3661 6.00911 12.1795 6.42138 12.1795 6.83621C12.1793 7.25103 12.3659 7.6633 12.5464 8.06196Z" fill="#044C5A"/>
<path d="M7.75488 9H6.79443V5.38037C6.44352 5.7085 6.02995 5.95117 5.55371 6.1084V5.23682C5.80436 5.15479 6.07666 4.99984 6.37061 4.77197C6.66455 4.54183 6.86621 4.27409 6.97559 3.96875H7.75488V9Z" fill="#044C5A"/>
</g>
<defs>
<clipPath id="clip0">
<rect width="15" height="16.8" fill="white"/>
</clipPath>
</defs>
</svg>
