<svg width="13" height="17" viewBox="0 0 13 17" fill="none" xmlns="http://www.w3.org/2000/svg">
<path d="M8.62661 6.26367C8.42753 6.26367 8.26617 6.42502 8.26617 6.62411V13.4363C8.26617 13.6353 8.42753 13.7968 8.62661 13.7968C8.82569 13.7968 8.98705 13.6353 8.98705 13.4363V6.62411C8.98705 6.42502 8.82569 6.26367 8.62661 6.26367Z" fill="white"/>
<path d="M4.37344 6.26367C4.17435 6.26367 4.013 6.42502 4.013 6.62411V13.4363C4.013 13.6353 4.17435 13.7968 4.37344 13.7968C4.57252 13.7968 4.73387 13.6353 4.73387 13.4363V6.62411C4.73387 6.42502 4.57252 6.26367 4.37344 6.26367Z" fill="white"/>
<path d="M1.27369 5.26944V14.1498C1.27369 14.6747 1.46616 15.1676 1.80238 15.5213C2.13705 15.8759 2.6028 16.0773 3.09023 16.0781H9.90977C10.3973 16.0773 10.8631 15.8759 11.1976 15.5213C11.5338 15.1676 11.7263 14.6747 11.7263 14.1498V5.26944C12.3947 5.09203 12.8277 4.44635 12.7383 3.76054C12.6488 3.07487 12.0646 2.56195 11.3731 2.56181H9.52765V2.11127C9.52977 1.73239 9.37996 1.36857 9.11174 1.10092C8.84353 0.833411 8.47915 0.68445 8.10027 0.687547H4.89973C4.52085 0.68445 4.15647 0.833411 3.88826 1.10092C3.62004 1.36857 3.47024 1.73239 3.47235 2.11127V2.56181H1.62695C0.935364 2.56195 0.351206 3.07487 0.26166 3.76054C0.172256 4.44635 0.605341 5.09203 1.27369 5.26944ZM9.90977 15.3572H3.09023C2.47397 15.3572 1.99456 14.8279 1.99456 14.1498V5.30111H11.0054V14.1498C11.0054 14.8279 10.526 15.3572 9.90977 15.3572ZM4.19322 2.11127C4.19082 1.92359 4.2646 1.74295 4.39779 1.61046C4.53084 1.47797 4.71191 1.40518 4.89973 1.40842H8.10027C8.2881 1.40518 8.46916 1.47797 8.60221 1.61046C8.7354 1.74281 8.80918 1.92359 8.80678 2.11127V2.56181H4.19322V2.11127ZM1.62695 3.28268H11.3731C11.7314 3.28268 12.0218 3.57314 12.0218 3.93146C12.0218 4.28978 11.7314 4.58024 11.3731 4.58024H1.62695C1.26863 4.58024 0.978165 4.28978 0.978165 3.93146C0.978165 3.57314 1.26863 3.28268 1.62695 3.28268Z" fill="white"/>
<path d="M6.49983 6.26367C6.30075 6.26367 6.1394 6.42502 6.1394 6.62411V13.4363C6.1394 13.6353 6.30075 13.7968 6.49983 13.7968C6.69891 13.7968 6.86026 13.6353 6.86026 13.4363V6.62411C6.86026 6.42502 6.69891 6.26367 6.49983 6.26367Z" fill="white"/>
</svg>
