<svg width="15" height="18" viewBox="0 0 15 18" fill="none" xmlns="http://www.w3.org/2000/svg">
    <path d="M0 0V17H3V0H0Z" fill="#FF8C00"/>
    <path d="M10.4474 12.3955L4.16873 11.9097L10.3807 12.0389V11.0028V9.96671L4.16873 10.0959L10.4474 9.61011C10.4474 9.61011 13.5302 7.29924 14 4L6.10598 5.26073C6.10598 5.26073 4.88795 8.26795 3 10.079C3 10.854 3 11 3 11C3 11 3 11.146 3 11.921C4.88795 13.732 6.10598 16.7393 6.10598 16.7393L14 18C13.5302 14.7064 10.4474 12.3955 10.4474 12.3955Z" fill="#FF8C00"/>
    <path d="M14.1141 13.5457L13.8238 13.1409L13.8213 13.1379C13.7469 13.036 12.5136 11.4258 11 11V11.3808C11 11.3808 13.2333 12.0705 14.4243 14.8441L13.7792 14.7301C13.7792 14.7301 12.8238 12.7181 11 11.5187V11.8906C11 11.8906 13.33 13.5397 14.1588 16.4813L13.7767 16.4393L13.871 16.8591L14.6278 17C14.6278 17 14.1985 15.5277 13.9578 15.1469L15 15.3118C14.9975 15.3088 14.4218 13.8576 14.1141 13.5457Z" fill="white"/>
    <mask id="path-4-inside-1" fill="white">
        <path d="M14.1568 5.51574C13.3286 8.46027 11 10.1094 11 10.1094V10.4813C12.8227 9.28186 13.7774 7.26986 13.7774 7.26986L14.4222 7.15592C13.2319 9.92654 11 10.6192 11 10.6192V11C12.416 10.6012 13.584 9.16492 13.7923 8.89805L13.8245 8.85607L14.1147 8.44828C14.4222 8.13943 15 6.69115 15 6.69115L13.9585 6.85607C14.2015 6.47526 14.628 5 14.628 5L13.8717 5.14093L13.7774 5.56372L14.1568 5.51574Z"/>
    </mask>
    <path d="M14.1568 5.51574C13.3286 8.46027 11 10.1094 11 10.1094V10.4813C12.8227 9.28186 13.7774 7.26986 13.7774 7.26986L14.4222 7.15592C13.2319 9.92654 11 10.6192 11 10.6192V11C12.416 10.6012 13.584 9.16492 13.7923 8.89805L13.8245 8.85607L14.1147 8.44828C14.4222 8.13943 15 6.69115 15 6.69115L13.9585 6.85607C14.2015 6.47526 14.628 5 14.628 5L13.8717 5.14093L13.7774 5.56372L14.1568 5.51574Z" fill="white"/>
    <path d="M14.1568 5.51574L16.0821 6.05731L16.8991 3.15306L13.9059 3.53154L14.1568 5.51574ZM11 10.1094L9.84407 8.47732L9 9.07512V10.1094H11ZM11 10.4813H9V14.1915L12.0994 12.152L11 10.4813ZM13.7774 7.26986L13.4294 5.30038L12.413 5.47999L11.9705 6.41245L13.7774 7.26986ZM14.4222 7.15592L16.2598 7.9454L17.7221 4.54178L14.0741 5.18644L14.4222 7.15592ZM11 10.6192L10.4072 8.70907L9 9.14579V10.6192H11ZM11 11H9V13.6411L11.5422 12.9251L11 11ZM13.7923 8.89805L15.3689 10.1287L15.3737 10.1225L15.3785 10.1162L13.7923 8.89805ZM13.8245 8.85607L15.4107 10.0743L15.433 10.0453L15.4542 10.0155L13.8245 8.85607ZM14.1147 8.44828L12.6974 7.03715L12.5808 7.15421L12.4851 7.28881L14.1147 8.44828ZM15 6.69115L16.8576 7.43227L18.1608 4.16575L14.6872 4.71576L15 6.69115ZM13.9585 6.85607L12.2725 5.78014L9.88166 9.52651L14.2712 8.83146L13.9585 6.85607ZM14.628 5L16.5493 5.5555L17.4502 2.43974L14.2617 3.03384L14.628 5ZM13.8717 5.14093L13.5053 3.17477L12.2069 3.4167L11.9196 4.70583L13.8717 5.14093ZM13.7774 5.56372L11.8253 5.12862L11.2066 7.90473L14.0283 7.54792L13.7774 5.56372ZM12.2316 4.97418C11.922 6.07465 11.3207 6.96469 10.7654 7.59666C10.4915 7.90836 10.2409 8.14341 10.0662 8.29504C9.97923 8.37045 9.91248 8.424 9.87282 8.45489C9.85303 8.4703 9.84014 8.47995 9.83502 8.48374C9.83246 8.48564 9.83186 8.48606 9.83333 8.485C9.83406 8.48447 9.83532 8.48356 9.8371 8.48228C9.838 8.48164 9.83902 8.48091 9.84018 8.48008C9.84076 8.47967 9.84138 8.47923 9.84203 8.47877C9.84235 8.47854 9.84286 8.47818 9.84302 8.47806C9.84354 8.47769 9.84407 8.47732 11 10.1094C12.1559 11.7416 12.1565 11.7412 12.157 11.7408C12.1572 11.7406 12.1578 11.7402 12.1582 11.74C12.159 11.7394 12.1598 11.7388 12.1607 11.7382C12.1624 11.737 12.1643 11.7356 12.1663 11.7342C12.1703 11.7313 12.1749 11.728 12.1801 11.7243C12.1904 11.7168 12.203 11.7076 12.2177 11.6967C12.2471 11.6749 12.285 11.6462 12.3305 11.6108C12.4214 11.54 12.5431 11.4417 12.6874 11.3165C12.9751 11.0669 13.3584 10.7056 13.7702 10.2369C14.5863 9.30817 15.5634 7.90136 16.0821 6.05731L12.2316 4.97418ZM9 10.1094V10.4813H13V10.1094H9ZM12.0994 12.152C13.2893 11.369 14.1511 10.356 14.6995 9.58851C14.9794 9.19683 15.1922 8.84837 15.3381 8.59204C15.4113 8.46339 15.4684 8.35657 15.5093 8.27746C15.5298 8.23786 15.5463 8.20508 15.5588 8.17984C15.565 8.16722 15.5703 8.15647 15.5745 8.14768C15.5767 8.14328 15.5785 8.13938 15.5802 8.13598C15.581 8.13427 15.5817 8.1327 15.5824 8.13125C15.5828 8.13052 15.5831 8.12983 15.5834 8.12917C15.5836 8.12884 15.5838 8.12836 15.5839 8.1282C15.5841 8.12773 15.5843 8.12728 13.7774 7.26986C11.9705 6.41245 11.9707 6.41201 11.971 6.41158C11.971 6.41144 11.9712 6.41102 11.9714 6.41075C11.9716 6.41021 11.9718 6.4097 11.9721 6.40922C11.9725 6.40826 11.9729 6.40741 11.9733 6.40668C11.974 6.40522 11.9745 6.40422 11.9747 6.40367C11.9753 6.40257 11.9749 6.40326 11.9738 6.40567C11.9714 6.41048 11.9656 6.4221 11.9564 6.43986C11.938 6.47546 11.9062 6.5352 11.8615 6.61391C11.7713 6.77232 11.6316 7.00181 11.4449 7.26307C11.0603 7.80141 10.5334 8.39411 9.9006 8.81053L12.0994 12.152ZM14.1255 9.23935L14.7702 9.12541L14.0741 5.18644L13.4294 5.30038L14.1255 9.23935ZM12.5846 6.36645C12.1516 7.37426 11.5475 7.9716 11.0802 8.31504C10.8431 8.48934 10.639 8.59947 10.5092 8.66113C10.4447 8.69178 10.4 8.70975 10.3807 8.71718C10.3711 8.72087 10.368 8.72186 10.3721 8.72043C10.3742 8.71972 10.3781 8.71839 10.3839 8.71648C10.3868 8.71553 10.3902 8.71443 10.3941 8.7132C10.396 8.71258 10.3981 8.71192 10.4003 8.71123C10.4013 8.71089 10.4025 8.71054 10.4036 8.71018C10.4042 8.71 10.4051 8.70972 10.4054 8.70963C10.4063 8.70935 10.4072 8.70907 11 10.6192C11.5928 12.5293 11.5937 12.529 11.5947 12.5287C11.595 12.5286 11.5959 12.5283 11.5966 12.5281C11.5979 12.5277 11.5992 12.5273 11.6006 12.5269C11.6033 12.526 11.6062 12.5251 11.6092 12.5242C11.6152 12.5222 11.6218 12.5201 11.629 12.5178C11.6433 12.5131 11.6599 12.5075 11.6786 12.501C11.716 12.4881 11.762 12.4715 11.8158 12.4509C11.9232 12.4096 12.0622 12.3518 12.2255 12.2742C12.5513 12.1194 12.9796 11.8832 13.4492 11.538C14.3955 10.8425 15.5024 9.7082 16.2598 7.9454L12.5846 6.36645ZM9 10.6192V11H13V10.6192H9ZM11.5422 12.9251C12.6742 12.6063 13.5893 11.9201 14.1815 11.391C14.7984 10.8399 15.2245 10.3136 15.3689 10.1287L12.2157 7.66743C12.1518 7.7494 11.8898 8.07463 11.5165 8.40809C11.1187 8.76357 10.7418 8.99491 10.4578 9.07489L11.5422 12.9251ZM15.3785 10.1162L15.4107 10.0743L12.2383 7.63789L12.2061 7.67987L15.3785 10.1162ZM15.4542 10.0155L15.7443 9.60774L12.4851 7.28881L12.1949 7.69661L15.4542 10.0155ZM15.532 9.8594C15.835 9.55508 16.0473 9.16894 16.1399 8.99858C16.2688 8.76151 16.3916 8.50461 16.4921 8.28438C16.5947 8.05962 16.6851 7.8489 16.7492 7.69586C16.7816 7.61875 16.8079 7.55485 16.8264 7.50939C16.8357 7.48662 16.8431 7.4684 16.8484 7.45535C16.851 7.44882 16.8531 7.44358 16.8546 7.43971C16.8554 7.43778 16.8561 7.43618 16.8566 7.43494C16.8568 7.43432 16.857 7.43378 16.8572 7.43334C16.8573 7.43312 16.8574 7.43292 16.8574 7.43274C16.8575 7.43265 16.8575 7.43253 16.8575 7.43249C16.8576 7.43238 16.8576 7.43227 15 6.69115C13.1424 5.95004 13.1424 5.94994 13.1425 5.94985C13.1425 5.94983 13.1425 5.94975 13.1425 5.9497C13.1426 5.94961 13.1426 5.94954 13.1426 5.9495C13.1426 5.9494 13.1426 5.9494 13.1426 5.94947C13.1425 5.94962 13.1424 5.95011 13.142 5.95093C13.1414 5.95255 13.1402 5.95549 13.1385 5.95964C13.1352 5.96796 13.1298 5.98115 13.1227 5.99859C13.1085 6.03353 13.0872 6.0852 13.0606 6.14868C13.0068 6.27685 12.9335 6.4475 12.8532 6.62342C12.7709 6.80386 12.6915 6.96693 12.6256 7.08828C12.5926 7.14901 12.573 7.18054 12.5672 7.18945C12.5508 7.21454 12.5948 7.1402 12.6974 7.03715L15.532 9.8594ZM14.6872 4.71576L13.6457 4.88068L14.2712 8.83146L15.3128 8.66654L14.6872 4.71576ZM15.6444 7.932C15.8241 7.65039 15.9576 7.31671 16.0311 7.12652C16.1225 6.89002 16.2105 6.63423 16.2842 6.41032C16.3589 6.18315 16.4246 5.97134 16.4714 5.81734C16.4949 5.7399 16.5139 5.67601 16.5273 5.63081C16.5339 5.60819 16.5392 5.59018 16.5429 5.57743C16.5448 5.57106 16.5463 5.56599 16.5474 5.56231C16.5479 5.56047 16.5483 5.55897 16.5487 5.55784C16.5488 5.55727 16.549 5.55679 16.5491 5.5564C16.5491 5.5562 16.5492 5.55603 16.5492 5.55588C16.5492 5.55581 16.5493 5.55571 16.5493 5.55567C16.5493 5.55558 16.5493 5.5555 14.628 5C12.7067 4.4445 12.7067 4.44443 12.7068 4.44436C12.7068 4.44435 12.7068 4.44428 12.7068 4.44425C12.7068 4.44419 12.7068 4.44416 12.7068 4.44414C12.7068 4.44411 12.7068 4.44416 12.7068 4.44431C12.7067 4.44459 12.7065 4.44522 12.7062 4.44618C12.7057 4.4481 12.7047 4.45137 12.7034 4.45589C12.7008 4.46493 12.6966 4.479 12.6912 4.49746C12.6803 4.53443 12.6641 4.58877 12.6438 4.65558C12.603 4.79009 12.5468 4.97089 12.4846 5.16014C12.4212 5.35265 12.357 5.53708 12.3001 5.6843C12.2253 5.87782 12.2143 5.87135 12.2725 5.78014L15.6444 7.932ZM14.2617 3.03384L13.5053 3.17477L14.238 7.10709L14.9944 6.96616L14.2617 3.03384ZM11.9196 4.70583L11.8253 5.12862L15.7295 5.99882L15.8238 5.57603L11.9196 4.70583ZM14.0283 7.54792L14.4077 7.49994L13.9059 3.53154L13.5265 3.57952L14.0283 7.54792Z" fill="white" mask="url(#path-4-inside-1)"/>
</svg>