<svg width="15" height="16" viewBox="0 0 15 16" fill="none" xmlns="http://www.w3.org/2000/svg">
<path fill-rule="evenodd" clip-rule="evenodd" d="M5.82598 11.652C2.6084 11.652 0 9.04377 0 5.82598C0 2.6082 2.6084 0 5.82598 0C9.04356 0 11.652 2.6082 11.652 5.82598C11.652 7.24103 11.1474 8.53822 10.3086 9.54769L14.7562 13.9952C15.0813 14.3203 15.0813 14.8474 14.7562 15.1725C14.4312 15.4972 13.9042 15.4972 13.5792 15.1725L9.07171 10.6649C8.14413 11.2883 7.02757 11.652 5.82598 11.652ZM5.82598 9.9874C8.12431 9.9874 9.9874 8.12411 9.9874 5.82598C9.9874 3.52786 8.12431 1.66457 5.82598 1.66457C3.52765 1.66457 1.66457 3.52786 1.66457 5.82598C1.66457 8.12411 3.52765 9.9874 5.82598 9.9874Z" fill="#A1A1A1"/>
</svg>
