<svg width="60" height="60" viewBox="0 0 60 60" fill="none" xmlns="http://www.w3.org/2000/svg">
<path d="M30 60C46.5685 60 60 46.5685 60 30C60 13.4315 46.5685 0 30 0C13.4315 0 0 13.4315 0 30C0 46.5685 13.4315 60 30 60Z" fill="#D2E5ED"/>
<path d="M30.2889 31.0919C30.3313 31.0919 30.3738 31.0919 30.4247 31.0919C30.4417 31.0919 30.4587 31.0919 30.4756 31.0919C30.5011 31.0919 30.5351 31.0919 30.5605 31.0919C33.0482 31.0495 35.0604 30.175 36.5463 28.5024C39.815 24.8176 39.2717 18.5007 39.2122 17.8979C39 13.3725 36.8604 11.2075 35.0944 10.1971C33.7784 9.4415 32.2416 9.03396 30.5266 9H30.4672C30.4587 9 30.4417 9 30.4332 9H30.3822C29.4398 9 27.5889 9.15283 25.8144 10.1632C24.0314 11.1735 21.8579 13.3386 21.6457 17.8979C21.5862 18.5007 21.0428 24.8176 24.3116 28.5024C25.789 30.175 27.8012 31.0495 30.2889 31.0919ZM23.9126 18.1102C23.9126 18.0847 23.9211 18.0592 23.9211 18.0422C24.2013 11.9546 28.5229 11.3009 30.3738 11.3009H30.4077C30.4247 11.3009 30.4502 11.3009 30.4756 11.3009C32.768 11.3518 36.6651 12.2858 36.9283 18.0422C36.9283 18.0677 36.9283 18.0932 36.9368 18.1102C36.9453 18.1696 37.5396 23.9431 34.8397 26.9826C33.7699 28.1882 32.3435 28.7826 30.4672 28.7995C30.4502 28.7995 30.4417 28.7995 30.4247 28.7995C30.4077 28.7995 30.3992 28.7995 30.3822 28.7995C28.5144 28.7826 27.0795 28.1882 26.0182 26.9826C23.3267 23.96 23.9041 18.1611 23.9126 18.1102Z" fill="white"/>
<path d="M47.8723 41.569C47.8723 41.5605 47.8723 41.552 47.8723 41.5435C47.8723 41.4756 47.8638 41.4077 47.8638 41.3313C47.8128 39.6502 47.7025 35.7192 44.0176 34.4626C43.9922 34.4541 43.9582 34.4456 43.9327 34.4371C40.1036 33.4607 36.9197 31.2532 36.8857 31.2277C36.3678 30.8627 35.6546 30.99 35.2895 31.5079C34.9244 32.0258 35.0518 32.739 35.5697 33.1041C35.7141 33.206 39.0932 35.5578 43.3214 36.6446C45.2997 37.3493 45.5204 39.4634 45.5799 41.3992C45.5799 41.4756 45.5799 41.5435 45.5884 41.6115C45.5968 42.3756 45.5459 43.5558 45.4101 44.235C44.0346 45.0161 38.6432 47.716 30.4415 47.716C22.2738 47.716 16.8484 45.0076 15.4645 44.2265C15.3287 43.5473 15.2692 42.3671 15.2862 41.603C15.2862 41.5351 15.2947 41.4671 15.2947 41.3907C15.3541 39.4549 15.5749 37.3408 17.5531 36.6361C21.7814 35.5493 25.1605 33.189 25.3049 33.0956C25.8228 32.7305 25.9501 32.0173 25.585 31.4994C25.22 30.9815 24.5068 30.8542 23.9888 31.2193C23.9549 31.2447 20.788 33.4522 16.9418 34.4286C16.9079 34.4371 16.8824 34.4456 16.8569 34.4541C13.1721 35.7191 13.0617 39.6502 13.0108 41.3228C13.0108 41.3992 13.0108 41.4671 13.0023 41.5351C13.0023 41.5435 13.0023 41.552 13.0023 41.5605C12.9938 42.002 12.9853 44.269 13.4353 45.4067C13.5202 45.6274 13.6731 45.8142 13.8768 45.9416C14.1315 46.1114 20.2361 50 30.45 50C40.6639 50 46.7685 46.1029 47.0232 45.9416C47.2185 45.8142 47.3798 45.6274 47.4647 45.4067C47.8892 44.2774 47.8807 42.0105 47.8723 41.569Z" fill="white"/>
</svg>
