<svg width="30" height="30" viewBox="0 0 30 30" fill="none" xmlns="http://www.w3.org/2000/svg">
<path d="M21.3048 18.4271C21.0361 18.1864 20.6233 18.2099 20.384 18.478C19.0235 19.9982 17.0618 20.8695 15.0003 20.8695C12.9394 20.8695 10.977 19.9982 9.61657 18.478C9.37591 18.2099 8.96439 18.1864 8.69569 18.4271C8.427 18.6671 8.40482 19.0793 8.64482 19.348C10.2524 21.144 12.569 22.1738 15.0003 22.1738C17.4322 22.1738 19.7488 21.1434 21.3557 19.348C21.5957 19.0793 21.5729 18.6671 21.3048 18.4271Z" fill="#c4c4c4"/>
<path d="M15 0C6.72913 0 0 6.72913 0 15C0 23.2709 6.72913 30 15 30C23.2709 30 30 23.2709 30 15C30 6.72913 23.2709 0 15 0ZM15 28.6957C7.44783 28.6957 1.30435 22.5522 1.30435 15C1.30435 7.44783 7.44783 1.30435 15 1.30435C22.5522 1.30435 28.6957 7.44783 28.6957 15C28.6957 22.5522 22.5522 28.6957 15 28.6957Z" fill="#c4c4c4"/>
<path d="M9.7826 10.4348C7.98455 10.4348 6.52173 11.8976 6.52173 13.6957C6.52173 14.0557 6.8139 14.3479 7.1739 14.3479C7.5339 14.3479 7.82608 14.0557 7.82608 13.6957C7.82608 12.617 8.7039 11.7392 9.7826 11.7392C10.8613 11.7392 11.7391 12.617 11.7391 13.6957C11.7391 14.0557 12.0313 14.3479 12.3913 14.3479C12.7513 14.3479 13.0435 14.0557 13.0435 13.6957C13.0435 11.8976 11.5806 10.4348 9.7826 10.4348Z" fill="#c4c4c4"/>
<path d="M22.1739 13.6957C22.1739 14.0557 22.4661 14.3479 22.8261 14.3479C23.1861 14.3479 23.4783 14.0557 23.4783 13.6957C23.4783 11.8976 22.0155 10.4348 20.2174 10.4348C18.4194 10.4348 16.9565 11.8976 16.9565 13.6957C16.9565 14.0557 17.2487 14.3479 17.6087 14.3479C17.9687 14.3479 18.2609 14.0557 18.2609 13.6957C18.2609 12.617 19.1387 11.7392 20.2174 11.7392C21.2961 11.7392 22.1739 12.617 22.1739 13.6957Z" fill="#c4c4c4"/>
</svg>
