<svg width="40" height="40" viewBox="0 0 40 40" fill="none" xmlns="http://www.w3.org/2000/svg">
<path d="M29.4617 12H15.6155V13.5385H29.4617V12Z" fill="#044C5A"/>
<path d="M29.4617 16.6155H15.6155V18.1539H29.4617V16.6155Z" fill="#044C5A"/>
<path d="M29.4617 21.231H15.6155V22.7694H29.4617V21.231Z" fill="#044C5A"/>
<path d="M29.4617 25.8462H15.6155V27.3847H29.4617V25.8462Z" fill="#044C5A"/>
<path d="M11.7692 13.5385C12.1941 13.5385 12.5385 13.1941 12.5385 12.7692C12.5385 12.3444 12.1941 12 11.7692 12C11.3444 12 11 12.3444 11 12.7692C11 13.1941 11.3444 13.5385 11.7692 13.5385Z" fill="#044C5A"/>
<path d="M11.7692 18.1539C12.1941 18.1539 12.5385 17.8095 12.5385 17.3847C12.5385 16.9599 12.1941 16.6155 11.7692 16.6155C11.3444 16.6155 11 16.9599 11 17.3847C11 17.8095 11.3444 18.1539 11.7692 18.1539Z" fill="#044C5A"/>
<path d="M11.7692 22.7694C12.1941 22.7694 12.5385 22.425 12.5385 22.0002C12.5385 21.5754 12.1941 21.231 11.7692 21.231C11.3444 21.231 11 21.5754 11 22.0002C11 22.425 11.3444 22.7694 11.7692 22.7694Z" fill="#044C5A"/>
<path d="M11.7692 27.3847C12.1941 27.3847 12.5385 27.0403 12.5385 26.6154C12.5385 26.1906 12.1941 25.8462 11.7692 25.8462C11.3444 25.8462 11 26.1906 11 26.6154C11 27.0403 11.3444 27.3847 11.7692 27.3847Z" fill="#044C5A"/>
<rect x="7.5" y="6.5" width="25" height="27" rx="1.5" stroke="#044C5A"/>
</svg>
