<svg width="25" height="28" viewBox="0 0 25 28" fill="none" xmlns="http://www.w3.org/2000/svg">
<path d="M3.5 22.5L6 18.5L8 21.5L12 21L9 25.5L7 23L3.5 22.5Z" fill="#FF8C00" stroke="#FF8C00"/>
<path d="M21.5 22L18.5 18L17 21L15.5 21.5L13 21L16 25L18 22.5L21.5 22Z" fill="#FF8C00" stroke="#FF8C00"/>
<path d="M21.9418 12.9697C21.6905 12.4147 21.4306 11.8407 21.4306 11.3935C21.4306 10.9464 21.6905 10.3724 21.9418 9.81728C22.3431 8.93082 22.7581 8.01423 22.3992 7.14883C22.0259 6.24876 21.0179 5.87376 20.1286 5.54295C19.5763 5.33745 19.0051 5.12495 18.7132 4.83313C18.4213 4.54132 18.2088 3.97018 18.0035 3.41773C17.6726 2.52837 17.2977 1.52033 16.3976 1.14712C15.5322 0.788265 14.6154 1.20315 13.7291 1.60448C13.174 1.85575 12.6 2.11565 12.1529 2.11565C11.7057 2.11565 11.1317 1.85575 10.5767 1.60448C9.69022 1.20315 8.77371 0.788191 7.90815 1.14712C7.00808 1.52033 6.63308 2.52829 6.30228 3.41765C6.09677 3.96996 5.88427 4.54117 5.59246 4.83306C5.30057 5.12487 4.72944 5.33737 4.17705 5.54288C3.28769 5.87376 2.27973 6.24868 1.90652 7.14876C1.54759 8.01431 1.96255 8.9309 2.36388 9.81728C2.61515 10.3723 2.87505 10.9463 2.87505 11.3935C2.87505 11.8406 2.61515 12.4146 2.36388 12.9697C1.96255 13.8561 1.54759 14.7727 1.90652 15.6382C2.27973 16.5383 3.28777 16.9133 4.17705 17.2441C4.72936 17.4496 5.30057 17.6621 5.59246 17.9539C5.88435 18.2457 6.09685 18.8168 6.30228 19.3693C6.63315 20.2587 7.00801 21.2666 7.90815 21.6399C8.14067 21.7363 8.37676 21.7768 8.61515 21.7768C9.26396 21.7768 9.92847 21.476 10.5768 21.1825C11.1318 20.9312 11.7058 20.6713 12.1529 20.6713C12.6001 20.6713 13.1741 20.9312 13.7291 21.1825C14.6156 21.5838 15.5322 21.9988 16.3977 21.6398C17.2977 21.2666 17.6727 20.2586 18.0035 19.3693C18.209 18.817 18.4215 18.2458 18.7134 17.9539C19.0052 17.6621 19.5764 17.4495 20.1288 17.2441C21.0181 16.9132 22.0261 16.5383 22.3994 15.6382C22.7581 14.7728 22.3431 13.8561 21.9418 12.9697ZM20.911 13.4364C21.2128 14.1031 21.525 14.7926 21.3539 15.2049C21.1695 15.6497 20.4397 15.9212 19.734 16.1837C19.068 16.4313 18.3794 16.6875 17.9131 17.1539C17.4467 17.6203 17.1905 18.3089 16.9428 18.9749C16.6803 19.6805 16.4088 20.4103 15.964 20.5947C15.5518 20.7658 14.8624 20.4537 14.1957 20.1518C13.5311 19.851 12.8441 19.54 12.1527 19.54C11.4614 19.54 10.7743 19.8511 10.1098 20.1518C9.44305 20.4536 8.75362 20.7657 8.34141 20.5947C7.89655 20.4102 7.62512 19.6805 7.36255 18.9748C7.11485 18.3088 6.85868 17.6202 6.39231 17.1539C5.92601 16.6875 5.23732 16.4314 4.57133 16.1837C3.86567 15.9212 3.13591 15.6496 2.95146 15.2048C2.78048 14.7924 3.0926 14.1031 3.39439 13.4364C3.69521 12.7719 4.00622 12.0848 4.00622 11.3935C4.00622 10.7021 3.69513 10.015 3.39439 9.35054C3.0926 8.68387 2.7804 7.99444 2.95146 7.58216C3.13591 7.1373 3.86567 6.86587 4.57133 6.60337C5.23732 6.35568 5.92594 6.09943 6.39231 5.63313C6.85868 5.16691 7.11485 4.47815 7.36255 3.81215C7.62505 3.10649 7.89655 2.37673 8.34141 2.19228C8.42259 2.15865 8.51433 2.1437 8.6147 2.1437C9.02415 2.1437 9.57438 2.3928 10.1099 2.63521C10.7744 2.93603 11.4614 3.24704 12.1528 3.24704C12.8442 3.24704 13.5312 2.93596 14.1957 2.63521C14.8625 2.33343 15.5518 2.02115 15.9642 2.19228C16.409 2.37673 16.6805 3.10649 16.9431 3.81215C17.1907 4.47815 17.447 5.16676 17.9133 5.63306C18.3797 6.09943 19.0683 6.35553 19.7343 6.60329C20.4399 6.86579 21.1697 7.1373 21.3542 7.58216C21.5252 7.99451 21.2131 8.68387 20.9113 9.35054C20.6105 10.015 20.2994 10.7021 20.2994 11.3935C20.2992 12.0848 20.6102 12.772 20.911 13.4364Z" fill="#044C5A"/>
</svg>
