<svg width="93" height="93" viewBox="0 0 93 93" fill="none" xmlns="http://www.w3.org/2000/svg">
<path d="M62.1488 11.8522C52.4435 8.10473 55.0107 9.95586 47.6018 13.2305C45.4792 14.1687 43.1208 14.5961 40.8284 14.2326C35.0548 13.3168 35.3544 10.754 29.9376 15.6548C30.0512 6.16291 36.6316 0.0798167 46.1687 0.196809C55.3511 2.60132 58.2017 4.92817 62.1488 11.8522Z" fill="#044C5A"/>
<path d="M62.3222 17.3733C62.3222 26.3091 55.0425 33.5611 46.0525 33.5611C37.0624 33.5611 29.7827 26.3091 29.7827 17.3733C29.7827 8.43753 37.0624 1.18555 46.0525 1.18555C55.0425 1.18555 62.3222 8.43753 62.3222 17.3733Z" stroke="#044C5A" stroke-width="2"/>
<path d="M16.1187 46.5615C16.1187 39.9341 21.4912 34.5615 28.1187 34.5615H33.8648C34.3092 34.5615 34.748 34.6602 35.1496 34.8506L42.3459 38.2611C45.0565 39.5457 48.2006 39.5457 50.9112 38.2611L58.1075 34.8506C58.509 34.6602 58.9479 34.5615 59.3923 34.5615H65.1384C71.7658 34.5615 77.1384 39.9341 77.1384 46.5615V48.3117H16.1187V46.5615Z" fill="#044C5A"/>
<rect x="11.5132" y="50.603" width="69.079" height="42.3965" rx="5" fill="#FF8C00"/>
<rect y="90.7085" width="92.1053" height="2.2917" rx="1.14585" fill="#FF8C00"/>
<ellipse cx="47.2041" cy="66.6449" rx="1.15132" ry="1.14585" fill="white"/>
<path d="M53.6984 60.577C53.9547 60.4279 54.0425 60.0977 53.8755 59.8527C53.1935 58.8513 52.2912 58.0145 51.2345 57.4072C50.0219 56.7104 48.6477 56.34 47.2474 56.3326C45.8471 56.3253 44.469 56.6811 43.249 57.3652C42.1859 57.9613 41.2748 58.7886 40.5821 59.7827C40.4126 60.026 40.4969 60.357 40.7516 60.5088C41.0048 60.6597 41.3307 60.576 41.5015 60.3358C42.0971 59.4983 42.873 58.8005 43.7751 58.2947C44.8329 57.7016 46.0276 57.393 47.2417 57.3994C48.4557 57.4058 49.6472 57.7269 50.6986 58.3311C51.5952 58.8464 52.3636 59.5523 52.9503 60.396C53.1186 60.6381 53.4436 60.7252 53.6984 60.577Z" fill="white"/>
<path d="M50.996 63.6648C51.1892 63.5714 51.271 63.3377 51.1608 63.1536C50.7855 62.5266 50.264 61.9961 49.6383 61.6084C48.9017 61.1521 48.0507 60.9121 47.1831 60.9161C46.3155 60.9201 45.4667 61.1679 44.7345 61.631C44.1124 62.0244 43.5959 62.5597 43.2264 63.1901C43.1179 63.3752 43.2018 63.6081 43.3958 63.6998C43.5888 63.791 43.8176 63.7076 43.9285 63.5253C44.2333 63.0244 44.6509 62.5985 45.1505 62.2825C45.7594 61.8975 46.4652 61.6914 47.1867 61.6881C47.9081 61.6847 48.6158 61.8843 49.2283 62.2638C49.7308 62.5751 50.1524 62.9971 50.4618 63.4953C50.5744 63.6766 50.8039 63.7578 50.996 63.6648Z" fill="white"/>
<path d="M37.9941 71.229H56.4152V85.2709C56.4152 86.3755 55.5198 87.2709 54.4152 87.2709H39.9941C38.8896 87.2709 37.9941 86.3755 37.9941 85.2709V71.229Z" fill="white"/>
<path d="M41.9336 74.0205L41.9336 82.1873L36.5389 82.1873C35.7104 82.1873 35.0389 81.5157 35.0389 80.6873L35.0389 75.5205C35.0389 74.6921 35.7104 74.0205 36.5389 74.0205L41.9336 74.0205Z" stroke="white"/>
</svg>
