<svg width="150" height="150" viewBox="0 0 150 150" fill="none" xmlns="http://www.w3.org/2000/svg">
<circle cx="75" cy="75" r="75" fill="white"/>
<g clip-path="url(#clip0)">
<path d="M68.0742 77.707V68.2617C68.0742 67.8633 67.8633 67.4766 67.5352 67.2539C66.6445 66.6562 66.1055 65.6602 66.1055 64.582V54.7969C66.1055 50.6016 69.5273 47.1914 73.7109 47.1914H75.8203C80.0156 47.1914 83.4258 50.6133 83.4258 54.7969V64.5938C83.4258 65.6719 82.8867 66.668 81.9961 67.2656C81.6563 67.4883 81.457 67.8633 81.457 68.2734V77.7188C81.457 78.3516 81.8086 78.9141 82.3711 79.1953C83.6133 79.793 90.0938 83.0742 96.0703 87.9844C96.8906 88.6523 97.3594 89.6484 97.3594 90.7148V97.4297C97.3594 98.0977 97.8984 98.6367 98.5664 98.6367C99.2344 98.6367 99.7734 98.0977 99.7734 97.4297V90.7031C99.7734 88.9102 98.9766 87.2344 97.6055 86.0977C91.9336 81.4453 85.8398 78.2109 83.8711 77.2148V68.8477C85.125 67.7812 85.8398 66.2227 85.8398 64.5703V54.7969C85.8516 49.2539 81.3398 44.7656 75.8203 44.7656H73.7109C68.1797 44.7656 63.6797 49.2773 63.6797 54.7969V64.5938C63.6797 66.2461 64.4062 67.8047 65.6484 68.8711V77.2266C63.6797 78.2227 57.5742 81.4453 51.9141 86.1094C50.5312 87.2344 49.7461 88.9102 49.7461 90.7148V97.4297C49.7461 98.0977 50.2852 98.6367 50.9531 98.6367C51.6211 98.6367 52.1602 98.0977 52.1602 97.4297V90.7031C52.1602 89.6367 52.6289 88.6406 53.4492 87.9727C59.4258 83.0625 65.918 79.793 67.1484 79.1836C67.7227 78.9023 68.0742 78.3398 68.0742 77.707Z" fill="#044C5A"/>
<path d="M82.418 84.8902L72.1406 95.1558L68.2852 91.3003C67.8047 90.8198 67.043 90.8198 66.5742 91.3003C66.0938 91.7808 66.0938 92.5425 66.5742 93.0112L71.2852 97.7222C71.5195 97.9566 71.8359 98.0737 72.1406 98.0737C72.4453 98.0737 72.7617 97.9566 72.9961 97.7222L84.1289 86.5894C84.6094 86.1089 84.6094 85.3472 84.1289 84.8784C83.6484 84.4214 82.8984 84.4214 82.418 84.8902Z" fill="#FF8C00"/>
</g>
<defs>
<clipPath id="clip0">
<rect width="60" height="60" fill="white" transform="translate(45 45)"/>
</clipPath>
</defs>
</svg>
