<svg width="12" height="13" viewBox="0 0 12 13" fill="none" xmlns="http://www.w3.org/2000/svg">
<g clip-path="url(#clip0)">
<path d="M6.10352 7.48047C6.36241 7.48047 6.57226 7.27061 6.57226 7.01172V1.26953C6.57226 1.01064 6.36241 0.800781 6.10352 0.800781C5.84462 0.800781 5.63477 1.01064 5.63477 1.26953V7.01172C5.63477 7.27061 5.84462 7.48047 6.10352 7.48047Z" fill="#FF8C00"/>
<path d="M1.60015 11.6012C1.60015 11.8221 1.87662 12.0012 2.21769 12.0012L9.7826 12.0012C10.1237 12.0012 10.4001 11.8221 10.4001 11.6012C10.4001 11.3803 10.1237 11.2012 9.7826 11.2012L2.21769 11.2012C1.87662 11.2012 1.60015 11.3803 1.60015 11.6012Z" fill="#FF8C00"/>
<path d="M5.08334 9.40996C5.08414 9.41075 5.08491 9.41155 5.08571 9.41235C5.35995 9.68659 5.72014 9.82365 6.08032 9.82365C6.44023 9.82365 6.80009 9.68673 7.07379 9.413L9.6687 6.82822C9.85212 6.64553 9.85271 6.34874 9.67001 6.16532C9.48732 5.98192 9.19053 5.98131 9.00711 6.16401L6.41154 8.74944C6.323 8.83797 6.20529 8.88674 6.08009 8.88674C5.95533 8.88674 5.838 8.83834 5.74957 8.7504L3.20297 6.16703C3.02124 5.98265 2.72443 5.98054 2.54007 6.16227C2.35571 6.34401 2.35357 6.64079 2.53531 6.82518L5.08334 9.40996Z" fill="#FF8C00"/>
</g>
<defs>
<clipPath id="clip0">
<rect width="12" height="12.8" fill="white"/>
</clipPath>
</defs>
</svg>
