<svg width="16" height="16" fill="none" xmlns="http://www.w3.org/2000/svg"><rect width="16" height="16" rx="2" fill="#C4C4C4"/><path d="M9.361 6.569a.23.23 0 00-.23.23v4.36a.23.23 0 00.46 0V6.8a.23.23 0 00-.23-.23zM6.639 6.569a.23.23 0 00-.23.23v4.36a.23.23 0 00.46 0V6.8a.23.23 0 00-.23-.23z" fill="#fff"/><path d="M4.655 5.932v5.684c0 .336.123.651.339.878.214.227.512.356.824.356h4.364c.312 0 .61-.13.825-.356.215-.227.338-.542.338-.878V5.932a.881.881 0 00-.226-1.732H9.938V3.91A.906.906 0 009.024 3H6.976a.906.906 0 00-.914.911V4.2h-1.18a.881.881 0 00-.227 1.732zm5.527 6.457H5.818c-.395 0-.701-.34-.701-.773V5.953h5.766v5.663c0 .434-.306.773-.7.773zM6.524 3.91a.444.444 0 01.452-.45h2.048a.444.444 0 01.452.45V4.2H6.524V3.91zm-1.643.75h6.238a.415.415 0 010 .83H4.88a.415.415 0 110-.83z" fill="#fff"/><path d="M8 6.569a.23.23 0 00-.23.23v4.36a.23.23 0 00.46 0V6.8A.23.23 0 008 6.57z" fill="#fff"/></svg>
