<svg width="80" height="80" xmlns="http://www.w3.org/2000/svg" fill="none">

 <g>
  <title>Layer 1</title>
  <path id="svg_1" fill="#044C5A" d="m21.0938,58.9062c5.3124,5.2084 11.6145,7.8126 18.9062,7.8126c7.2917,0 13.5417,-2.6042 18.75,-7.8126c5.3125,-5.3124 7.9688,-11.6145 7.9688,-18.9062c0,-7.2917 -2.6563,-13.5417 -7.9688,-18.75c-5.2083,-5.3125 -11.4583,-7.9688 -18.75,-7.9688c-7.2917,0 -13.5938,2.6563 -18.9062,7.9688c-5.2084,5.2083 -7.8126,11.4583 -7.8126,18.75c0,7.2917 2.6042,13.5938 7.8126,18.9062zm-4.6876,-42.3437c6.5626,-6.5625 14.4271,-9.84375 23.5938,-9.84375c9.1667,0 16.9792,3.28125 23.4375,9.84375c6.5625,6.4583 9.8437,14.2708 9.8437,23.4375c0,9.1667 -3.2812,17.0312 -9.8437,23.5938c-6.4583,6.4583 -14.2708,9.6874 -23.4375,9.6874c-9.1667,0 -17.0312,-3.2291 -23.5938,-9.6874c-6.45828,-6.5626 -9.68745,-14.4271 -9.68745,-23.5938c0,-9.1667 3.22917,-16.9792 9.68745,-23.4375zm16.875,38.4375l0,-30l20,15l-20,15z"/>
 </g>
</svg>