<svg width="40" height="40" viewBox="0 0 40 40" fill="none" xmlns="http://www.w3.org/2000/svg">
<path d="M13.3211 23.5935C11.6533 19.3859 8.1499 15.5779 12.5583 7.90752C14.374 4.74846 17.1473 2.66502 20.0123 3.37041C22.8773 2.6651 25.6507 4.74853 27.4663 7.90752C31.8746 15.5779 28.3714 19.3859 26.7034 23.5935L20.0125 23.6101L13.3213 23.5935H13.3211Z" fill="#666666"/>
<path d="M8.74301 30.171C8.53379 30.5087 8.01184 33.3808 7.43457 35.5583C10.8688 38.3352 15.2398 39.9993 19.9999 39.9993C24.7602 39.9993 29.1311 38.3352 32.5654 35.5583C31.9879 33.381 31.466 30.5085 31.2568 30.171C28.0438 24.983 23.0913 27.2478 22.7536 21.311C22.7536 21.311 21.1604 22.5 19.9438 22.5109C18.7271 22.5217 17.2446 21.386 17.2446 21.386C16.9077 27.3176 11.9537 24.9869 8.74301 30.171Z" fill="#FED198"/>
<path d="M22.8396 22.1499C22.7997 21.8896 22.7703 21.6114 22.7534 21.3115C22.7534 21.3115 21.1601 22.5005 19.9435 22.5114C18.7269 22.5222 17.2443 21.3865 17.2443 21.3865C17.2271 21.6918 17.1969 21.9743 17.1558 22.2379C17.1869 22.2625 17.2179 22.2875 17.2496 22.3119L17.2492 22.3162C17.3429 22.3978 18.767 23.6224 19.9433 23.61C21.1195 23.6223 22.5435 22.3975 22.6373 22.3162L22.6371 22.3119C22.7062 22.259 22.7732 22.2046 22.8394 22.15L22.8396 22.1499Z" fill="#F0B97D"/>
<path d="M17.2497 21.3904C17.3434 21.4611 18.7675 22.5219 19.9438 22.5113C21.12 22.5219 22.544 21.4609 22.6378 21.3904C24.4157 20.3539 25.8745 17.2979 25.5452 13.986C25.2755 11.273 22.3407 15.251 20.2966 9.65332C17.4036 15.7136 14.6558 12.1288 14.3425 14.4255C13.9972 16.9561 15.4179 20.1401 17.2497 21.3905V21.3904Z" fill="#FED198"/>
<path d="M14.9152 25.6339C13.1644 26.5691 9.96146 26.5974 8.74279 28.5567C8.53053 28.8979 7.99771 33.0776 7.41162 35.5406C10.849 38.3283 15.2289 39.9999 19.9994 39.9999C24.7704 39.9999 29.1499 38.3286 32.5875 35.5406C32.0014 33.0776 31.4045 28.9303 31.2563 28.5567C30.4471 26.5157 26.7012 26.4304 24.9485 25.4893C22.2235 35.3757 18.1619 36.0496 14.9154 25.6347L14.9147 25.6339H14.9152V25.6339Z" fill="#FBB429"/>
<path d="M16.0827 24.6509C15.9689 27.7267 16.4919 32.0843 19.9431 33.1979C16.6939 33.3338 14.5855 28.6521 12.1836 27.426L16.0826 24.6511V24.6509H16.0827Z" fill="white"/>
<path d="M23.9972 24.6509C24.1165 27.7267 23.5675 32.0843 19.9432 33.1979C23.3552 33.3338 25.5693 28.6521 28.0911 27.426L23.997 24.6511L23.9972 24.6509Z" fill="white"/>
<circle cx="31.9998" cy="36.6668" r="3.33333" fill="#67AA56"/>
</svg>
