<svg width="10" height="10" viewBox="0 0 10 10" fill="none" xmlns="http://www.w3.org/2000/svg">
<path d="M8.53555 1.46445C7.59117 0.520078 6.33555 0 5 0C3.66445 0 2.40883 0.520078 1.46445 1.46445C0.520098 2.40883 0 3.66445 0 5C0 6.33555 0.520098 7.59117 1.46445 8.53555C2.40883 9.47992 3.66445 10 5 10C6.33555 10 7.59117 9.47992 8.53555 8.53555C9.4799 7.59117 10 6.33555 10 5C10 3.66445 9.4799 2.40883 8.53555 1.46445ZM5 9.41406C2.56607 9.41406 0.585938 7.43393 0.585938 5C0.585938 2.56607 2.56607 0.585938 5 0.585938C7.43393 0.585938 9.41406 2.56607 9.41406 5C9.41406 7.43393 7.43393 9.41406 5 9.41406Z" fill="black"/>
<path d="M5.31339 4.70677H4.68577C4.32821 4.70677 4.03734 4.41589 4.03734 4.05835C4.03734 3.70079 4.32823 3.40991 4.68577 3.40991H5.94099C6.10279 3.40991 6.23396 3.27874 6.23396 3.11694C6.23396 2.95515 6.10279 2.82397 5.94099 2.82397H5.29255V2.17554C5.29255 2.01374 5.16138 1.88257 4.99958 1.88257C4.83779 1.88257 4.70661 2.01374 4.70661 2.17554V2.82397H4.68579C4.00515 2.82397 3.45142 3.37772 3.45142 4.05835C3.45142 4.73897 4.00517 5.29271 4.68579 5.29271H5.31341C5.67095 5.29271 5.96183 5.5836 5.96183 5.94114C5.96183 6.29868 5.67095 6.58958 5.31341 6.58958H4.05819C3.8964 6.58958 3.76523 6.72075 3.76523 6.88255C3.76523 7.04435 3.8964 7.17552 4.05819 7.17552H4.70661V7.82397C4.70661 7.98577 4.83779 8.11694 4.99958 8.11694C5.16138 8.11694 5.29255 7.98577 5.29255 7.82397V7.17552H5.31339C5.99402 7.17552 6.54775 6.62177 6.54775 5.94114C6.54775 5.26052 5.99402 4.70677 5.31339 4.70677Z" fill="black"/>
</svg>
