<svg width="118" height="43" viewBox="0 0 118 43" fill="none" xmlns="http://www.w3.org/2000/svg">
<g filter="url(#filter0_d)">
<path d="M2 0.49707H6.82238V15.8914L13.9245 7.94136H19.9837L11.7008 17.184L20.9706 27.2265H14.9847L6.82238 18.3383V27.2265H2V0.49707V0.49707Z" fill="white"/>
<path d="M22.9353 7.94182H27.8137V17.2277C27.8137 19.0348 27.9387 20.2928 28.1843 20.9931C28.4343 21.6978 28.8308 22.2425 29.3781 22.6315C29.9254 23.0206 30.602 23.2152 31.4079 23.2152C32.2095 23.2152 32.8904 23.0249 33.4549 22.6402C34.0152 22.2554 34.4332 21.6934 34.7047 20.9456C34.9072 20.3922 35.0063 19.2034 35.0063 17.3834V7.9375H39.8287V16.1081C39.8287 19.4757 39.5659 21.7799 39.0358 23.0206C38.3893 24.5337 37.4326 25.6923 36.1742 26.505C34.9159 27.3134 33.3127 27.7198 31.3691 27.7198C29.2617 27.7198 27.5551 27.2486 26.2537 26.3018C24.9522 25.3551 24.0342 24.0409 23.5042 22.3505C23.1249 21.179 22.9396 19.0521 22.9396 15.9697V7.94182H22.9353Z" fill="white"/>
<path d="M49.456 7.94149V10.0684C50.3265 9.19517 51.2703 8.53807 52.283 8.10144C53.2958 7.66481 54.3775 7.44434 55.5324 7.44434C58.0406 7.44434 60.1738 8.39541 61.9278 10.2975C63.6818 12.1997 64.5609 14.6379 64.5609 17.6165C64.5609 20.487 63.6559 22.8906 61.8416 24.823C60.0273 26.7554 57.8768 27.7194 55.3945 27.7194C54.287 27.7194 53.257 27.5206 52.3046 27.1272C51.3522 26.7338 50.4041 26.0853 49.4603 25.1861V34.2775H44.6724V7.94149H49.456ZM54.5283 11.9144C53.007 11.9144 51.7486 12.4331 50.7488 13.475C49.749 14.5168 49.2491 15.8743 49.2491 17.5516C49.2491 19.2635 49.749 20.6512 50.7488 21.7061C51.7486 22.7652 53.0113 23.2926 54.5283 23.2926C56.0022 23.2926 57.239 22.7566 58.2474 21.6801C59.2559 20.6037 59.7601 19.2333 59.7601 17.5689C59.7601 15.9132 59.2645 14.5601 58.2776 13.5009C57.2821 12.4418 56.0366 11.9144 54.5283 11.9144Z" fill="white"/>
<path d="M75.7836 7.44434C74.8958 7.44434 74.0857 7.69507 73.3444 8.19222C72.6075 8.68505 72.0085 9.41565 71.5603 10.371V7.94581H67.4231V27.2309H72.211V19.4322L72.1938 18.4941C72.1938 15.8008 72.4523 13.9894 72.9652 13.0686C73.4737 12.1478 74.1029 11.6852 74.8485 11.6852C75.2105 11.6852 76.2318 11.8279 76.7964 12.1132V7.48325C76.6412 7.45731 75.9344 7.44434 75.7836 7.44434Z" fill="white"/>
<path d="M82.0106 0C82.8553 0 83.5836 0.306939 84.187 0.920812C84.7903 1.53468 85.0963 2.27825 85.0963 3.15583C85.0963 4.02044 84.7946 4.75535 84.1956 5.36058C83.5966 5.97013 82.8812 6.27275 82.0451 6.27275C81.1875 6.27275 80.4549 5.96149 79.8515 5.34329C79.2482 4.72077 78.9465 3.96856 78.9465 3.08234C78.9465 2.2307 79.2439 1.50442 79.8472 0.903519C80.442 0.302615 81.166 0 82.0106 0ZM79.5973 7.94144H84.4197V27.2266H79.5973V7.94144Z" fill="white"/>
<path d="M88.8423 0.49707V27.2265H93.6603V0.49707H88.8423Z" fill="#FF8C00"/>
<path d="M104.335 19.7267L95.0046 18.9788L104.236 19.1777V17.5825V15.9873L95.0046 16.1861L104.335 15.4382C104.335 15.4382 108.916 11.8804 109.614 6.80078L97.8833 8.74183C97.8833 8.74183 96.0733 13.3718 93.2678 16.1602C93.2678 17.3533 93.2678 17.5781 93.2678 17.5781C93.2678 17.5781 93.2678 17.8029 93.2678 18.9961C96.0733 21.7845 97.8833 26.4145 97.8833 26.4145L109.614 28.3555C108.916 23.2846 104.335 19.7267 104.335 19.7267Z" fill="#FF8C00"/>
<path d="M110.118 21.7279L109.614 21.1443L109.609 21.1399C109.48 20.993 107.338 18.6715 104.709 18.0576V18.6066C104.709 18.6066 108.588 19.6009 110.657 23.5998L109.536 23.4355C109.536 23.4355 107.877 20.5347 104.709 18.8055V19.3416C104.709 19.3416 108.756 21.7192 110.196 25.9601L109.532 25.8996L109.696 26.5048L111.01 26.708C111.01 26.708 110.264 24.5854 109.846 24.0364L111.656 24.2742C111.652 24.2698 110.652 22.1775 110.118 21.7279Z" fill="white"/>
<mask id="path-9-inside-1" fill="white">
<path d="M110.191 9.20353C108.752 13.4488 104.705 15.8264 104.705 15.8264V16.3625C107.873 14.6333 109.532 11.7325 109.532 11.7325L110.652 11.5682C108.584 15.5627 104.705 16.5614 104.705 16.5614V17.1104C107.166 16.5354 109.196 14.4647 109.558 14.0799L109.614 14.0194L110.118 13.4315C110.652 12.9862 111.656 10.8982 111.656 10.8982L109.846 11.1359C110.269 10.5869 111.01 8.45996 111.01 8.45996L109.696 8.66314L109.532 9.2727L110.191 9.20353Z"/>
</mask>
<path d="M110.191 9.20353C108.752 13.4488 104.705 15.8264 104.705 15.8264V16.3625C107.873 14.6333 109.532 11.7325 109.532 11.7325L110.652 11.5682C108.584 15.5627 104.705 16.5614 104.705 16.5614V17.1104C107.166 16.5354 109.196 14.4647 109.558 14.0799L109.614 14.0194L110.118 13.4315C110.652 12.9862 111.656 10.8982 111.656 10.8982L109.846 11.1359C110.269 10.5869 111.01 8.45996 111.01 8.45996L109.696 8.66314L109.532 9.2727L110.191 9.20353Z" fill="white"/>
<path d="M110.191 9.20353L112.085 9.84573L113.088 6.88867L109.982 7.21444L110.191 9.20353ZM104.705 15.8264L103.692 14.1021L102.705 14.6819V15.8264H104.705ZM104.705 16.3625H102.705V19.733L105.663 18.1179L104.705 16.3625ZM109.532 11.7325L109.242 9.75366L108.279 9.89482L107.796 10.7395L109.532 11.7325ZM110.652 11.5682L112.428 12.4879L114.222 9.02344L110.362 9.58939L110.652 11.5682ZM104.705 16.5614L104.206 14.6245L102.705 15.0111V16.5614H104.705ZM104.705 17.1104H102.705V19.6316L105.16 19.0579L104.705 17.1104ZM109.558 14.0799L111.014 15.4504L111.02 15.4445L111.025 15.4386L109.558 14.0799ZM109.614 14.0194L111.081 15.378L111.107 15.3502L111.132 15.3214L109.614 14.0194ZM110.118 13.4315L108.838 11.895L108.709 12.0022L108.6 12.1295L110.118 13.4315ZM111.656 10.8982L113.459 11.7649L115.061 8.43377L111.396 8.91519L111.656 10.8982ZM109.846 11.1359L108.261 9.91649L105.313 13.7486L110.107 13.1189L109.846 11.1359ZM111.01 8.45996L112.899 9.11814L113.994 5.97494L110.704 6.48344L111.01 8.45996ZM109.696 8.66314L109.39 6.68662L108.102 6.8857L107.764 8.14422L109.696 8.66314ZM109.532 9.2727L107.6 8.75377L106.845 11.5655L109.74 11.2618L109.532 9.2727ZM108.297 8.56132C107.719 10.2649 106.591 11.6556 105.535 12.6527C105.016 13.1435 104.536 13.5176 104.192 13.7653C104.02 13.8887 103.884 13.9793 103.796 14.0361C103.753 14.0644 103.721 14.0842 103.703 14.0953C103.694 14.1008 103.688 14.1041 103.686 14.1053C103.685 14.1059 103.685 14.1059 103.686 14.1053C103.687 14.1051 103.687 14.1047 103.688 14.1041C103.689 14.1038 103.689 14.1035 103.69 14.1032C103.69 14.103 103.691 14.1027 103.691 14.1027C103.691 14.1024 103.692 14.1021 104.705 15.8264C105.718 17.5508 105.719 17.5505 105.719 17.5502C105.72 17.55 105.72 17.5497 105.721 17.5495C105.721 17.549 105.722 17.5484 105.723 17.5479C105.725 17.5468 105.727 17.5455 105.73 17.5441C105.734 17.5412 105.74 17.5377 105.747 17.5337C105.761 17.5256 105.778 17.515 105.799 17.5021C105.841 17.4763 105.898 17.4408 105.967 17.3959C106.106 17.306 106.298 17.1777 106.528 17.0119C106.988 16.6811 107.61 16.1955 108.281 15.5612C109.608 14.3082 111.223 12.3874 112.085 9.84573L108.297 8.56132ZM102.705 15.8264V16.3625H106.705V15.8264H102.705ZM105.663 18.1179C107.522 17.1035 108.909 15.764 109.822 14.7042C110.282 14.1698 110.633 13.6936 110.872 13.344C110.993 13.1687 111.086 13.0242 111.151 12.9186C111.184 12.8658 111.211 12.8226 111.23 12.7901C111.24 12.7738 111.248 12.7603 111.254 12.7494C111.257 12.744 111.26 12.7393 111.262 12.7353C111.263 12.7333 111.264 12.7315 111.265 12.7299C111.266 12.7291 111.266 12.7283 111.267 12.7276C111.267 12.7272 111.267 12.7267 111.267 12.7265C111.268 12.726 111.268 12.7255 109.532 11.7325C107.796 10.7395 107.796 10.739 107.796 10.7386C107.796 10.7384 107.797 10.738 107.797 10.7377C107.797 10.7372 107.797 10.7367 107.798 10.7362C107.798 10.7353 107.799 10.7345 107.799 10.7339C107.8 10.7327 107.8 10.7322 107.8 10.7323C107.8 10.7326 107.798 10.7355 107.795 10.7409C107.788 10.7517 107.776 10.7726 107.757 10.8024C107.72 10.8623 107.659 10.9578 107.574 11.0816C107.403 11.3299 107.141 11.687 106.791 12.0939C106.082 12.9168 105.056 13.8923 103.747 14.607L105.663 18.1179ZM109.822 13.7114L110.942 13.5471L110.362 9.58939L109.242 9.75366L109.822 13.7114ZM108.876 10.6485C108.051 12.2419 106.863 13.2443 105.862 13.8552C105.362 14.1602 104.918 14.3609 104.61 14.4822C104.457 14.5426 104.339 14.5824 104.268 14.6052C104.233 14.6165 104.209 14.6235 104.198 14.6266C104.193 14.6282 104.19 14.6287 104.192 14.6284C104.192 14.6282 104.194 14.6278 104.196 14.6271C104.198 14.6268 104.199 14.6264 104.201 14.626C104.202 14.6258 104.202 14.6255 104.203 14.6253C104.204 14.6252 104.205 14.625 104.205 14.6249C104.206 14.6247 104.206 14.6245 104.705 16.5614C105.204 18.4982 105.205 18.498 105.205 18.4978C105.206 18.4977 105.207 18.4975 105.207 18.4973C105.208 18.497 105.21 18.4967 105.211 18.4964C105.213 18.4957 105.216 18.4949 105.219 18.4941C105.226 18.4925 105.233 18.4906 105.241 18.4884C105.257 18.484 105.277 18.4785 105.3 18.4717C105.347 18.4582 105.409 18.4399 105.483 18.4161C105.632 18.3686 105.834 18.2993 106.077 18.2036C106.561 18.0129 107.216 17.7142 107.944 17.2703C109.399 16.3832 111.185 14.8891 112.428 12.4879L108.876 10.6485ZM102.705 16.5614V17.1104H106.705V16.5614H102.705ZM105.16 19.0579C106.762 18.6836 108.138 17.8508 109.109 17.1306C110.098 16.398 110.786 15.6934 111.014 15.4504L108.101 12.7094C107.968 12.8512 107.46 13.3744 106.727 13.9171C105.979 14.4722 105.109 14.9622 104.25 15.1628L105.16 19.0579ZM111.025 15.4386L111.081 15.378L108.146 12.6608L108.09 12.7213L111.025 15.4386ZM111.132 15.3214L111.636 14.7335L108.6 12.1295L108.095 12.7174L111.132 15.3214ZM111.398 14.968C111.784 14.6469 112.086 14.2036 112.257 13.9439C112.466 13.625 112.669 13.2725 112.84 12.9619C113.013 12.6468 113.167 12.3501 113.276 12.1338C113.331 12.025 113.376 11.935 113.407 11.8712C113.423 11.8393 113.435 11.8139 113.444 11.7959C113.448 11.7869 113.452 11.7797 113.454 11.7745C113.455 11.7719 113.456 11.7698 113.457 11.7682C113.458 11.7674 113.458 11.7667 113.458 11.7662C113.458 11.7659 113.458 11.7657 113.459 11.7655C113.459 11.7654 113.459 11.7652 113.459 11.7652C113.459 11.7651 113.459 11.7649 111.656 10.8982C109.854 10.0314 109.854 10.0313 109.854 10.0312C109.854 10.0312 109.854 10.0311 109.854 10.031C109.854 10.031 109.854 10.0309 109.854 10.0309C109.854 10.0308 109.854 10.0309 109.854 10.0311C109.854 10.0315 109.853 10.0324 109.853 10.0338C109.851 10.0365 109.849 10.0411 109.846 10.0475C109.84 10.0603 109.83 10.0802 109.817 10.1063C109.792 10.1585 109.754 10.2351 109.706 10.329C109.611 10.5181 109.48 10.7712 109.335 11.0337C109.188 11.3008 109.04 11.5539 108.911 11.7517C108.742 12.0087 108.719 11.9934 108.838 11.895L111.398 14.968ZM111.396 8.91519L109.586 9.15296L110.107 13.1189L111.917 12.8811L111.396 8.91519ZM111.432 12.3554C111.685 12.0265 111.889 11.6107 112.019 11.3309C112.171 11.0047 112.319 10.6475 112.446 10.3294C112.573 10.0078 112.686 9.70715 112.766 9.48804C112.806 9.378 112.839 9.28732 112.861 9.22339C112.873 9.1914 112.882 9.16603 112.888 9.1482C112.891 9.13928 112.894 9.13224 112.895 9.1272C112.896 9.12467 112.897 9.12265 112.897 9.12114C112.898 9.12038 112.898 9.11975 112.898 9.11925C112.898 9.119 112.898 9.11878 112.898 9.1186C112.898 9.11851 112.898 9.11839 112.898 9.11835C112.899 9.11824 112.899 9.11814 111.01 8.45996C109.121 7.80178 109.121 7.8017 109.121 7.80162C109.121 7.80161 109.121 7.80154 109.121 7.80152C109.121 7.80146 109.121 7.80144 109.121 7.80145C109.121 7.80146 109.121 7.80161 109.121 7.80187C109.121 7.80241 109.121 7.80344 109.12 7.80496C109.119 7.808 109.117 7.81297 109.115 7.81976C109.11 7.83336 109.103 7.85422 109.093 7.88146C109.074 7.93599 109.045 8.01577 109.009 8.1137C108.937 8.31056 108.838 8.57599 108.727 8.85473C108.615 9.13701 108.499 9.41445 108.393 9.6415C108.266 9.91491 108.219 9.97082 108.261 9.91649L111.432 12.3554ZM110.704 6.48344L109.39 6.68662L110.001 10.6397L111.315 10.4365L110.704 6.48344ZM107.764 8.14422L107.6 8.75377L111.463 9.79162L111.627 9.18207L107.764 8.14422ZM109.74 11.2618L110.4 11.1926L109.982 7.21444L109.323 7.28361L109.74 11.2618Z" fill="white" mask="url(#path-9-inside-1)"/>
</g>
<defs>
<filter id="filter0_d" x="0" y="0" width="117.656" height="42.2775" filterUnits="userSpaceOnUse" colorInterpolationFilters="sRGB">
<feFlood flood-opacity="0" result="BackgroundImageFix"/>
<feColorMatrix in="SourceAlpha" type="matrix" values="0 0 0 0 0 0 0 0 0 0 0 0 0 0 0 0 0 0 127 0"/>
<feOffset dx="2" dy="4"/>
<feGaussianBlur stdDeviation="2"/>
<feColorMatrix type="matrix" values="0 0 0 0 0 0 0 0 0 0 0 0 0 0 0 0 0 0 0.25 0"/>
<feBlend mode="normal" in2="BackgroundImageFix" result="effect1_dropShadow"/>
<feBlend mode="normal" in="SourceGraphic" in2="effect1_dropShadow" result="shape"/>
</filter>
</defs>
</svg>
