<svg width="30" height="30" viewBox="0 0 30 30" fill="none" xmlns="http://www.w3.org/2000/svg">
<circle cx="15" cy="15" r="14.5" fill="#074E5C" stroke="white"/>
<g clip-path="url(#clip0)">
<path d="M15.0001 22.8002C15.8581 22.8002 16.5601 22.0982 16.5601 21.2402H13.4401C13.4401 22.0982 14.1421 22.8002 15.0001 22.8002ZM20.0701 18.1202V13.8302C20.0701 11.4122 18.4321 9.4622 16.1701 8.9162V8.3702C16.1701 7.7462 15.6241 7.2002 15.0001 7.2002C14.3761 7.2002 13.8301 7.7462 13.8301 8.3702V8.9162C11.5681 9.4622 9.93012 11.4122 9.93012 13.8302V18.1202L8.37012 19.6802V20.4602H21.6301V19.6802L20.0701 18.1202Z" fill="white"/>
</g>
<defs>
<clipPath id="clip0">
<rect width="15.6" height="15.6" fill="white" transform="translate(7.2002 7.2002)"/>
</clipPath>
</defs>
</svg>
