<svg width="45" height="28" viewBox="0 0 45 28" fill="none" xmlns="http://www.w3.org/2000/svg">
<path fill-rule="evenodd" clip-rule="evenodd" d="M44.8043 26.51C44.8043 27.335 44.1393 28 43.3143 28H1.49023C0.665013 28 0 27.335 0 26.51V1.48995C0 0.665013 0.665013 0 1.49023 0H43.3143C44.1393 0 44.8043 0.665013 44.8043 1.48995V26.51Z" fill="#F2F2F2"/>
<path fill-rule="evenodd" clip-rule="evenodd" d="M20.6174 18.2091H18.4286L19.8008 9.79883H21.9897L20.6174 18.2091Z" fill="#293688"/>
<path fill-rule="evenodd" clip-rule="evenodd" d="M16.585 9.79883L14.5054 15.583L14.2529 14.3369L13.5203 10.557C13.5203 10.557 13.428 9.79883 12.4764 9.79883H9.03317L8.99097 9.94195C8.99097 9.94195 10.0433 10.1612 11.281 10.9022L13.1837 18.2091H15.4652L18.9421 9.79883H16.585Z" fill="#293688"/>
<path fill-rule="evenodd" clip-rule="evenodd" d="M33.8012 18.2091H35.8131L34.062 9.79883H32.3027C31.486 9.79883 31.2927 10.4305 31.2927 10.4305L28.0256 18.2091H30.3072L30.7623 16.955H33.5488L33.8012 18.2091ZM31.3932 15.2379L32.5467 12.0889L33.1949 15.2379H31.3932Z" fill="#293688"/>
<path fill-rule="evenodd" clip-rule="evenodd" d="M28.2027 11.8197L28.514 10.018C28.514 10.018 27.5457 9.64746 26.5442 9.64746C25.4582 9.64746 22.8738 10.1272 22.8738 12.4341C22.8738 14.6064 25.904 14.6316 25.904 15.7764C25.904 16.9131 23.1853 16.7105 22.2926 15.987L21.9641 17.8813C21.9641 17.8813 22.941 18.3529 24.4396 18.3529C25.9292 18.3529 28.1855 17.5781 28.1855 15.4732C28.1855 13.2929 25.1296 13.0825 25.1296 12.1309C25.1296 11.1881 27.2599 11.3059 28.2027 11.8197Z" fill="#293688"/>
<path fill-rule="evenodd" clip-rule="evenodd" d="M14.2529 14.3369L13.5203 10.557C13.5203 10.557 13.428 9.79883 12.4764 9.79883H9.03317L8.99097 9.94195C8.99097 9.94195 10.6497 10.2871 12.2406 11.5751C13.7562 12.8045 14.2529 14.3369 14.2529 14.3369Z" fill="#FAA634"/>
</svg>
