<svg width="40" height="28" viewBox="0 0 40 28" fill="none" xmlns="http://www.w3.org/2000/svg">
<path d="M40 25.4281C40 26.7341 38.9414 27.7927 37.6355 27.7927H2.36445C1.05859 27.7928 0 26.7341 0 25.4281V2.57156C0 1.2657 1.05859 0.207031 2.36445 0.207031H37.6355C38.9415 0.207031 40 1.2657 40 2.57156V25.4281Z" fill="#F2F2F2"/>
<path d="M5.82715 11.2457H7.02231L6.42488 9.72461L5.82715 11.2457Z" fill="#306FC5"/>
<path d="M12.1832 16.3521V17.0584H14.1932V17.8191H12.1832V18.6342H14.4104L15.4425 17.4931L14.4648 16.3521H12.1832Z" fill="#306FC5"/>
<path d="M27.8827 9.72461L27.2307 11.2457H28.4803L27.8827 9.72461Z" fill="#306FC5"/>
<path d="M17.9958 19.0683V15.9719L16.5833 17.4931L17.9958 19.0683Z" fill="#306FC5"/>
<path d="M20.6579 16.8412C20.6035 16.5153 20.386 16.3521 20.0599 16.3521H18.9194V17.3299H20.1146C20.4405 17.3299 20.6579 17.1671 20.6579 16.8412Z" fill="#306FC5"/>
<path d="M24.4599 17.2217C24.5686 17.1672 24.6231 17.0041 24.6231 16.8414C24.6775 16.6243 24.5686 16.5155 24.4599 16.4611C24.3515 16.4067 24.1883 16.4067 24.0256 16.4067H22.9389V17.276H24.0255C24.1883 17.276 24.3515 17.276 24.4599 17.2217Z" fill="#306FC5"/>
<path d="M32.2825 8.31226V8.96413L31.9568 8.31226H29.4038V8.96413L29.0777 8.31226H25.601C25.0035 8.31226 24.5144 8.42101 24.08 8.63827V8.31226H21.6355V8.36663V8.63827C21.364 8.42108 21.038 8.31226 20.6034 8.31226H11.8573L11.2595 9.67038L10.6621 8.31226H8.70655H7.89163V8.96413L7.61999 8.31226H7.56562H5.22976L4.14312 10.8654L2.89382 13.6358L2.87085 13.6903H2.89382H5.66436H5.69905L5.71874 13.6358L6.04483 12.8212H6.75101L7.07694 13.6903H10.2274V13.6358V13.0384L10.4992 13.6902H12.0744L12.3459 13.0384V13.6358V13.6903H13.5954H19.8426H19.897V12.2778H20.0059C20.1144 12.2778 20.1144 12.2778 20.1144 12.4408V13.6359H24.0258V13.31C24.3517 13.4732 24.8403 13.6359 25.4923 13.6359H27.1222L27.4481 12.7669H28.2084L28.5344 13.6359H31.685V13.0928V12.8212L32.1741 13.6359H32.2825H32.337H34.7273V8.31226H32.2826H32.2825ZM13.8672 12.8756H13.3238H12.998V12.5499V9.88772L12.9436 10.0123V10.0108L11.6798 12.8756H11.6398H11.3493H10.8792L9.57554 9.88772V12.8756H7.72866L7.34843 12.0608H5.50124L5.12093 12.8756H4.16601L5.77304 9.07288H7.13101L8.65202 12.7125V9.07288H8.97788H10.0912L10.1169 9.12733H10.1187L10.8041 10.6191L11.2963 11.7367L11.3137 11.6804L12.4001 9.07296H13.8671V12.8756H13.8672ZM17.6156 9.88772H15.4969V10.5939H17.5612V11.3544H15.4969V12.1151H17.6156V12.9298H14.5735V9.07296H17.6156V9.88772ZM21.4902 11.2885C21.4916 11.2898 21.4934 11.2906 21.4951 11.2918C21.5157 11.3135 21.5333 11.3353 21.5483 11.3562C21.6523 11.4926 21.7365 11.6955 21.7407 11.993C21.741 11.9981 21.7412 12.0032 21.7416 12.0083C21.7416 12.0113 21.7421 12.0139 21.7421 12.0169C21.7421 12.0187 21.7419 12.02 21.7419 12.0216C21.7432 12.0516 21.744 12.0821 21.744 12.1151V12.8757H20.9293V12.4409C20.9293 12.2237 20.9293 11.8976 20.7661 11.6804C20.7148 11.6291 20.6628 11.5952 20.6062 11.5712C20.5248 11.5184 20.3705 11.5176 20.1144 11.5176H19.1363V12.8757H18.213V9.07296H20.2775C20.7661 9.07296 21.0922 9.07296 21.3639 9.23593C21.6301 9.39577 21.7908 9.66085 21.7969 10.0806C21.7844 10.6587 21.4133 10.9759 21.1465 11.0829C21.1465 11.0829 21.3277 11.1194 21.4902 11.2885ZM23.3195 12.8756H22.3959V9.07288H23.3195V12.8756ZM33.9126 12.8756H32.7173L30.979 9.99632V12.3866L30.9733 12.3809V12.878H30.0556V12.8757H29.132L28.8061 12.0608H26.9046L26.5787 12.9298H25.5466C25.1123 12.9298 24.5687 12.8213 24.2429 12.4954C23.9169 12.1694 23.7541 11.7348 23.7541 11.0287C23.7541 10.4855 23.8626 9.94194 24.2429 9.50749C24.5143 9.18132 25.0034 9.07296 25.6008 9.07296H26.4702V9.88772H25.6008C25.2749 9.88772 25.1123 9.94187 24.8945 10.1051C24.7319 10.268 24.6231 10.5939 24.6231 10.9741C24.6231 11.4088 24.6775 11.6804 24.8945 11.8976C25.0579 12.0608 25.275 12.1152 25.5466 12.1152H25.9268L27.1761 9.12749H27.7196H28.5343L30.0555 12.7671V12.5815V11.3545V11.246V9.12757H31.4135L32.9886 11.7893V9.12757H33.9125V12.8758H33.9126V12.8756Z" fill="#306FC5"/>
<path d="M20.7156 10.6567C20.7315 10.6397 20.7459 10.6205 20.758 10.5985C20.8073 10.5206 20.8637 10.3803 20.8333 10.1888C20.832 10.1712 20.8288 10.155 20.8251 10.1393C20.8241 10.1349 20.8242 10.1311 20.823 10.1267L20.8225 10.1268C20.7955 10.0337 20.7265 9.97652 20.6577 9.94184C20.5487 9.8877 20.3858 9.8877 20.2229 9.8877H19.1362V10.757H20.2229C20.3858 10.757 20.5488 10.757 20.6577 10.7025C20.674 10.6943 20.6885 10.683 20.7025 10.6703L20.7027 10.671C20.7027 10.6709 20.7083 10.6651 20.7156 10.6567Z" fill="#306FC5"/>
<path d="M37.1175 18.308C37.1175 17.9277 37.009 17.5473 36.8461 17.2758V14.8313H36.8436V14.6681C36.8436 14.6681 34.5666 14.6681 34.2277 14.6681C33.889 14.6681 33.4779 14.994 33.4779 14.994V14.6681H30.9791C30.5987 14.6681 30.1101 14.7769 29.8925 14.994V14.6681H25.4381V14.8313V14.9939C25.1124 14.7225 24.5144 14.668 24.2429 14.668H21.3094V14.8312V14.9938C21.0379 14.7224 20.3857 14.668 20.0596 14.668H16.8007L16.04 15.4829L15.3337 14.668H15.1063H14.7362H10.4448V14.8312V15.2603V20.1549H15.2253L16.0108 19.3692L16.6916 20.1549H16.7462H19.5007H19.6255H19.6799H19.734V19.6117V18.9055H20.0058C20.3857 18.9055 20.8748 18.9055 21.2551 18.7423V20.1003V20.2092H23.6997V20.1003V18.7967H23.808C23.9712 18.7967 23.9712 18.7967 23.9712 18.9597V20.1003V20.2092H31.359C31.8483 20.2092 32.3369 20.1003 32.6084 19.883V20.1003V20.2092H34.9445C35.4331 20.2092 35.9224 20.1549 36.2483 19.9375C36.7485 19.6374 37.0637 19.1063 37.1106 18.4727C37.1128 18.454 37.1155 18.4352 37.1172 18.4164L37.114 18.4134C37.1161 18.3782 37.1175 18.3434 37.1175 18.308ZM20.0058 17.9821H18.9191V18.1447V18.4708V18.7968V19.3944H17.1336L16.0944 18.1991L16.0908 18.2031L16.04 18.1447L14.8449 19.3944H11.3683V15.5918H14.8993L15.864 16.6484L16.0668 16.8697L16.0943 16.8412L17.2352 15.5919H20.1143C20.673 15.5919 21.2987 15.7298 21.5358 16.2983C21.5644 16.4109 21.5809 16.536 21.5809 16.6782C21.5809 17.7646 20.8204 17.9821 20.0058 17.9821ZM25.4381 17.9277C25.5466 18.0902 25.601 18.3079 25.601 18.634V19.3943H24.6776V18.9055C24.6776 18.6879 24.6776 18.3079 24.5144 18.1447C24.4061 17.9821 24.1885 17.9821 23.8628 17.9821H22.8851V19.3944H21.9616V15.5374H24.0258C24.4601 15.5374 24.8403 15.5374 25.1124 15.7002C25.3838 15.8634 25.601 16.135 25.601 16.5696C25.601 17.167 25.2209 17.493 24.9492 17.6018C25.2209 17.71 25.3838 17.819 25.4381 17.9277ZM29.1865 16.352H27.0676V17.0582H29.132V17.8189H27.0676V18.5795H29.1865V19.3943H26.1444V15.5373H29.1865V16.352ZM31.4679 19.3944H29.7295V18.5796H31.4679C31.6306 18.5796 31.7395 18.5796 31.8484 18.4709C31.9028 18.4164 31.9568 18.308 31.9568 18.1992C31.9568 18.0903 31.9028 17.9822 31.8484 17.9277C31.7939 17.8734 31.6851 17.8191 31.5222 17.8191C30.6529 17.7647 29.6208 17.8191 29.6208 16.6241C29.6208 16.0808 29.9468 15.4831 30.9247 15.4831H32.7172V16.4065H31.0333C30.8704 16.4065 30.7616 16.4065 30.6529 16.4609C30.5445 16.5153 30.5445 16.6241 30.5445 16.7326C30.5445 16.8956 30.6529 16.95 30.7615 17.0039C30.8704 17.0584 30.979 17.0584 31.0875 17.0584H31.5765C32.0654 17.0584 32.3913 17.167 32.6086 17.3844C32.7716 17.5474 32.8803 17.8191 32.8803 18.1992C32.8803 19.0138 32.3914 19.3944 31.4679 19.3944ZM36.1397 19.0138C35.9227 19.2314 35.5422 19.3944 34.9988 19.3944H33.2608V18.5796H34.9987C35.1618 18.5796 35.2707 18.5796 35.3792 18.4709C35.4333 18.4164 35.4879 18.308 35.4879 18.1992C35.4879 18.0903 35.4333 17.9822 35.3792 17.9277C35.3248 17.8734 35.2163 17.8191 35.0533 17.8191C34.1844 17.7647 33.1519 17.8191 33.1519 16.6241C33.1519 16.1078 33.4473 15.6414 34.1758 15.5029C34.2629 15.4909 34.355 15.4831 34.4558 15.4831H36.2486V16.4065H35.0533H34.6188H34.5644C34.4014 16.4065 34.2929 16.4065 34.1844 16.4609C34.1297 16.5153 34.0753 16.6241 34.0753 16.7326C34.0753 16.8956 34.1297 16.95 34.2929 17.0039C34.4014 17.0584 34.5101 17.0584 34.6188 17.0584H34.6728H35.1076C35.345 17.0584 35.5245 17.0877 35.6888 17.1454C35.8393 17.1998 36.3374 17.4227 36.4488 18.0043C36.4585 18.0652 36.4656 18.1288 36.4656 18.1992C36.4656 18.5252 36.3569 18.7968 36.1397 19.0138Z" fill="#306FC5"/>
</svg>
