<svg width="45" height="28" viewBox="0 0 45 28" fill="none" xmlns="http://www.w3.org/2000/svg">
<path fill-rule="evenodd" clip-rule="evenodd" d="M41.625 2.83211e-07C39.375 4.94605e-07 15.5533 -4.48891e-07 2.25 2.83211e-07C1.125 3.45121e-07 0 1.12 0 2.24V24.64C-1.30219e-07 26.88 1.125 28 3.375 28C15.9253 28 39.375 28 41.625 28C43.875 28 45 26.88 45 24.64V3.36C45 1.12 43.875 2.83211e-07 41.625 2.83211e-07Z" fill="#F2F2F2"/>
<path fill-rule="evenodd" clip-rule="evenodd" d="M42.0596 14.14C42.0614 20.6466 36.8211 25.9222 30.3551 25.9239C23.889 25.9255 18.6465 20.6526 18.6448 14.146V14.14C18.6431 7.63357 23.8834 2.35769 30.3491 2.35596C36.8152 2.35423 42.0578 7.62746 42.0596 14.134V14.14C42.0596 14.14 42.0596 14.1379 42.0596 14.14Z" fill="#DFAC16"/>
<path fill-rule="evenodd" clip-rule="evenodd" d="M14.5723 2.35895C8.14462 2.40003 2.94025 7.66222 2.94025 14.1399C2.94025 20.6429 8.18518 25.9208 14.6477 25.9208C17.6808 25.9208 20.4455 24.7577 22.5259 22.8513C22.5257 22.8513 22.5255 22.851 22.525 22.8507H22.5275C22.9534 22.4601 23.3508 22.0386 23.716 21.5892H21.3174C20.9971 21.1999 20.706 20.7942 20.4445 20.3757H24.5813C24.8329 19.9705 25.0607 19.5499 25.2628 19.1141H19.7616C19.5741 18.7097 19.4113 18.296 19.2723 17.8764H25.7526C26.1432 16.7021 26.3552 15.4458 26.3552 14.1398C26.3552 13.274 26.2619 12.4298 26.0853 11.617H18.9286C19.0173 11.1987 19.1292 10.7855 19.2626 10.3794H25.7454C25.6004 9.94729 25.4321 9.5262 25.2406 9.11801H19.7609C19.9586 8.69307 20.1825 8.27969 20.4327 7.88055H24.5664C24.2913 7.43951 23.9868 7.01816 23.6577 6.61901H21.3529C21.7093 6.19699 22.1016 5.79957 22.5275 5.42901C20.4469 3.52235 17.6814 2.35895 14.6477 2.35895C14.6225 2.35895 14.5975 2.35881 14.5723 2.35895C14.5723 2.35895 14.5975 2.35881 14.5723 2.35895Z" fill="#BF3126"/>
<path fill-rule="evenodd" clip-rule="evenodd" d="M18.8577 17.1395L19.0137 16.0733C18.9285 16.0733 18.8031 16.11 18.6925 16.11C18.2586 16.11 18.2107 15.8779 18.2384 15.7062L18.5889 13.5307H19.2484L19.4076 12.3513H18.7858L18.9124 11.6179H17.6658C17.6383 11.6456 16.93 15.7428 16.93 16.2416C16.93 16.9802 17.3421 17.3092 17.9232 17.3039C18.3783 17.3 18.7327 17.1733 18.8577 17.1395C18.8577 17.1395 18.7327 17.1733 18.8577 17.1395Z" fill="white"/>
<path fill-rule="evenodd" clip-rule="evenodd" d="M19.2526 15.1065C19.2526 16.8792 20.4154 17.3004 21.406 17.3004C22.3203 17.3004 22.7226 17.0947 22.7226 17.0947L22.9422 15.8849C22.9422 15.8849 22.2467 16.1932 21.6186 16.1932C20.2801 16.1932 20.5145 15.189 20.5145 15.189H23.0477C23.0477 15.189 23.2113 14.3762 23.2113 14.045C23.2113 13.2185 22.8025 12.2114 21.4338 12.2114C20.1804 12.2117 19.2526 13.5707 19.2526 15.1065C19.2526 15.1065 19.2526 13.5707 19.2526 15.1065ZM21.4386 13.3348C22.1421 13.3348 22.0123 14.1303 22.0123 14.1947H20.6284C20.6284 14.1125 20.7592 13.3348 21.4386 13.3348C21.4386 13.3348 20.7592 13.3348 21.4386 13.3348Z" fill="white"/>
<path fill-rule="evenodd" clip-rule="evenodd" d="M29.3322 17.139L29.5552 15.7715C29.5552 15.7715 28.9436 16.0801 28.5238 16.0801C27.6396 16.0801 27.2849 15.4007 27.2849 14.6707C27.2849 13.1899 28.0457 12.3753 28.8927 12.3753C29.5278 12.3753 30.0376 12.7341 30.0376 12.7341L30.2411 11.4055C30.2411 11.4055 29.4852 11.0977 28.8372 11.0977C27.3982 11.0977 25.9982 12.3539 25.9982 14.7131C25.9982 16.2775 26.7542 17.3108 28.2417 17.3108C28.6623 17.3109 29.3322 17.139 29.3322 17.139Z" fill="white"/>
<path fill-rule="evenodd" clip-rule="evenodd" d="M12.0018 12.2312C11.147 12.2312 10.4918 12.5076 10.4918 12.5076L10.3109 13.5882C10.3109 13.5882 10.8517 13.3671 11.6692 13.3671C12.1334 13.3671 12.4729 13.4196 12.4729 13.7992C12.4729 14.0298 12.4313 14.1149 12.4313 14.1149C12.4313 14.1149 12.0652 14.084 11.8957 14.084C10.8176 14.084 9.68512 14.547 9.68512 15.9428C9.68512 17.0427 10.4281 17.295 10.8886 17.295C11.768 17.295 12.1471 16.7208 12.1673 16.719L12.1262 17.1984H13.2238L13.7135 13.7439C13.7135 12.2784 12.4431 12.2312 12.0018 12.2312ZM12.2688 15.0439C12.2926 15.2549 12.1373 16.244 11.3868 16.244C10.9997 16.244 10.899 15.9464 10.899 15.7704C10.899 15.427 11.0844 15.0149 11.9978 15.0149C12.2103 15.0151 12.233 15.038 12.2688 15.0439C12.2688 15.0439 12.233 15.038 12.2688 15.0439Z" fill="white"/>
<path fill-rule="evenodd" clip-rule="evenodd" d="M14.8802 17.2696C15.161 17.2696 16.7661 17.3414 16.7661 15.6747C16.7661 14.1166 15.2803 14.4244 15.2803 13.7984C15.2803 13.4867 15.5225 13.3886 15.9651 13.3886C16.1408 13.3886 16.817 13.4449 16.817 13.4449L16.9742 12.3373C16.9742 12.3374 16.5366 12.2388 15.8241 12.2388C14.902 12.2388 13.966 12.6092 13.966 13.8766C13.966 15.3127 15.5267 15.1686 15.5267 15.7735C15.5267 16.1773 15.0907 16.2102 14.7547 16.2102C14.1732 16.2102 13.6495 16.0094 13.6477 16.019L13.4814 17.1154C13.5116 17.1247 13.8345 17.2696 14.8802 17.2696C14.8802 17.2696 13.8345 17.2696 14.8802 17.2696Z" fill="white"/>
<path fill-rule="evenodd" clip-rule="evenodd" d="M39.6575 11.2371L39.3886 12.916C39.3886 12.916 38.9194 12.2638 38.1849 12.2638C37.0428 12.2638 36.0908 13.6495 36.0908 15.2418C36.0908 16.2695 36.5985 17.2766 37.6366 17.2766C38.3832 17.2766 38.7972 16.7527 38.7972 16.7527L38.7424 17.2001H39.9548L40.9071 11.2351L39.6575 11.2371ZM39.0786 14.5106C39.0786 15.1731 38.7527 16.0581 38.0768 16.0581C37.6282 16.0581 37.418 15.6792 37.418 15.0845C37.418 14.112 37.8521 13.4703 38.3997 13.4703C38.8485 13.4702 39.0786 13.7804 39.0786 14.5106C39.0786 14.5106 39.0786 13.7804 39.0786 14.5106Z" fill="white"/>
<path fill-rule="evenodd" clip-rule="evenodd" d="M5.25246 17.2054L6.01129 12.702L6.12267 17.2054H6.98152L8.58361 12.702L7.87394 17.2054H9.15006L10.1328 11.2324H8.15947L6.93052 14.8972L6.86657 11.2324H5.04753L4.0506 17.2054H5.25246Z" fill="white"/>
<path fill-rule="evenodd" clip-rule="evenodd" d="M24.4579 17.2137C24.8208 15.1374 24.888 13.4514 25.7539 13.76C25.9054 12.9564 26.0517 12.6455 26.2171 12.3054C26.2171 12.3054 26.1396 12.2891 25.9768 12.2891C25.4185 12.2891 25.005 13.0565 25.005 13.0565L25.1161 12.3517H23.9555L23.1779 17.2137H24.4579Z" fill="white"/>
<path fill-rule="evenodd" clip-rule="evenodd" d="M32.2084 12.2312C31.3536 12.2312 30.6984 12.5076 30.6984 12.5076L30.5176 13.5882C30.5176 13.5882 31.0584 13.3671 31.8759 13.3671C32.3401 13.3671 32.6794 13.4196 32.6794 13.7992C32.6794 14.0298 32.6381 14.1149 32.6381 14.1149C32.6381 14.1149 32.2719 14.084 32.1023 14.084C31.0243 14.084 29.8918 14.547 29.8918 15.9428C29.8918 17.0427 30.6347 17.295 31.0952 17.295C31.9746 17.295 32.3537 16.7208 32.3738 16.719L32.333 17.1984H33.4306L33.9201 13.7439C33.9203 12.2784 32.6497 12.2312 32.2084 12.2312ZM32.4758 15.0439C32.4996 15.2549 32.3442 16.244 31.5934 16.244C31.2063 16.244 31.1059 15.9464 31.1059 15.7704C31.1059 15.427 31.2912 15.0149 32.2045 15.0149C32.417 15.0151 32.4396 15.038 32.4758 15.0439C32.4758 15.0439 32.4396 15.038 32.4758 15.0439Z" fill="white"/>
<path fill-rule="evenodd" clip-rule="evenodd" d="M34.9233 17.2137C35.2862 15.1374 35.3535 13.4514 36.2191 13.76C36.3709 12.9564 36.5173 12.6455 36.6826 12.3054C36.6826 12.3054 36.605 12.2891 36.4422 12.2891C35.884 12.2891 35.4704 13.0565 35.4704 13.0565L35.5815 12.3517H34.4209L33.6433 17.2137H34.9233Z" fill="white"/>
</svg>
