<svg width="76" height="97" viewBox="0 0 76 97" fill="none" xmlns="http://www.w3.org/2000/svg">
<path d="M56.6133 17.6151H11.4643C9.9521 17.6151 8.72632 16.3893 8.72632 14.8771C8.72632 13.3649 9.9521 12.1392 11.4643 12.1392H56.6133C58.1255 12.1392 59.3513 13.3649 59.3513 14.8771C59.3513 16.3893 58.1255 17.6151 56.6133 17.6151Z" fill="#FF8C00"/>
<path d="M70.7763 51.9785L35.3023 87.4526L27.7582 90.1076L25.9216 95.3252L38.6838 90.8341L74.1574 55.3601L70.7763 51.9785Z" fill="#FF8C00"/>
<path d="M65.8863 68.3086C65.2389 68.3086 64.7144 68.8331 64.7144 69.4805V81.4533H52.457C51.8097 81.4533 51.2852 81.9778 51.2852 82.6252C51.2852 83.2725 51.8097 83.797 52.457 83.797H65.8863C66.5336 83.797 67.0581 83.2725 67.0581 82.6252V69.4805C67.0581 68.8331 66.5336 68.3086 65.8863 68.3086Z" fill="white"/>
<path d="M27.3787 82.6253C27.3787 81.978 26.8542 81.4535 26.2068 81.4535H3.2854V2.54736H64.7146V42.8205C64.7146 43.4678 65.2392 43.9924 65.8865 43.9924C66.5339 43.9924 67.0584 43.4678 67.0584 42.8205V1.37549C67.0584 0.728144 66.5339 0.203613 65.8865 0.203613H2.11353C1.46618 0.203613 0.94165 0.728144 0.94165 1.37549V82.6253C0.94165 83.2727 1.46618 83.7972 2.11353 83.7972H26.2068C26.8542 83.7972 27.3787 83.2722 27.3787 82.6253Z" fill="white"/>
<path d="M22.3718 26.0107H9.87207C9.22473 26.0107 8.7002 26.5353 8.7002 27.1826C8.7002 27.83 9.22473 28.3545 9.87207 28.3545H22.3718C23.0191 28.3545 23.5436 27.83 23.5436 27.1826C23.5436 26.5353 23.0191 26.0107 22.3718 26.0107Z" fill="white"/>
<path d="M58.1534 26.0107H27.9968C27.3495 26.0107 26.825 26.5353 26.825 27.1826C26.825 27.83 27.3495 28.3545 27.9968 28.3545H58.1534C58.8007 28.3545 59.3253 27.83 59.3253 27.1826C59.3253 26.5353 58.8007 26.0107 58.1534 26.0107Z" fill="white"/>
<path d="M58.1534 33.9795H27.9968C27.3495 33.9795 26.825 34.504 26.825 35.1514C26.825 35.7987 27.3495 36.3232 27.9968 36.3232H58.1534C58.8007 36.3232 59.3253 35.7987 59.3253 35.1514C59.3253 34.504 58.8007 33.9795 58.1534 33.9795Z" fill="white"/>
<path d="M59.3253 43.1201C59.3253 42.4728 58.8007 41.9482 58.1534 41.9482H27.9968C27.3495 41.9482 26.825 42.4728 26.825 43.1201C26.825 43.7675 27.3495 44.292 27.9968 44.292H58.1534C58.8007 44.292 59.3253 43.7675 59.3253 43.1201Z" fill="white"/>
<path d="M22.3718 52.8862H9.87207C9.22473 52.8862 8.7002 53.4108 8.7002 54.0581C8.7002 54.7054 9.22473 55.23 9.87207 55.23H22.3718C23.0191 55.23 23.5436 54.7054 23.5436 54.0581C23.5436 53.4108 23.0191 52.8862 22.3718 52.8862Z" fill="white"/>
<path d="M53.8573 54.0581C53.8573 53.4108 53.3328 52.8862 52.6854 52.8862H27.9968C27.3495 52.8862 26.825 53.4108 26.825 54.0581C26.825 54.7054 27.3495 55.23 27.9968 55.23H52.6854C53.3328 55.23 53.8573 54.7054 53.8573 54.0581Z" fill="white"/>
<path d="M46.0273 62.0269C46.0273 61.3795 45.5028 60.855 44.8554 60.855H27.9968C27.3495 60.855 26.825 61.3795 26.825 62.0269C26.825 62.6742 27.3495 63.1987 27.9968 63.1987H44.8554C45.5028 63.1987 46.0273 62.6742 46.0273 62.0269Z" fill="white"/>
<path d="M27.9968 68.8237C27.3495 68.8237 26.825 69.3483 26.825 69.9956C26.825 70.6429 27.3495 71.1675 27.9968 71.1675H36.8867C37.534 71.1675 38.0585 70.6429 38.0585 69.9956C38.0585 69.3483 37.534 68.8237 36.8867 68.8237H27.9968Z" fill="white"/>
<path d="M74.9863 54.5309L66.7157 46.2603C66.276 45.8201 65.4978 45.8201 65.0586 46.2603L57.9533 53.3656C57.9524 53.3661 57.9519 53.3665 57.951 53.3675C57.95 53.368 57.95 53.3689 57.9491 53.3698L29.5846 81.7339C29.5241 81.7944 29.4725 81.8605 29.428 81.9298C29.4158 81.9491 29.4074 81.9706 29.3961 81.9908C29.3666 82.0433 29.3389 82.0962 29.3183 82.1516C29.3155 82.1591 29.3103 82.1656 29.3075 82.1736L24.8164 94.9358C24.6669 95.3614 24.7743 95.8348 25.0935 96.1536C25.3171 96.3772 25.6166 96.4967 25.9222 96.4967C26.0525 96.4967 26.1843 96.4752 26.3113 96.4302L39.073 91.9391C39.0805 91.9362 39.0871 91.9316 39.095 91.9283C39.1513 91.9072 39.2047 91.8795 39.2577 91.8495C39.2769 91.8388 39.2975 91.8308 39.3163 91.8186C39.3857 91.7741 39.4518 91.7225 39.5127 91.6616L67.8782 63.2956C67.8786 63.2951 67.8786 63.2951 67.8791 63.2951C67.8791 63.2947 67.8796 63.2947 67.8796 63.2942L74.9863 56.1875C75.4438 55.7309 75.4438 54.9889 74.9863 54.5309ZM38.6839 89.1762L32.0703 82.5627L58.7797 55.8537L65.3928 62.4669L38.6839 89.1762ZM30.9008 84.7076L36.5394 90.3462L27.8389 93.4081L30.9008 84.7076ZM67.0503 60.8098L60.4372 54.1962L65.8874 48.7461L72.5005 55.3592L67.0503 60.8098Z" fill="white"/>
</svg>
