<svg width="68" height="98" viewBox="0 0 68 98" fill="none" xmlns="http://www.w3.org/2000/svg">
<path d="M1.76343 85.8433H65.6715V96.2361H1.76343V85.8433Z" fill="#FF8C00"/>
<path d="M32.2112 21.0978C31.7057 21.0978 31.2241 20.8807 30.8892 20.5013L26.7864 15.8514C26.1427 15.1216 26.2118 14.0076 26.9415 13.3639C27.6727 12.7201 28.786 12.7899 29.4297 13.5197L32.2007 16.6601L38.1289 9.83706C38.767 9.10237 39.8811 9.02411 40.6157 9.6622C41.3511 10.301 41.4287 11.4143 40.7906 12.149L33.5424 20.4915C33.2089 20.875 32.7267 21.0957 32.219 21.0978C32.2155 21.0978 32.2127 21.0978 32.2112 21.0978Z" fill="#FF8C00"/>
<path d="M65.6715 13.0522H53.8191C52.8454 13.0522 52.0565 13.8412 52.0565 14.8149C52.0565 15.7886 52.8454 16.5776 53.8191 16.5776H63.9088V94.4744H3.52608V16.5776H13.6164C14.5901 16.5776 15.3791 15.7886 15.3791 14.8149C15.3791 13.8412 14.5901 13.0522 13.6164 13.0522H1.76269C0.78898 13.0522 0 13.8412 0 14.8149V96.2371C0 97.2108 0.78898 97.9998 1.76269 97.9998H65.6708C66.6445 97.9998 67.4334 97.2108 67.4334 96.2371V14.8149C67.4342 13.8412 66.6452 13.0522 65.6715 13.0522Z" fill="white"/>
<path d="M33.7174 29.6266C41.8857 29.6266 48.5311 22.9812 48.5311 14.8136C48.5311 6.64534 41.8857 0 33.7174 0C25.5491 0 18.9038 6.64534 18.9038 14.8136C18.9038 22.9812 25.5491 29.6266 33.7174 29.6266ZM33.7174 3.52538C39.9419 3.52538 45.0057 8.58923 45.0057 14.8136C45.0057 21.0381 39.9419 26.1012 33.7174 26.1012C27.493 26.1012 22.4292 21.0373 22.4292 14.8136C22.4292 8.58923 27.493 3.52538 33.7174 3.52538Z" fill="white"/>
<path d="M55.3102 36.8403H12.1243C11.1506 36.8403 10.3616 37.6293 10.3616 38.603C10.3616 39.5767 11.1506 40.3657 12.1243 40.3657H55.3102C56.2839 40.3657 57.0728 39.5767 57.0728 38.603C57.0728 37.6293 56.2839 36.8403 55.3102 36.8403Z" fill="white"/>
<path d="M55.3102 46.7114H12.1243C11.1506 46.7114 10.3616 47.5004 10.3616 48.4741C10.3616 49.4478 11.1506 50.2368 12.1243 50.2368H55.3102C56.2839 50.2368 57.0728 49.4478 57.0728 48.4741C57.0728 47.5004 56.2839 46.7114 55.3102 46.7114Z" fill="white"/>
<path d="M55.3102 56.5825H12.1243C11.1506 56.5825 10.3616 57.3715 10.3616 58.3452C10.3616 59.3189 11.1506 60.1079 12.1243 60.1079H55.3102C56.2839 60.1079 57.0728 59.3189 57.0728 58.3452C57.0728 57.3715 56.2839 56.5825 55.3102 56.5825Z" fill="white"/>
<path d="M55.3102 66.4531H12.1243C11.1506 66.4531 10.3616 67.2421 10.3616 68.2158C10.3616 69.1895 11.1506 69.9785 12.1243 69.9785H55.3102C56.2839 69.9785 57.0728 69.1895 57.0728 68.2158C57.0728 67.2421 56.2839 66.4531 55.3102 66.4531Z" fill="white"/>
<path d="M55.3102 76.3242H12.1243C11.1506 76.3242 10.3616 77.1132 10.3616 78.0869C10.3616 79.0606 11.1506 79.8496 12.1243 79.8496H55.3102C56.2839 79.8496 57.0728 79.0606 57.0728 78.0869C57.0728 77.1132 56.2839 76.3242 55.3102 76.3242Z" fill="white"/>
</svg>
