<svg width="89" height="91" viewBox="0 0 89 91" fill="none" xmlns="http://www.w3.org/2000/svg">
<path d="M1.76807 84.1016H70.2315V89.043H1.76807V84.1016Z" fill="#FF8C00"/>
<path d="M60.3457 16.9205H11.4395C10.0533 16.9205 8.92969 15.7969 8.92969 14.4107C8.92969 13.0245 10.0533 11.9009 11.4395 11.9009H60.3457C61.7318 11.9009 62.8555 13.0245 62.8555 14.4107C62.8555 15.7969 61.7318 16.9205 60.3457 16.9205Z" fill="#FF8C00"/>
<path d="M81.8748 75.8169L71.9976 65.9401C70.7713 64.7138 70.7562 62.7355 71.9521 61.4907C71.9327 61.5092 71.913 61.5281 71.8941 61.5474L69.6464 63.7951C68.405 65.0369 68.405 67.0496 69.6464 68.2914L79.5236 78.1686C80.7654 79.4104 82.7785 79.4104 84.0198 78.1686L86.2675 75.9209C86.283 75.9055 86.298 75.89 86.3127 75.8745C85.067 77.0583 83.0973 77.0394 81.8748 75.8169Z" fill="#FF8C00"/>
<path d="M70.2319 75.5078C69.6385 75.5078 69.1577 75.9886 69.1577 76.582V87.9688H2.84229V2.89062H69.1577V22.8711C69.1577 23.4645 69.6385 23.9453 70.2319 23.9453C70.8253 23.9453 71.3061 23.4645 71.3061 22.8711V1.81641C71.3061 1.22301 70.8253 0.742188 70.2319 0.742188H1.76807C1.17467 0.742188 0.693848 1.22301 0.693848 1.81641V89.043C0.693848 89.6364 1.17467 90.1172 1.76807 90.1172H70.2319C70.8253 90.1172 71.3061 89.6364 71.3061 89.043V76.582C71.3061 75.9886 70.8253 75.5078 70.2319 75.5078Z" fill="white"/>
<path d="M10.4639 68.6182H35.4077C36.0011 68.6182 36.4819 68.1373 36.4819 67.5439C36.4819 66.9505 36.0011 66.4697 35.4077 66.4697H10.4639C9.87047 66.4697 9.38965 66.9505 9.38965 67.5439C9.38965 68.1373 9.87047 68.6182 10.4639 68.6182Z" fill="white"/>
<path d="M36.4819 73.2158C36.4819 72.6224 36.0011 72.1416 35.4077 72.1416H10.4639C9.87047 72.1416 9.38965 72.6224 9.38965 73.2158C9.38965 73.8092 9.87047 74.29 10.4639 74.29H35.4077C36.0011 74.29 36.4819 73.8088 36.4819 73.2158Z" fill="white"/>
<path d="M10.4639 77.8145C9.87047 77.8145 9.38965 78.2953 9.38965 78.8887C9.38965 79.4821 9.87047 79.9629 10.4639 79.9629H22.004C22.5974 79.9629 23.0782 79.4821 23.0782 78.8887C23.0782 78.2953 22.5974 77.8145 22.004 77.8145H10.4639Z" fill="white"/>
<path d="M61.5471 73.2158C61.5471 72.6224 61.0662 72.1416 60.4728 72.1416H39.8259C39.2325 72.1416 38.7517 72.6224 38.7517 73.2158C38.7517 73.8092 39.2325 74.29 39.8259 74.29H60.4728C61.0662 74.29 61.5471 73.8088 61.5471 73.2158Z" fill="white"/>
<path d="M26.3623 79.9629H37.9024C38.4958 79.9629 38.9766 79.4821 38.9766 78.8887C38.9766 78.2953 38.4958 77.8145 37.9024 77.8145H26.3623C25.7689 77.8145 25.2881 78.2953 25.2881 78.8887C25.2881 79.4821 25.7689 79.9629 26.3623 79.9629Z" fill="white"/>
<path d="M42.7622 77.8145C42.1688 77.8145 41.688 78.2953 41.688 78.8887C41.688 79.4821 42.1688 79.9629 42.7622 79.9629H54.3023C54.8957 79.9629 55.3765 79.4821 55.3765 78.8887C55.3765 78.2953 54.8957 77.8145 54.3023 77.8145H42.7622Z" fill="white"/>
<path d="M10.4639 46.8477H22.004C22.5974 46.8477 23.0782 46.3668 23.0782 45.7734C23.0782 45.18 22.5974 44.6992 22.004 44.6992H10.4639C9.87047 44.6992 9.38965 45.18 9.38965 45.7734C9.38965 46.3668 9.87047 46.8477 10.4639 46.8477Z" fill="white"/>
<path d="M10.4639 52.5195H22.004C22.5974 52.5195 23.0782 52.0387 23.0782 51.4453C23.0782 50.8519 22.5974 50.3711 22.004 50.3711H10.4639C9.87047 50.3711 9.38965 50.8519 9.38965 51.4453C9.38965 52.0387 9.87047 52.5195 10.4639 52.5195Z" fill="white"/>
<path d="M10.4639 58.1914H28.2654C28.8588 58.1914 29.3396 57.7106 29.3396 57.1172C29.3396 56.5238 28.8588 56.043 28.2654 56.043H10.4639C9.87047 56.043 9.38965 56.5238 9.38965 57.1172C9.38965 57.7106 9.87047 58.1914 10.4639 58.1914Z" fill="white"/>
<path d="M10.4639 30.749H27.6926C28.286 30.749 28.7668 30.2682 28.7668 29.6748C28.7668 29.0814 28.286 28.6006 27.6926 28.6006H10.4639C9.87047 28.6006 9.38965 29.0814 9.38965 29.6748C9.38965 30.2678 9.87047 30.749 10.4639 30.749Z" fill="white"/>
<path d="M10.4639 36.4209H26.4036C26.997 36.4209 27.4778 35.9401 27.4778 35.3467C27.4778 34.7533 26.997 34.2725 26.4036 34.2725H10.4639C9.87047 34.2725 9.38965 34.7533 9.38965 35.3467C9.38965 35.9401 9.87047 36.4209 10.4639 36.4209Z" fill="white"/>
<path d="M87.0269 70.664L77.1497 60.7872C75.4916 59.1282 72.7927 59.1295 71.1345 60.7872L68.8873 63.0349C68.0838 63.8385 67.6416 64.9062 67.6416 66.0427C67.6416 67.1788 68.0838 68.247 68.8873 69.0501L78.7645 78.9274C79.5938 79.7567 80.6826 80.1713 81.7719 80.1713C82.8611 80.1713 83.9504 79.7567 84.7797 78.9274L87.0274 76.6797C88.6855 75.0206 88.6851 72.3222 87.0269 70.664ZM85.5084 75.1603L83.2607 77.408C82.8628 77.8054 82.3343 78.0246 81.7719 78.0246C81.2094 78.0246 80.6813 77.8059 80.2834 77.408L70.4062 67.5308C70.0088 67.1333 69.7896 66.6048 69.7896 66.0427C69.7896 65.4803 70.0088 64.9518 70.4062 64.5543L72.6535 62.3062C73.0638 61.8958 73.6031 61.6904 74.1419 61.6904C74.6812 61.6904 75.2204 61.8958 75.6308 62.3062L85.508 72.183C86.3287 73.0037 86.3287 74.3396 85.5084 75.1603Z" fill="white"/>
<path d="M51.735 20.5708C39.0171 20.5708 28.6707 30.9177 28.6707 43.6351C28.6707 56.353 39.0171 66.6995 51.735 66.6995C56.4336 66.6995 60.9161 65.3107 64.7588 62.6733L65.552 63.4665C65.9718 63.8863 66.6516 63.8863 67.071 63.4665C67.4908 63.0471 67.4908 62.3669 67.071 61.9476L65.6337 60.5103C65.2564 60.133 64.6596 60.0896 64.2316 60.4088C60.6007 63.1185 56.2794 64.551 51.735 64.551C40.2017 64.551 30.8191 55.1684 30.8191 43.6351C30.8191 32.1019 40.2017 22.7192 51.735 22.7192C63.2682 22.7192 72.6509 32.1019 72.6509 43.6351C72.6509 48.1799 71.2187 52.5009 68.5087 56.1317C68.1899 56.5593 68.2328 57.1565 68.6101 57.5338L70.0474 58.9711C70.4672 59.3909 71.147 59.3909 71.5664 58.9711C71.9857 58.5517 71.9857 57.8715 71.5664 57.4522L70.7731 56.659C73.4101 52.8171 74.7989 48.3346 74.7989 43.6356C74.7993 30.9177 64.4529 20.5708 51.735 20.5708Z" fill="white"/>
<path d="M51.7346 26.2344C42.1396 26.2344 34.3335 34.0405 34.3335 43.6354C34.3335 53.2308 42.1396 61.0369 51.7346 61.0369C61.3295 61.0369 69.1356 53.2308 69.1356 43.6354C69.1356 34.0405 61.3295 26.2344 51.7346 26.2344ZM51.7346 58.8881C43.3243 58.8881 36.4819 52.0457 36.4819 43.635C36.4819 35.2243 43.3243 28.3824 51.7346 28.3824C60.1448 28.3824 66.9872 35.2247 66.9872 43.635C66.9872 52.0453 60.1448 58.8881 51.7346 58.8881Z" fill="white"/>
<path d="M51.4689 39.4678H45.9646C45.134 39.4678 44.4607 38.7945 44.4607 37.9639C44.4607 37.1333 45.134 36.46 45.9646 36.46H51.4689C52.2995 36.46 52.9728 37.1333 52.9728 37.9639C52.9728 38.7945 52.2995 39.4678 51.4689 39.4678Z" fill="#FF8C00"/>
<path d="M57.5051 45.1396H45.9646C45.134 45.1396 44.4607 44.4663 44.4607 43.6357C44.4607 42.8052 45.134 42.1318 45.9646 42.1318H57.5047C58.3353 42.1318 59.0086 42.8052 59.0086 43.6357C59.0086 44.4663 58.3353 45.1396 57.5051 45.1396Z" fill="#FF8C00"/>
<path d="M57.5051 50.8115H45.9646C45.134 50.8115 44.4607 50.1382 44.4607 49.3076C44.4607 48.477 45.134 47.8037 45.9646 47.8037H57.5047C58.3353 47.8037 59.0086 48.477 59.0086 49.3076C59.0091 50.1382 58.3353 50.8115 57.5051 50.8115Z" fill="#FF8C00"/>
</svg>
