<svg width="104" height="71" viewBox="0 0 104 71" fill="none" xmlns="http://www.w3.org/2000/svg">
<path d="M1.76855 61.8359H47.7967V69.3211H1.76855V61.8359Z" fill="#FF8C00"/>
<path d="M56.2029 61.8359H102.231V69.3211H56.2029V61.8359Z" fill="#FF8C00"/>
<path d="M78.1324 15.2052C77.7683 15.2052 77.4215 15.0488 77.1802 14.7756L74.2258 11.4266C73.7622 10.9005 73.8124 10.0986 74.338 9.63448C74.8636 9.17136 75.6659 9.22112 76.1301 9.74671L78.1253 12.0085L82.395 7.0944C82.8545 6.56476 83.6559 6.50839 84.1855 6.96897C84.7147 7.42854 84.771 8.23038 84.311 8.75952L79.0906 14.768C78.8504 15.0442 78.5036 15.2032 78.1375 15.2047C78.1354 15.2052 78.1339 15.2052 78.1324 15.2052Z" fill="#FF8C00"/>
<path d="M102.231 9.40918H93.6942C92.9929 9.40918 92.4246 9.97742 92.4246 10.6787C92.4246 11.38 92.9929 11.9482 93.6942 11.9482H100.961V68.0513H57.4724V11.9482H64.7397C65.441 11.9482 66.0093 11.38 66.0093 10.6787C66.0093 9.97742 65.441 9.40918 64.7397 9.40918H56.2029C55.5016 9.40918 54.9333 9.97742 54.9333 10.6787V69.3209C54.9333 70.0222 55.5016 70.5904 56.2029 70.5904H102.231C102.932 70.5904 103.501 70.0222 103.501 69.3209V10.6787C103.501 9.97742 102.932 9.40918 102.231 9.40918Z" fill="white"/>
<path d="M47.7967 9.40918H1.76855C1.06727 9.40918 0.499023 9.97742 0.499023 10.6787V69.3209C0.499023 70.0222 1.06727 70.5904 1.76855 70.5904H47.7967C48.498 70.5904 49.0662 70.0222 49.0662 69.3209V10.6787C49.0662 9.97742 48.498 9.40918 47.7967 9.40918ZM46.5271 68.0513H3.03809V11.9482H46.5271V68.0513Z" fill="white"/>
<path d="M79.218 21.348C85.1005 21.348 89.8866 16.5619 89.8866 10.6789C89.8866 4.7959 85.1005 0.00976562 79.218 0.00976562C73.335 0.00976562 68.5488 4.7959 68.5488 10.6789C68.5488 16.5619 73.335 21.348 79.218 21.348ZM79.218 2.54883C83.7004 2.54883 87.3475 6.19594 87.3475 10.6789C87.3475 15.1619 83.7004 18.809 79.218 18.809C74.735 18.809 71.0879 15.1619 71.0879 10.6789C71.0879 6.19594 74.735 2.54883 79.218 2.54883Z" fill="white"/>
<path d="M9.23022 29.082H40.3337C41.035 29.082 41.6033 28.5138 41.6033 27.8125C41.6033 27.1112 41.035 26.543 40.3337 26.543H9.23022C8.52894 26.543 7.96069 27.1112 7.96069 27.8125C7.96069 28.5138 8.52894 29.082 9.23022 29.082Z" fill="white"/>
<path d="M9.23022 36.1914H40.3337C41.035 36.1914 41.6033 35.6232 41.6033 34.9219C41.6033 34.2206 41.035 33.6523 40.3337 33.6523H9.23022C8.52894 33.6523 7.96069 34.2206 7.96069 34.9219C7.96069 35.6232 8.52894 36.1914 9.23022 36.1914Z" fill="white"/>
<path d="M9.23022 43.3008H40.3337C41.035 43.3008 41.6033 42.7325 41.6033 42.0312C41.6033 41.33 41.035 40.7617 40.3337 40.7617H9.23022C8.52894 40.7617 7.96069 41.33 7.96069 42.0312C7.96069 42.7325 8.52894 43.3008 9.23022 43.3008Z" fill="white"/>
<path d="M9.23022 50.4102H40.3337C41.035 50.4102 41.6033 49.8419 41.6033 49.1406C41.6033 48.4393 41.035 47.8711 40.3337 47.8711H9.23022C8.52894 47.8711 7.96069 48.4393 7.96069 49.1406C7.96069 49.8419 8.52894 50.4102 9.23022 50.4102Z" fill="white"/>
<path d="M9.23022 57.5195H40.3337C41.035 57.5195 41.6033 56.9513 41.6033 56.25C41.6033 55.5487 41.035 54.9805 40.3337 54.9805H9.23022C8.52894 54.9805 7.96069 55.5487 7.96069 56.25C7.96069 56.9513 8.52894 57.5195 9.23022 57.5195Z" fill="white"/>
<path d="M94.7695 26.543H63.666C62.9647 26.543 62.3965 27.1112 62.3965 27.8125C62.3965 28.5138 62.9647 29.082 63.666 29.082H94.7695C95.4708 29.082 96.0391 28.5138 96.0391 27.8125C96.0391 27.1112 95.4708 26.543 94.7695 26.543Z" fill="white"/>
<path d="M94.7695 40.7617H63.666C62.9647 40.7617 62.3965 41.33 62.3965 42.0312C62.3965 42.7325 62.9647 43.3008 63.666 43.3008H94.7695C95.4708 43.3008 96.0391 42.7325 96.0391 42.0312C96.0391 41.33 95.4708 40.7617 94.7695 40.7617Z" fill="white"/>
<path d="M94.7695 54.9805H63.666C62.9647 54.9805 62.3965 55.5487 62.3965 56.25C62.3965 56.9513 62.9647 57.5195 63.666 57.5195H94.7695C95.4708 57.5195 96.0391 56.9513 96.0391 56.25C96.0391 55.5487 95.4708 54.9805 94.7695 54.9805Z" fill="white"/>
</svg>
