<svg width="72" height="92" viewBox="0 0 72 92" fill="none" xmlns="http://www.w3.org/2000/svg">
<path d="M57.075 71H14.3672C14.0046 71 13.6568 71.144 13.4004 71.4004C13.144 71.6568 13 72.0046 13 72.3672C13 72.7298 13.144 73.0775 13.4004 73.3339C13.6568 73.5903 14.0046 73.7344 14.3672 73.7344H57.075C57.4376 73.7344 57.7853 73.5903 58.0417 73.3339C58.2981 73.0775 58.4422 72.7298 58.4422 72.3672C58.4422 72.0046 58.2981 71.6568 58.0417 71.4004C57.7853 71.144 57.4376 71 57.075 71Z" fill="#FF8C00"/>
<path d="M57.075 78.5371H14.3672C14.0046 78.5371 13.6568 78.6812 13.4004 78.9376C13.144 79.1939 13 79.5417 13 79.9043C13 80.2669 13.144 80.6146 13.4004 80.871C13.6568 81.1274 14.0046 81.2715 14.3672 81.2715H57.075C57.4376 81.2715 57.7853 81.1274 58.0417 80.871C58.2981 80.6146 58.4422 80.2669 58.4422 79.9043C58.4422 79.5417 58.2981 79.1939 58.0417 78.9376C57.7853 78.6812 57.4376 78.5371 57.075 78.5371Z" fill="#FF8C00"/>
<rect x="1.5" y="1.5" width="69" height="89" rx="1.5" stroke="white" stroke-width="3"/>
<path d="M23.4967 16.6455C19.3142 16.6455 15.9233 20.0361 15.9233 24.2186C15.9233 28.4011 19.314 31.792 23.4967 31.792C27.6793 31.792 31.0702 28.4014 31.0702 24.2186C31.0699 20.0364 27.6793 16.6455 23.4967 16.6455ZM23.4967 28.992C20.8608 28.992 18.7236 26.8551 18.7236 24.2189C18.7236 21.583 20.8605 19.4461 23.4967 19.4461C26.1327 19.4461 28.2699 21.583 28.2699 24.2189C28.2699 26.8551 26.1327 28.992 23.4967 28.992Z" fill="#FF8C00"/>
<path d="M57.3925 41.9175C58.3569 41.2949 59.0892 40.3816 59.4799 39.2821C59.9481 37.965 59.8751 36.5439 59.2746 35.2814C58.1349 32.8853 55.3986 31.7582 52.9393 32.5547L50.9703 28.4149C50.3501 27.1114 49.1202 26.2739 47.68 26.1743C46.2401 26.0723 44.9066 26.7352 44.113 27.9413L41.8028 31.4547C39.7905 34.5295 38.7805 36.0728 35.4453 37.6587L29.0119 40.7185L21.1498 44.458C20.3647 44.8315 19.7719 45.4883 19.481 46.3076C19.1897 47.1268 19.2351 48.0103 19.6084 48.7956L19.9636 49.5423L18.4118 50.2806C17.9989 50.4769 17.6869 50.8223 17.5341 51.2535C17.381 51.6844 17.4047 52.149 17.6011 52.5622L19.5726 56.7064C19.7689 57.1196 20.1142 57.4313 20.5452 57.5844C20.7328 57.6511 20.9266 57.6842 21.1199 57.6842C21.3707 57.6842 21.6206 57.6284 21.8541 57.5174L23.4062 56.7791L23.7614 57.5259C24.1349 58.3109 24.7917 58.9035 25.6106 59.1944C25.9669 59.3213 26.3355 59.3842 26.7027 59.3842C27.1799 59.3842 27.6546 59.2778 28.0983 59.067L35.9605 55.3274L42.3939 52.2674C45.729 50.6809 47.5641 50.8715 51.2194 51.2505L55.4019 51.6754C56.8374 51.8214 58.1921 51.2026 59.0233 50.023C59.8548 48.8431 59.9812 47.3603 59.361 46.0565L57.3925 41.9175ZM55.843 33.8866C56.8161 34.2325 57.5962 34.9366 58.0398 35.8693C58.4835 36.8018 58.5374 37.8515 58.1915 38.8247C57.9233 39.5793 57.4396 40.2181 56.8008 40.6736L53.5308 33.7989C54.2876 33.5905 55.0883 33.6184 55.843 33.8866ZM22.8191 55.5446L21.2671 56.2826C21.1547 56.3364 21.054 56.3137 21.0037 56.2962C20.9534 56.2785 20.8613 56.2317 20.808 56.119L18.8365 51.9748C18.7831 51.8624 18.805 51.7613 18.8231 51.711C18.8408 51.6606 18.8876 51.5685 18.9997 51.5152L20.5517 50.7769L22.3862 54.6337L22.8191 55.5446ZM27.5113 57.8324C27.0557 58.049 26.5436 58.0752 26.0686 57.9065C25.5937 57.7378 25.2128 57.3941 24.9962 56.9385L22.92 52.5734L21.4926 49.5721C21.4924 49.5719 21.4924 49.5716 21.4921 49.5713L20.8438 48.2082C20.3967 47.2687 20.7978 46.1399 21.7376 45.6931L28.9821 42.2473L34.756 54.3868L27.5113 57.8324ZM57.906 49.2355C57.3627 50.0066 56.4784 50.4094 55.5397 50.3151L51.3608 49.8907C47.5742 49.4975 45.4884 49.2815 41.8069 51.0326L35.9908 53.7992L30.2169 41.6597L36.033 38.8936C39.7145 37.1427 40.8627 35.3884 42.9471 32.2034L45.2555 28.6927C45.7739 27.9044 46.6442 27.4745 47.586 27.5382C48.5269 27.603 49.3305 28.1505 49.7357 29.0022L51.9768 33.7138V33.7141L55.8853 41.932C55.8853 41.9323 55.8856 41.9323 55.8856 41.9325L58.1264 46.6439C58.5317 47.4956 58.4494 48.4644 57.906 49.2355Z" fill="white"/>
<path d="M37.4885 56.2904C37.2806 55.9754 36.8565 55.8887 36.5415 56.0963C36.2265 56.3044 36.1396 56.7285 36.3477 57.0435L39.6423 62.0362C39.9412 62.4887 40.029 63.0481 39.8832 63.5704C39.7377 64.093 39.3733 64.5261 38.8835 64.759C38.0454 65.1577 37.0272 64.8744 36.5158 64.0995L34.642 61.2599C34.549 61.1188 34.4068 61.0171 34.2433 60.9747L32.2193 60.4491L31.3399 59.1451C31.1289 58.832 30.7039 58.7497 30.3908 58.9608C30.0778 59.1716 29.9952 59.5965 30.2063 59.9099L31.2303 61.428C31.3235 61.5661 31.4638 61.6654 31.6251 61.7072L33.6456 62.2319L35.3748 64.8523C35.9895 65.7836 37.0269 66.3045 38.0895 66.3045C38.5562 66.3045 39.0282 66.2039 39.4706 65.9933C40.318 65.5903 40.9483 64.8408 41.2001 63.9371C41.4519 63.0331 41.3002 62.0657 40.7831 61.2826L37.4885 56.2904Z" fill="white"/>
<path d="M20.1002 37.4366C20.3268 38.3124 21.1171 38.9241 22.0219 38.9241H24.9731C25.8779 38.9241 26.6681 38.3124 26.8948 37.4366L27.6935 34.3506L30.4407 35.9677C31.2203 36.4265 32.2115 36.3005 32.8516 35.6606L34.938 33.574C35.5778 32.9345 35.7041 31.943 35.245 31.1631L33.6277 28.4162L36.7137 27.6172C37.5898 27.3905 38.2014 26.6003 38.2014 25.6955V22.744C38.2014 21.8389 37.5898 21.0489 36.7137 20.8223L33.6277 20.0233L35.245 17.2763C35.7041 16.4965 35.5778 15.5053 34.938 14.8657L32.8514 12.7788C32.2118 12.1387 31.22 12.0127 30.4405 12.4718L27.6935 14.0891L26.8945 11.0029C26.6676 10.127 25.8773 9.51562 24.9728 9.51562H22.0216C21.1171 9.51562 20.3268 10.127 20.0999 11.0029L19.3012 14.0891L16.5539 12.4718C15.7744 12.0129 14.7829 12.1387 14.1433 12.7788L12.0564 14.8657C11.4166 15.5055 11.2903 16.4968 11.7494 17.2763L13.3668 20.0233L10.2807 20.8223C9.40465 21.0489 8.79297 21.8392 8.79297 22.744V25.6952C8.79297 26.6003 9.40465 27.3902 10.2805 27.6166L13.3668 28.4159L11.7491 31.1631C11.2903 31.943 11.4166 32.9345 12.0564 33.5735L14.143 35.6604C14.7826 36.3002 15.7744 36.4265 16.5537 35.9674L19.3009 34.3503L20.1002 37.4366ZM15.8605 34.7895C15.618 34.9322 15.3093 34.8931 15.1099 34.6938L13.023 32.6066C12.824 32.4078 12.7846 32.0994 12.9276 31.8566L14.9527 28.417C14.9617 28.4017 14.971 28.3872 14.9811 28.373C15.1168 28.1813 15.1444 27.9338 15.0547 27.7167C14.965 27.4999 14.77 27.3446 14.5387 27.3046C14.5218 27.3016 14.5048 27.2981 14.487 27.2937L10.6234 26.2935C10.3507 26.2229 10.1604 25.9771 10.1604 25.6952V22.744C10.1604 22.4623 10.3507 22.2163 10.6234 22.1457L14.4876 21.1452C14.5048 21.1408 14.5218 21.1375 14.5387 21.1345C14.77 21.0946 14.965 20.9393 15.0547 20.7225C15.1446 20.5054 15.1168 20.2579 14.9811 20.0662C14.9713 20.052 14.9617 20.0375 14.9524 20.0216L12.9276 16.5826C12.7849 16.3401 12.8243 16.0314 13.0233 15.8323L15.1102 13.7454C15.3093 13.5461 15.618 13.507 15.8605 13.6497L19.3009 15.6754C19.3159 15.6841 19.3304 15.6937 19.3444 15.7032C19.5361 15.8386 19.783 15.8662 19.9995 15.7771C20.2158 15.6877 20.3717 15.4938 20.4121 15.263C20.4154 15.245 20.4193 15.2264 20.4236 15.2091L21.4236 11.3455C21.4941 11.0729 21.7402 10.8825 22.0219 10.8825H24.9731C25.2547 10.8825 25.5008 11.0729 25.5714 11.3455L26.5713 15.208C26.576 15.2264 26.5798 15.245 26.5831 15.263C26.6236 15.4935 26.7789 15.6874 26.9949 15.7768C27.2109 15.8657 27.4578 15.8386 27.6495 15.7043C27.664 15.6942 27.6787 15.6844 27.6954 15.6745L31.1347 13.6497C31.3773 13.5073 31.6857 13.5461 31.885 13.7454L33.9716 15.8323C34.1707 16.0316 34.2101 16.3401 34.0673 16.5826L32.0423 20.0222C32.0332 20.0375 32.0239 20.052 32.0138 20.0662C31.8782 20.2579 31.8506 20.5054 31.9403 20.7225C32.03 20.9393 32.2249 21.0946 32.4563 21.1345C32.4732 21.1375 32.4902 21.1408 32.5079 21.1455L36.3713 22.1457H36.3716C36.6442 22.2163 36.8345 22.4621 36.8345 22.744V25.6952C36.8345 25.9768 36.6442 26.2229 36.3716 26.2935L32.5074 27.294C32.4902 27.2984 32.4735 27.3016 32.4563 27.3046C32.2249 27.3446 32.03 27.4999 31.9403 27.7167C31.8503 27.9338 31.8782 28.1813 32.0138 28.373C32.0237 28.3872 32.0332 28.4017 32.0425 28.4175L34.0671 31.8563C34.2101 32.0994 34.1707 32.4078 33.9716 32.6069L31.885 34.6938C31.686 34.8928 31.3773 34.9322 31.1345 34.7895L27.6976 32.7663C27.6809 32.7564 27.6648 32.7458 27.6492 32.7348C27.4575 32.6006 27.2109 32.5727 26.9946 32.6627C26.7786 32.7518 26.6233 32.9457 26.5828 33.1762C26.5795 33.1942 26.5757 33.2128 26.5713 33.23L25.5711 37.0937C25.5005 37.3666 25.2545 37.5569 24.9728 37.5569H22.0216C21.74 37.5569 21.4939 37.3666 21.4233 37.0937L20.4234 33.2311C20.4187 33.2128 20.4149 33.1942 20.4116 33.1762C20.3711 32.9454 20.2155 32.7515 19.999 32.6621C19.915 32.6277 19.8264 32.6107 19.7381 32.6107C19.5992 32.6107 19.4611 32.6531 19.3438 32.7359C19.3288 32.7463 19.3132 32.7567 19.2993 32.7649L15.8605 34.7895Z" fill="white"/>
<path d="M23.497 29.6778C26.5056 29.6778 28.9534 27.23 28.9534 24.2211C28.9534 21.2125 26.5056 18.7646 23.497 18.7646C20.4884 18.7646 18.0403 21.2125 18.0403 24.2211C18.0403 27.23 20.4881 29.6778 23.497 29.6778ZM23.497 20.1318C25.752 20.1318 27.5863 21.9663 27.5863 24.2211C27.5863 26.4761 25.7518 28.3106 23.497 28.3106C21.2422 28.3106 19.4075 26.4761 19.4075 24.2211C19.4075 21.9663 21.242 20.1318 23.497 20.1318Z" fill="white"/>
<path d="M52.1213 16.1L50.2491 15.6155C50.2318 15.6111 50.2143 15.6073 50.1971 15.6043C50.2072 15.5901 50.2168 15.575 50.2261 15.5597L51.2072 13.8931C51.3529 13.6454 51.313 13.3304 51.1096 13.1272L50.0984 12.1161C49.8952 11.9129 49.5802 11.8727 49.3325 12.0184L47.6659 12.9995C47.6503 13.0086 47.6355 13.0184 47.6213 13.0285C47.6183 13.0113 47.6148 12.9938 47.6101 12.9766L47.1253 11.1043C47.0531 10.8262 46.8021 10.6318 46.5147 10.6318H45.0847C44.7973 10.6318 44.5463 10.8262 44.4741 11.1043L43.9895 12.9766C43.9849 12.9938 43.9813 13.0113 43.9783 13.0285C43.9641 13.0184 43.9491 13.0088 43.9338 12.9995L42.2671 12.0184C42.0194 11.8727 41.7044 11.9126 41.5012 12.1161L40.4901 13.1272C40.2869 13.3304 40.2467 13.6454 40.3925 13.8931L41.3736 15.5597C41.3826 15.5753 41.3924 15.5901 41.4025 15.6043C41.3853 15.6073 41.3678 15.6111 41.3506 15.6155L39.4784 16.1C39.2 16.1722 39.0059 16.4232 39.0059 16.7106V18.1407C39.0059 18.4281 39.2003 18.6791 39.4784 18.7513L41.3506 19.2358C41.3681 19.2405 41.3853 19.244 41.4025 19.247C41.3924 19.2615 41.3829 19.2763 41.3736 19.2919L40.3925 20.9582C40.2467 21.2059 40.2866 21.5209 40.4901 21.7241L41.5012 22.7353C41.7044 22.9384 42.0194 22.9786 42.2671 22.8329L43.9338 21.8518C43.9493 21.8428 43.9641 21.8329 43.9783 21.8228C43.9813 21.84 43.9849 21.8575 43.9895 21.8748L44.4741 23.747C44.546 24.0253 44.7973 24.2195 45.0847 24.2195H46.5147C46.8021 24.2195 47.0531 24.0251 47.1253 23.747L47.6101 21.8748C47.6145 21.8575 47.6183 21.84 47.6213 21.8228C47.6358 21.8329 47.6506 21.8425 47.6659 21.8518L49.3325 22.8329C49.5802 22.9786 49.8952 22.9384 50.0984 22.7353L51.1096 21.7241C51.3127 21.5209 51.3529 21.2059 51.2072 20.9582L50.2261 19.2919C50.2171 19.2763 50.2072 19.2615 50.1971 19.247C50.2143 19.244 50.2318 19.2405 50.2491 19.2358L52.1213 18.7513C52.3997 18.6791 52.5938 18.4281 52.5938 18.1407V16.7106C52.5941 16.423 52.3997 16.1719 52.1213 16.1ZM45.8 19.7384C44.5227 19.7384 43.4872 18.7029 43.4872 17.4257C43.4872 16.1482 44.5227 15.1129 45.8 15.1129C47.0775 15.1129 48.1127 16.1484 48.1127 17.4257C48.113 18.7029 47.0775 19.7384 45.8 19.7384Z" fill="#FF8C00"/>
</svg>
