<svg width="100" height="100" viewBox="0 0 100 100" fill="none" xmlns="http://www.w3.org/2000/svg">
<path d="M9.76562 19.7266C9.40302 19.7266 9.05527 19.8706 8.79888 20.127C8.54248 20.3834 8.39844 20.7311 8.39844 21.0938V33.1039C8.39844 33.4665 8.54248 33.8143 8.79888 34.0707C9.05527 34.3271 9.40302 34.4711 9.76562 34.4711C10.1282 34.4711 10.476 34.3271 10.7324 34.0707C10.9888 33.8143 11.1328 33.4665 11.1328 33.1039V21.0938C11.1328 20.7311 10.9888 20.3834 10.7324 20.127C10.476 19.8706 10.1282 19.7266 9.76562 19.7266Z" fill="#FF8C00"/>
<path d="M94.7578 31.6C90.6094 30.3633 87.9664 28.3062 87.1141 25.6508C86.7951 24.558 86.735 23.406 86.9384 22.2859C87.1418 21.1659 87.6032 20.1085 88.2859 19.1977C88.4663 18.9653 88.5668 18.6809 88.5727 18.3868C88.5786 18.0927 88.4895 17.8046 88.3186 17.5652C88.1477 17.3257 87.9041 17.1478 87.6241 17.0578C87.344 16.9679 87.0424 16.9706 86.7641 17.0656C83.8211 18.0703 79.2219 19.6336 75.975 18.8039V5.07812C75.9751 4.89869 75.9399 4.72098 75.8713 4.55516C75.8027 4.38934 75.7021 4.23866 75.5753 4.1117C75.4485 3.98475 75.298 3.88401 75.1322 3.81525C74.9665 3.74648 74.7888 3.71104 74.6094 3.71094H5.07812C4.71552 3.71094 4.36777 3.85498 4.11138 4.11138C3.85498 4.36777 3.71094 4.71552 3.71094 5.07812V94.9219C3.71094 95.2845 3.85498 95.6322 4.11138 95.8886C4.36777 96.145 4.71552 96.2891 5.07812 96.2891H74.6094C74.7889 96.2892 74.9668 96.2539 75.1327 96.1852C75.2986 96.1165 75.4494 96.0158 75.5764 95.8889C75.7033 95.7619 75.804 95.6111 75.8727 95.4452C75.9414 95.2793 75.9767 95.1014 75.9766 94.9219V48.4039C80.925 47.9148 87.8625 51.8711 89.3281 53.2164C89.5837 53.4496 89.9181 53.5773 90.2641 53.5737C90.61 53.5701 90.9417 53.4354 91.1923 53.1969C91.4429 52.9584 91.5938 52.6337 91.6145 52.2884C91.6352 51.943 91.5242 51.6027 91.3039 51.3359C87.5625 46.8336 86.0344 42.4695 87.1117 39.3625C87.9836 36.8477 90.5203 35.1273 94.6516 34.2477C94.9488 34.1845 95.2165 34.0242 95.4125 33.7919C95.6084 33.5597 95.7214 33.2687 95.7336 32.9651C95.7458 32.6615 95.6565 32.3625 95.4798 32.1152C95.3031 31.868 95.049 31.6867 94.7578 31.6ZM6.44531 93.5547V6.44531H73.2422V17.0102C72.2906 15.7031 71.7969 13.7203 71.7773 11.0938C71.7751 10.8037 71.6807 10.5219 71.5077 10.2891C71.3348 10.0563 71.0923 9.88447 70.8153 9.79854C70.5383 9.71261 70.2411 9.717 69.9667 9.81108C69.6924 9.90515 69.4551 10.084 69.2891 10.3219C66.6367 14.118 63.25 18.4469 60.4609 18.1398C58.5938 17.9383 56.6641 15.5703 54.8742 11.2891C54.7653 11.0288 54.5785 10.8086 54.3395 10.6587C54.1005 10.5088 53.821 10.4366 53.5393 10.4518C53.2575 10.467 52.9874 10.569 52.766 10.7438C52.5445 10.9186 52.3826 11.1577 52.3023 11.4281C50.9641 15.9453 49.2508 18.6281 47.0617 19.6313C44.4617 20.8219 41.1453 19.7875 36.2953 17.6C36.0352 17.4827 35.745 17.4497 35.4652 17.5056C35.1855 17.5616 34.9302 17.7036 34.7352 17.9119C34.5402 18.1201 34.4153 18.3842 34.3779 18.667C34.3404 18.9498 34.3924 19.2373 34.5266 19.4891C36.4641 23.1297 36.8938 26.0312 35.8047 28.1125C33.7984 31.9461 26.932 32.7562 23.6328 33.1453C23.3571 33.1772 23.0976 33.2922 22.8888 33.4751C22.68 33.658 22.5318 33.9002 22.464 34.1693C22.3961 34.4385 22.4118 34.7219 22.509 34.9819C22.6061 35.242 22.7801 35.4663 23.0078 35.625C26.118 37.793 28.9531 40 29.4781 43.1641C29.9336 45.907 28.6969 49.2305 25.6945 53.3203C25.5176 53.5607 25.4243 53.8525 25.4289 54.151C25.4334 54.4494 25.5356 54.7382 25.7198 54.9731C25.9039 55.208 26.16 55.3762 26.4487 55.4519C26.7375 55.5275 27.043 55.5066 27.3187 55.3922C31.9086 53.4969 35.6687 53.4164 38.4953 55.1508C43.1539 58.0102 44.1695 64.8883 44.3906 67.7141C44.4137 68.0086 44.5314 68.2877 44.7264 68.5096C44.9213 68.7316 45.1828 68.8844 45.4719 68.9453C45.5646 68.9646 45.6592 68.9743 45.7539 68.9742C46.0009 68.9741 46.2433 68.9071 46.4553 68.7803C46.6673 68.6534 46.8409 68.4715 46.9578 68.2539C50.5141 61.6344 54.1164 57.9414 57.6609 57.2734C61.4109 56.5703 64.7703 59.4242 67.2188 61.5102C67.8438 62.0445 68.4344 62.5477 68.9758 62.9453C69.1951 63.1064 69.4574 63.1984 69.7293 63.2096C70.0012 63.2207 70.2702 63.1505 70.5019 63.0079C70.7336 62.8652 70.9175 62.6567 71.0301 62.409C71.1426 62.1612 71.1786 61.8855 71.1336 61.6172C70.3781 57.1438 70.1695 51.4898 73.2359 49.3391V93.55L6.44531 93.5547ZM84.5312 38.4664C83.5758 41.225 84.0172 44.482 85.7633 47.9453C82.3547 46.3641 77.9922 45.0547 74.3695 45.9141C74.332 45.9203 74.2969 45.9313 74.2602 45.9406C73.5993 46.1008 72.9612 46.3436 72.3609 46.6633C69.0016 48.4883 67.5445 52.4945 68.0109 58.5969C65.3414 56.3812 61.6258 53.7461 57.1656 54.5906C53.4336 55.2938 49.9375 58.2375 46.5406 63.5633C45.7367 59.9023 43.9414 55.282 39.9328 52.8242C38.0974 51.7113 35.9853 51.1383 33.8391 51.1711C32.5653 51.1802 31.2968 51.336 30.0586 51.6352C31.9273 48.3141 32.6234 45.3742 32.182 42.7172C31.6648 39.6039 29.7297 37.368 27.2984 35.3984C31.232 34.718 36.2047 33.2484 38.2305 29.3828C39.3781 27.1906 39.4242 24.532 38.3742 21.4531C41.8602 22.7977 45.1992 23.4945 48.2039 22.1172C50.5109 21.0602 52.3594 18.8453 53.8086 15.3844C55.7 18.8039 57.7969 20.6023 60.1703 20.8531C63.4891 21.2086 66.5602 18.418 69.4125 14.7719C69.7612 16.9628 70.9394 18.9355 72.7031 20.2812C73.1316 20.583 73.5913 20.8378 74.0742 21.0414L74.093 21.0492C77.2312 22.3773 81.2164 21.6359 84.5289 20.6586C83.9256 22.5515 83.9202 24.5843 84.5133 26.4805C85.132 28.407 86.6523 30.8625 90.2945 32.7539C86.6992 34.3344 85.1687 36.6219 84.5312 38.4664Z" fill="white"/>
<path d="M61.1976 72.8232H18.4897C18.1271 72.8232 17.7794 72.9673 17.523 73.2237C17.2666 73.4801 17.1226 73.8278 17.1226 74.1904C17.1226 74.553 17.2666 74.9008 17.523 75.1572C17.7794 75.4136 18.1271 75.5576 18.4897 75.5576H61.1976C61.5602 75.5576 61.9079 75.4136 62.1643 75.1572C62.4207 74.9008 62.5647 74.553 62.5647 74.1904C62.5647 73.8278 62.4207 73.4801 62.1643 73.2237C61.9079 72.9673 61.5602 72.8232 61.1976 72.8232Z" fill="#FF8C00"/>
<path d="M61.1976 80.3604H18.4897C18.1271 80.3604 17.7794 80.5044 17.523 80.7608C17.2666 81.0172 17.1226 81.3649 17.1226 81.7275C17.1226 82.0901 17.2666 82.4379 17.523 82.6943C17.7794 82.9507 18.1271 83.0947 18.4897 83.0947H61.1976C61.5602 83.0947 61.9079 82.9507 62.1643 82.6943C62.4207 82.4379 62.5647 82.0901 62.5647 81.7275C62.5647 81.3649 62.4207 81.0172 62.1643 80.7608C61.9079 80.5044 61.5602 80.3604 61.1976 80.3604Z" fill="#FF8C00"/>
</svg>
