<svg width="100" height="100" viewBox="0 0 100 100" fill="none" xmlns="http://www.w3.org/2000/svg">
<path d="M65.625 28.125C65.2106 28.125 64.8132 28.2896 64.5201 28.5826C64.2271 28.8757 64.0625 29.2731 64.0625 29.6875V50C64.0625 50.4144 64.2271 50.8118 64.5201 51.1049C64.8132 51.3979 65.2106 51.5625 65.625 51.5625C66.0394 51.5625 66.4368 51.3979 66.7299 51.1049C67.0229 50.8118 67.1875 50.4144 67.1875 50V29.6875C67.1875 29.2731 67.0229 28.8757 66.7299 28.5826C66.4368 28.2896 66.0394 28.125 65.625 28.125Z" fill="#FF8C00"/>
<path d="M65.625 53.125C65.2106 53.125 64.8132 53.2896 64.5201 53.5826C64.2271 53.8757 64.0625 54.2731 64.0625 54.6875V56.25C64.0625 56.6644 64.2271 57.0618 64.5201 57.3549C64.8132 57.6479 65.2106 57.8125 65.625 57.8125C66.0394 57.8125 66.4368 57.6479 66.7299 57.3549C67.0229 57.0618 67.1875 56.6644 67.1875 56.25V54.6875C67.1875 54.2731 67.0229 53.8757 66.7299 53.5826C66.4368 53.2896 66.0394 53.125 65.625 53.125Z" fill="#FF8C00"/>
<path d="M96.875 4.6875H3.125C2.7106 4.6875 2.31317 4.85212 2.02015 5.14515C1.72712 5.43817 1.5625 5.8356 1.5625 6.25V75C1.5625 75.4144 1.72712 75.8118 2.02015 76.1049C2.31317 76.3979 2.7106 76.5625 3.125 76.5625H59.375V89.0625C59.375 90.7201 60.0335 92.3098 61.2056 93.4819C62.3777 94.654 63.9674 95.3125 65.625 95.3125C67.2826 95.3125 68.8723 94.654 70.0444 93.4819C71.2165 92.3098 71.875 90.7201 71.875 89.0625V76.5625H81.25C81.6645 76.5627 82.0621 76.3983 82.3555 76.1055L97.9805 60.4805C98.2733 60.1871 98.4377 59.7895 98.4375 59.375V6.25C98.4375 5.8356 98.2729 5.43817 97.9799 5.14515C97.6868 4.85212 97.2894 4.6875 96.875 4.6875ZM68.75 89.0625C68.75 89.8913 68.4208 90.6862 67.8347 91.2722C67.2487 91.8583 66.4538 92.1875 65.625 92.1875C64.7962 92.1875 64.0013 91.8583 63.4153 91.2722C62.8292 90.6862 62.5 89.8913 62.5 89.0625V85.9375H68.75V89.0625ZM68.75 82.8125H62.5V81.25H68.75V82.8125ZM68.75 78.125H62.5V26.5625H68.75V78.125ZM68.75 23.4375H62.5V22.2441L62.6836 21.875H68.5664L68.75 22.2441V23.4375ZM64.2461 18.75L65.625 15.9941L67.0039 18.75H64.2461ZM82.8125 71.2285V60.9375H93.1035L82.8125 71.2285ZM95.3125 57.8125H81.25C80.8356 57.8125 80.4382 57.9771 80.1451 58.2701C79.8521 58.5632 79.6875 58.9606 79.6875 59.375V73.4375H71.875V21.875C71.8748 21.6324 71.8186 21.3931 71.7109 21.1758L67.0234 11.8008C66.8934 11.5413 66.6937 11.3231 66.4467 11.1707C66.1998 11.0182 65.9152 10.9374 65.625 10.9374C65.3348 10.9374 65.0502 11.0182 64.8033 11.1707C64.5563 11.3231 64.3566 11.5413 64.2266 11.8008L59.5391 21.1758C59.4314 21.3931 59.3752 21.6324 59.375 21.875V73.4375H4.6875V7.8125H95.3125V57.8125Z" fill="white"/>
<path d="M9.375 14.0625H23.4375C23.8519 14.0625 24.2493 13.8979 24.5424 13.6049C24.8354 13.3118 25 12.9144 25 12.5C25 12.0856 24.8354 11.6882 24.5424 11.3951C24.2493 11.1021 23.8519 10.9375 23.4375 10.9375H9.375C8.9606 10.9375 8.56317 11.1021 8.27015 11.3951C7.97712 11.6882 7.8125 12.0856 7.8125 12.5C7.8125 12.9144 7.97712 13.3118 8.27015 13.6049C8.56317 13.8979 8.9606 14.0625 9.375 14.0625Z" fill="#FF8C00"/>
<path d="M15.625 17.1875C15.625 16.7731 15.4604 16.3757 15.1674 16.0826C14.8743 15.7896 14.4769 15.625 14.0625 15.625H9.375C8.9606 15.625 8.56317 15.7896 8.27015 16.0826C7.97712 16.3757 7.8125 16.7731 7.8125 17.1875C7.8125 17.6019 7.97712 17.9993 8.27015 18.2924C8.56317 18.5854 8.9606 18.75 9.375 18.75H14.0625C14.4769 18.75 14.8743 18.5854 15.1674 18.2924C15.4604 17.9993 15.625 17.6019 15.625 17.1875Z" fill="#FF8C00"/>
<path d="M56.25 17.1875C50.8647 17.1936 45.7016 19.3356 41.8936 23.1436C38.0856 26.9516 35.9436 32.1147 35.9375 37.5C35.9375 37.9144 36.1021 38.3118 36.3951 38.6049C36.6882 38.8979 37.0856 39.0625 37.5 39.0625C37.9144 39.0625 38.3118 38.8979 38.6049 38.6049C38.8979 38.3118 39.0625 37.9144 39.0625 37.5C39.0677 32.9432 40.8801 28.5745 44.1023 25.3523C47.3245 22.1301 51.6932 20.3177 56.25 20.3125C56.6644 20.3125 57.0618 20.1479 57.3549 19.8549C57.6479 19.5618 57.8125 19.1644 57.8125 18.75C57.8125 18.3356 57.6479 17.9382 57.3549 17.6451C57.0618 17.3521 56.6644 17.1875 56.25 17.1875Z" fill="white"/>
<path d="M46.875 35.9375C46.4606 35.9375 46.0632 36.1021 45.7701 36.3951C45.4771 36.6882 45.3125 37.0856 45.3125 37.5C45.3078 41.6426 43.6601 45.6141 40.7308 48.5433C37.8016 51.4726 33.8301 53.1203 29.6875 53.125C29.2731 53.125 28.8757 53.2896 28.5826 53.5826C28.2896 53.8757 28.125 54.2731 28.125 54.6875C28.125 55.1019 28.2896 55.4993 28.5826 55.7924C28.8757 56.0854 29.2731 56.25 29.6875 56.25C34.6586 56.2444 39.4245 54.2672 42.9396 50.7521C46.4547 47.237 48.4319 42.4711 48.4375 37.5C48.4375 37.0856 48.2729 36.6882 47.9799 36.3951C47.6868 36.1021 47.2894 35.9375 46.875 35.9375Z" fill="white"/>
<path d="M89.0625 37.5C89.0625 37.9144 89.2271 38.3118 89.5201 38.6049C89.8132 38.8979 90.2106 39.0625 90.625 39.0625C91.0394 39.0625 91.4368 38.8979 91.7299 38.6049C92.0229 38.3118 92.1875 37.9144 92.1875 37.5C92.1828 33.3574 90.5351 29.3859 87.6058 26.4567C84.6766 23.5274 80.7051 21.8797 76.5625 21.875C76.1481 21.875 75.7507 22.0396 75.4576 22.3326C75.1646 22.6257 75 23.0231 75 23.4375C75 23.8519 75.1646 24.2493 75.4576 24.5424C75.7507 24.8354 76.1481 25 76.5625 25C79.8766 25.0037 83.0538 26.3219 85.3972 28.6653C87.7406 31.0087 89.0588 34.1859 89.0625 37.5Z" fill="white"/>
<path d="M32.8125 42.1875C32.8125 40.3333 32.2627 38.5207 31.2325 36.979C30.2024 35.4373 28.7382 34.2357 27.0252 33.5261C25.3121 32.8166 23.4271 32.6309 21.6085 32.9926C19.79 33.3544 18.1195 34.2473 16.8084 35.5584C15.4973 36.8695 14.6044 38.54 14.2426 40.3585C13.8809 42.1771 14.0666 44.0621 14.7761 45.7752C15.4857 47.4882 16.6873 48.9524 18.229 49.9825C19.7707 51.0127 21.5833 51.5625 23.4375 51.5625C25.9231 51.5598 28.306 50.5712 30.0636 48.8136C31.8212 47.056 32.8098 44.6731 32.8125 42.1875ZM23.4375 48.4375C22.2014 48.4375 20.993 48.0709 19.9652 47.3842C18.9374 46.6974 18.1363 45.7213 17.6633 44.5793C17.1902 43.4372 17.0664 42.1806 17.3076 40.9682C17.5488 39.7558 18.144 38.6422 19.0181 37.7681C19.8922 36.894 21.0058 36.2988 22.2182 36.0576C23.4306 35.8164 24.6872 35.9402 25.8293 36.4133C26.9713 36.8863 27.9474 37.6874 28.6342 38.7152C29.3209 39.743 29.6875 40.9514 29.6875 42.1875C29.6856 43.8445 29.0266 45.4332 27.8549 46.6049C26.6832 47.7766 25.0945 48.4356 23.4375 48.4375Z" fill="white"/>
<path d="M51.5625 56.25C50.6354 56.25 49.7291 56.5249 48.9583 57.04C48.1874 57.5551 47.5866 58.2871 47.2318 59.1437C46.877 60.0002 46.7842 60.9427 46.9651 61.852C47.1459 62.7613 47.5924 63.5965 48.2479 64.2521C48.9035 64.9076 49.7387 65.3541 50.648 65.5349C51.5573 65.7158 52.4998 65.623 53.3563 65.2682C54.2129 64.9134 54.945 64.3126 55.46 63.5417C55.9751 62.7709 56.25 61.8646 56.25 60.9375C56.2486 59.6947 55.7542 58.5033 54.8755 57.6245C53.9967 56.7458 52.8053 56.2514 51.5625 56.25ZM51.5625 62.5C51.2535 62.5 50.9514 62.4084 50.6944 62.2367C50.4375 62.065 50.2372 61.821 50.1189 61.5354C50.0007 61.2499 49.9697 60.9358 50.03 60.6327C50.0903 60.3296 50.2391 60.0512 50.4577 59.8326C50.6762 59.6141 50.9546 59.4653 51.2577 59.405C51.5608 59.3447 51.8749 59.3757 52.1604 59.4939C52.446 59.6122 52.69 59.8125 52.8617 60.0694C53.0334 60.3264 53.125 60.6285 53.125 60.9375C53.1245 61.3518 52.9598 61.7489 52.6669 62.0418C52.3739 62.3348 51.9768 62.4995 51.5625 62.5Z" fill="#FF8C00"/>
<path d="M84.375 21.875C85.3021 21.875 86.2084 21.6001 86.9792 21.085C87.7501 20.5699 88.3509 19.8379 88.7057 18.9813C89.0605 18.1248 89.1533 17.1823 88.9724 16.273C88.7916 15.3637 88.3451 14.5285 87.6896 13.8729C87.034 13.2174 86.1988 12.7709 85.2895 12.5901C84.3802 12.4092 83.4377 12.502 82.5812 12.8568C81.7246 13.2116 80.9926 13.8124 80.4775 14.5833C79.9624 15.3541 79.6875 16.2604 79.6875 17.1875C79.6889 18.4303 80.1833 19.6217 81.062 20.5005C81.9408 21.3792 83.1322 21.8736 84.375 21.875ZM84.375 15.625C84.684 15.625 84.9861 15.7166 85.2431 15.8883C85.5 16.06 85.7003 16.304 85.8186 16.5896C85.9368 16.8751 85.9678 17.1892 85.9075 17.4923C85.8472 17.7954 85.6984 18.0738 85.4799 18.2924C85.2613 18.5109 84.9829 18.6597 84.6798 18.72C84.3767 18.7803 84.0626 18.7493 83.7771 18.6311C83.4916 18.5128 83.2475 18.3125 83.0758 18.0556C82.9041 17.7986 82.8125 17.4965 82.8125 17.1875C82.813 16.7732 82.9777 16.3761 83.2707 16.0832C83.5636 15.7902 83.9607 15.6255 84.375 15.625Z" fill="#FF8C00"/>
</svg>
