<svg width="103" height="93" viewBox="0 0 103 93" fill="none" xmlns="http://www.w3.org/2000/svg">
<path d="M1.91675 82.4692H62.1647V91.0628H1.91675V82.4692Z" fill="#FF8C00"/>
<path d="M30.6212 19.7377C30.2851 19.7377 29.9649 19.5933 29.7427 19.3411L25.8746 14.9579C25.4461 14.4727 25.4925 13.7321 25.9782 13.3036C26.4638 12.8761 27.2044 12.9226 27.6319 13.4072L30.6141 16.7874L36.5696 9.93333C36.9938 9.44443 37.7344 9.3924 38.2229 9.81755C38.7113 10.2418 38.7634 10.9819 38.3387 11.4704L31.5057 19.3341C31.284 19.5891 30.9633 19.7358 30.6254 19.7372C30.624 19.7377 30.6226 19.7377 30.6212 19.7377Z" fill="#FF8C00"/>
<path d="M95.045 80.6183L84.2699 69.8437C82.9321 68.5058 82.9157 66.3477 84.2202 64.9897C84.1986 65.0099 84.1775 65.0305 84.1569 65.0516L81.7049 67.5037C80.3507 68.8579 80.3507 71.054 81.7049 72.4087L92.48 83.1838C93.8347 84.5385 96.0308 84.5385 97.385 83.1838L99.8371 80.7318C99.854 80.7149 99.8699 80.698 99.8863 80.6812C98.5274 81.9726 96.3786 81.9519 95.045 80.6183Z" fill="#FF8C00"/>
<path d="M73.4933 44.0454C71.3947 46.0667 67.318 49.2856 62.6319 49.2856C57.9458 49.2856 53.8686 46.0667 51.7705 44.0454C50.81 44.9703 50.2639 45.6448 50.2639 45.6448C50.2639 45.6448 55.8013 52.4843 62.6319 52.4843C69.4625 52.4843 74.9999 45.6448 74.9999 45.6448C74.9999 45.6448 74.4533 44.9703 73.4933 44.0454Z" fill="#FF8C00"/>
<path d="M62.6322 46.6575C61.0858 46.6575 59.7677 45.6914 59.2399 44.3311C59.0815 44.7393 58.9915 45.1814 58.9915 45.6454C58.9915 47.6559 60.6213 49.2862 62.6322 49.2862C64.6432 49.2862 66.273 47.6564 66.273 45.6454C66.273 45.1814 66.183 44.7389 66.0246 44.3311C65.4968 45.6914 64.1786 46.6575 62.6322 46.6575Z" fill="#FF8C00"/>
<path d="M62.1647 72.477C61.5174 72.477 60.9929 73.0015 60.9929 73.6488V89.8906H3.08862V15.4751H13.0903C13.7377 15.4751 14.2622 14.9506 14.2622 14.3032C14.2622 13.6559 13.7377 13.1313 13.0903 13.1313H1.91675C1.2694 13.1313 0.744873 13.6559 0.744873 14.3032V91.0624C0.744873 91.7098 1.2694 92.2343 1.91675 92.2343H62.1647C62.8121 92.2343 63.3366 91.7098 63.3366 91.0624V73.6488C63.3366 73.0015 62.8121 72.477 62.1647 72.477Z" fill="white"/>
<path d="M50.9915 15.4751H60.9932V17.7813C60.9932 18.4287 61.5177 18.9532 62.1651 18.9532C62.8124 18.9532 63.3369 18.4287 63.3369 17.7813V14.3032C63.3369 13.6559 62.8124 13.1313 62.1651 13.1313H50.9915C50.3441 13.1313 49.8196 13.6559 49.8196 14.3032C49.8196 14.9506 50.3441 15.4751 50.9915 15.4751Z" fill="white"/>
<path d="M32.0408 27.778C39.471 27.778 45.516 21.733 45.516 14.3033C45.516 6.87266 39.4715 0.828125 32.0408 0.828125C24.6107 0.828125 18.5657 6.87313 18.5657 14.3033C18.5657 21.7334 24.6107 27.778 32.0408 27.778ZM32.0408 3.17187C38.1786 3.17187 43.1722 8.16547 43.1722 14.3033C43.1722 20.4411 38.1786 25.4342 32.0408 25.4342C25.903 25.4342 20.9094 20.4411 20.9094 14.3033C20.9094 8.16547 25.903 3.17187 32.0408 3.17187Z" fill="white"/>
<path d="M11.6851 37.9019H33.2724C33.9197 37.9019 34.4443 37.3773 34.4443 36.73C34.4443 36.0826 33.9197 35.5581 33.2724 35.5581H11.6851C11.0377 35.5581 10.5132 36.0826 10.5132 36.73C10.5132 37.3773 11.0377 37.9019 11.6851 37.9019Z" fill="white"/>
<path d="M11.6851 47.2075H31.6355C32.2829 47.2075 32.8074 46.683 32.8074 46.0356C32.8074 45.3883 32.2829 44.8638 31.6355 44.8638H11.6851C11.0377 44.8638 10.5132 45.3883 10.5132 46.0356C10.5132 46.683 11.0377 47.2075 11.6851 47.2075Z" fill="white"/>
<path d="M34.1185 54.1704H11.6851C11.0377 54.1704 10.5132 54.6949 10.5132 55.3423C10.5132 55.9896 11.0377 56.5142 11.6851 56.5142H34.118C34.7654 56.5142 35.2899 55.9896 35.2899 55.3423C35.2899 54.6949 34.7654 54.1704 34.1185 54.1704Z" fill="white"/>
<path d="M39.9024 63.4756H11.6851C11.0377 63.4756 10.5132 64.0001 10.5132 64.6475C10.5132 65.2948 11.0377 65.8193 11.6851 65.8193H39.9024C40.5497 65.8193 41.0743 65.2948 41.0743 64.6475C41.0743 64.0001 40.5497 63.4756 39.9024 63.4756Z" fill="white"/>
<path d="M10.5132 73.9531C10.5132 74.6005 11.0377 75.125 11.6851 75.125H52.3974C53.0448 75.125 53.5693 74.6005 53.5693 73.9531C53.5693 73.3058 53.0448 72.7812 52.3974 72.7812H11.6851C11.0377 72.7812 10.5132 73.3058 10.5132 73.9531Z" fill="white"/>
<path d="M100.665 74.9983L89.8901 64.2231C88.0812 62.4142 85.1374 62.4147 83.3276 64.2236L80.8756 66.6756C79.0671 68.4845 79.0671 71.4288 80.876 73.2377L91.6512 84.0124C92.5278 84.8889 93.6926 85.3713 94.9324 85.3713C96.1723 85.3713 97.3371 84.8885 98.2132 84.0119L100.665 81.5603C102.475 79.7505 102.475 76.8067 100.665 74.9983ZM99.0082 79.9028L96.5562 82.3544C96.1226 82.7885 95.5456 83.0275 94.9324 83.0275C94.3188 83.0275 93.7423 82.7885 93.3087 82.3549L82.5335 71.5802C81.6382 70.6849 81.6377 69.2275 82.5331 68.3322L84.9851 65.8797C85.4192 65.4456 85.9957 65.2066 86.6093 65.2066C87.2229 65.2066 87.7995 65.4456 88.2331 65.8792L99.0082 76.6544C99.9035 77.5506 99.9035 79.0071 99.0082 79.9028Z" fill="white"/>
<path d="M62.1649 26.5288C51.6977 26.5288 43.1819 35.0446 43.1819 45.5118C43.1819 55.9794 51.6977 64.4952 62.1649 64.4952C72.6325 64.4952 81.1483 55.9794 81.1483 45.5118C81.1483 35.0446 72.6325 26.5288 62.1649 26.5288ZM62.1649 62.1515C52.99 62.1515 45.5256 54.6866 45.5256 45.5118C45.5256 36.3369 52.99 28.8726 62.1649 28.8726C71.3397 28.8726 78.8046 36.3369 78.8046 45.5118C78.8046 54.6871 71.3397 62.1515 62.1649 62.1515Z" fill="white"/>
<path d="M77.3267 63.9209C76.9151 63.5088 76.2631 63.4615 75.7971 63.8102C71.8362 66.7667 67.122 68.3295 62.1645 68.3295C49.5828 68.3295 39.3471 58.0934 39.3471 45.5117C39.3471 32.93 49.5828 22.6943 62.1645 22.6943C74.7462 22.6943 84.9818 32.93 84.9818 45.5117C84.9818 50.4692 83.419 55.1834 80.4631 59.1443C80.1148 59.6107 80.1617 60.2623 80.5732 60.6738L82.1407 62.2423C82.5982 62.7002 83.3403 62.6998 83.7982 62.2428C84.2557 61.7848 84.2557 61.0427 83.7982 60.5852L82.9329 59.7195C85.8096 55.5279 87.3251 50.6374 87.3251 45.5117C87.3251 31.6376 76.0376 20.3506 62.164 20.3506C48.29 20.3506 37.0029 31.6376 37.0029 45.5117C37.0029 59.3857 48.2904 70.6732 62.164 70.6732C67.2898 70.6732 72.1798 69.1582 76.3713 66.281L77.2367 67.1468C77.6942 67.6043 78.4362 67.6048 78.8942 67.1468C79.3521 66.6893 79.3521 65.9473 78.8946 65.4898L77.3267 63.9209Z" fill="white"/>
<path d="M75.9107 44.9073C75.6703 44.6102 69.9379 37.6328 62.632 37.6328C55.3261 37.6328 49.5937 44.6102 49.3533 44.9073C49.005 45.3372 49.005 45.9522 49.3533 46.382C49.5937 46.6792 55.3265 53.6561 62.632 53.6561C69.9375 53.6561 75.6703 46.6792 75.9107 46.382C76.2585 45.9527 76.2585 45.3372 75.9107 44.9073ZM62.632 51.3123C57.734 51.3123 53.4342 47.327 51.8362 45.6433C53.4309 43.9581 57.719 39.9766 62.632 39.9766C67.5295 39.9766 71.8293 43.9614 73.4278 45.6461C71.8331 47.3312 67.5445 51.3123 62.632 51.3123Z" fill="white"/>
<path d="M62.6315 40.833C59.9779 40.833 57.8188 42.9916 57.8188 45.6457C57.8188 48.2993 59.9774 50.4583 62.6315 50.4583C65.2851 50.4583 67.4442 48.2993 67.4442 45.6457C67.4437 42.9916 65.2851 40.833 62.6315 40.833ZM62.6315 48.1141C61.2703 48.1141 60.1626 47.0069 60.1626 45.6452C60.1626 44.2839 61.2703 43.1763 62.6315 43.1763C63.9927 43.1763 65.1004 44.2835 65.1004 45.6452C65.0999 47.0069 63.9927 48.1141 62.6315 48.1141Z" fill="white"/>
</svg>
