<svg width="20" height="20" viewBox="0 0 20 20" fill="none" xmlns="http://www.w3.org/2000/svg">
<path d="M14.7932 4.13943C13.8999 4.13943 13.181 3.39869 13.181 2.52723V0H3.26811C2.9631 0 2.70166 0.261438 2.70166 0.566449V19.4336C2.70166 19.7386 2.9631 20 3.26811 20H16.7539C17.059 20 17.2986 19.7386 17.2986 19.4336V4.13943H14.7932Z" fill="#044C5A"/>
<path d="M4.66553 11.9565V8.40183H5.75928C6.07178 8.40183 6.35091 8.47263 6.59668 8.61423C6.84408 8.75421 7.03695 8.9544 7.17529 9.21482C7.31364 9.47361 7.38281 9.76821 7.38281 10.0986V10.2622C7.38281 10.5926 7.31445 10.8864 7.17773 11.1435C7.04264 11.4007 6.8514 11.6001 6.604 11.7417C6.35661 11.8833 6.07747 11.9549 5.7666 11.9565H4.66553ZM5.39795 8.99509V11.3681H5.75195C6.03841 11.3681 6.25732 11.2746 6.40869 11.0874C6.56006 10.9002 6.63737 10.6325 6.64062 10.2842V10.0962C6.64062 9.73484 6.56576 9.4614 6.41602 9.27586C6.26628 9.08868 6.04736 8.99509 5.75928 8.99509H5.39795ZM10.8374 10.2597C10.8374 10.6097 10.7756 10.9165 10.6519 11.1802C10.5282 11.4438 10.3507 11.6473 10.1196 11.7905C9.89014 11.9337 9.62646 12.0053 9.32861 12.0053C9.03402 12.0053 8.77116 11.9345 8.54004 11.7929C8.30892 11.6513 8.12988 11.4495 8.00293 11.1875C7.87598 10.9238 7.81169 10.6211 7.81006 10.2793V10.1035C7.81006 9.75356 7.87272 9.44594 7.99805 9.18064C8.125 8.91371 8.30322 8.70945 8.53271 8.56785C8.76383 8.42462 9.02751 8.353 9.32373 8.353C9.61995 8.353 9.88281 8.42462 10.1123 8.56785C10.3434 8.70945 10.5216 8.91371 10.647 9.18064C10.7739 9.44594 10.8374 9.75274 10.8374 10.1011V10.2597ZM10.0952 10.0986C10.0952 9.72589 10.0285 9.44269 9.89502 9.249C9.76156 9.05532 9.57113 8.95847 9.32373 8.95847C9.07796 8.95847 8.88835 9.0545 8.75488 9.24656C8.62142 9.43699 8.55387 9.71694 8.55225 10.0864V10.2597C8.55225 10.6227 8.61898 10.9043 8.75244 11.1045C8.8859 11.3047 9.07796 11.4048 9.32861 11.4048C9.57438 11.4048 9.76318 11.3087 9.89502 11.1167C10.0269 10.923 10.0936 10.6414 10.0952 10.2719V10.0986ZM14.1602 10.7724C14.1325 11.1549 13.9909 11.456 13.7354 11.6758C13.4814 11.8955 13.1462 12.0053 12.7295 12.0053C12.2738 12.0053 11.9149 11.8524 11.6528 11.5464C11.3924 11.2387 11.2622 10.8172 11.2622 10.2817V10.0644C11.2622 9.72263 11.3224 9.42153 11.4429 9.16111C11.5633 8.90069 11.735 8.70131 11.958 8.56297C12.1826 8.42299 12.443 8.353 12.7393 8.353C13.1494 8.353 13.4798 8.46287 13.7305 8.68259C13.9811 8.90232 14.126 9.21075 14.165 9.60789H13.4326C13.4147 9.3784 13.3504 9.21238 13.2397 9.10984C13.1307 9.00567 12.9639 8.95359 12.7393 8.95359C12.4951 8.95359 12.312 9.04148 12.1899 9.21726C12.0695 9.39142 12.0076 9.66241 12.0044 10.0303V10.2988C12.0044 10.6829 12.0622 10.9637 12.1777 11.1411C12.2949 11.3185 12.4788 11.4072 12.7295 11.4072C12.9557 11.4072 13.1242 11.3559 13.2349 11.2534C13.3472 11.1492 13.4115 10.9889 13.4277 10.7724H14.1602Z" fill="white"/>
<path d="M14.7931 3.18082H16.6231L14.1177 0.675369V2.50544C14.1177 2.89759 14.4227 3.18082 14.7931 3.18082Z" fill="#044C5A"/>
</svg>
