<svg width="20" height="20" viewBox="0 0 20 20" fill="none" xmlns="http://www.w3.org/2000/svg">
<path d="M8.29142 15.2437L5.93466 17.6004C4.9576 18.5775 3.37532 18.5775 2.39908 17.6006C1.42264 16.6242 1.42264 15.0418 2.39889 14.0656L7.11322 9.35145C8.08946 8.3752 9.67189 8.3752 10.6481 9.35145C10.9736 9.67688 11.5013 9.67688 11.8267 9.35145C12.1521 9.02602 12.1521 8.49837 11.8267 8.17294C10.1995 6.54583 7.56183 6.54583 5.93466 8.17294L1.22037 12.8871C-0.40679 14.5142 -0.40679 17.1518 1.22037 18.7789C2.84734 20.4069 5.48524 20.4069 7.11326 18.7789L9.47001 16.4222C9.79545 16.0968 9.79545 15.5691 9.47001 15.2437C9.14457 14.9183 8.61686 14.9183 8.29142 15.2437Z" fill="#044C5A"/>
<path />
<path d="M18.7798 1.22033C17.1526 -0.406777 14.514 -0.406777 12.8869 1.22033L10.0593 4.04782C9.73385 4.37325 9.73385 4.90091 10.0593 5.22634C10.3847 5.55177 10.9124 5.55177 11.2378 5.22634L14.0654 2.39884C15.0417 1.42259 16.6249 1.42259 17.6012 2.39884C18.5775 3.37505 18.5775 4.95743 17.6012 5.93364L12.416 11.1187C11.4398 12.0949 9.85737 12.0949 8.88113 11.1187C8.55569 10.7932 8.02802 10.7932 7.70258 11.1187C7.37714 11.4441 7.37714 11.9718 7.70258 12.2972C9.32974 13.9243 11.9674 13.9243 13.5946 12.2972L18.7798 7.11219C20.4069 5.48509 20.4069 2.84744 18.7798 1.22033Z" fill="#044C5A"/>
</svg>
