<svg width="20" height="20" viewBox="0 0 20 20" fill="none" xmlns="http://www.w3.org/2000/svg">
<path d="M14.7932 4.13943C13.8999 4.13943 13.181 3.39869 13.181 2.52723V0H3.26811C2.9631 0 2.70166 0.261438 2.70166 0.566449V19.4335C2.70166 19.7386 2.9631 20 3.26811 20H16.7539C17.059 20 17.2986 19.7386 17.2986 19.4335V4.13943H14.7932ZM7.40754 10.0871C7.16789 10.305 6.81931 10.3922 6.31822 10.3922H5.59926V11.5033C5.59926 12.1569 4.81495 12.1569 4.81495 11.5033V8.49673C4.81495 8.14815 4.96745 8.01743 5.31604 8.01743C5.75177 8.01743 6.6668 7.99564 7.01538 8.08279C7.97399 8.34423 7.97399 9.62963 7.40754 10.0871ZM11.7213 10.5882C11.5905 11.2636 11.1548 11.7647 10.4576 11.8736L8.95438 11.9172C8.54044 11.9172 8.45329 11.7429 8.45329 11.3508V8.49673C8.45329 8.14815 8.6058 8.01743 8.9326 8.01743C9.4119 8.01743 10.2398 7.97386 10.6537 8.08279C11.6559 8.34423 11.9391 9.60784 11.7213 10.5882ZM15.0764 8.54031C15.011 8.60566 14.9239 8.62745 14.7932 8.62745H13.2463V9.62963H14.5535C15.0328 9.62963 15.0328 10.2179 14.5535 10.2179H13.2463V11.5033C13.2463 12.0697 12.7452 12.0697 12.5709 11.8736C12.5056 11.7865 12.462 11.6558 12.462 11.5033V8.49673C12.462 8.14815 12.6145 8.01743 12.9413 8.01743H14.7932C15.2289 8.01743 15.2289 8.40959 15.0764 8.54031Z" fill="#044C5A"/>
<path d="M6.14378 8.60565H5.62091V9.80391H5.59912C6.16557 9.80391 6.99346 9.91284 6.99346 9.19389C6.99346 8.71458 6.66666 8.60565 6.14378 8.60565Z" fill="#044C5A"/>
<path d="M9.76067 8.67102H9.23779V11.3072C9.56459 11.3072 10.1092 11.329 10.3707 11.2418C11.1114 10.9804 11.0678 9.54248 10.8064 9.10675C10.5668 8.71459 10.2182 8.67102 9.76067 8.67102Z" fill="#044C5A"/>
<path d="M14.7931 3.1808H16.6231L14.1177 0.675354V2.50542C14.1177 2.89758 14.4227 3.1808 14.7931 3.1808Z" fill="#044C5A"/>
</svg>
