<svg width="20" height="20" viewBox="0 0 20 20" fill="none" xmlns="http://www.w3.org/2000/svg">
<g clip-path="url(#clip0)">
<path d="M14.7932 4.13943C13.8999 4.13943 13.181 3.39869 13.181 2.52723V0H3.26811C2.9631 0 2.70166 0.261438 2.70166 0.566449V19.4336C2.70166 19.7386 2.9631 20 3.26811 20H16.7539C17.059 20 17.2986 19.7386 17.2986 19.4336V4.13943H14.7932Z" fill="#044C5A"/>
<path d="M6.0498 10.7476V12H5.31738V8.44531H6.7041C6.97103 8.44531 7.2054 8.49414 7.40723 8.5918C7.61068 8.68945 7.76693 8.82861 7.87598 9.00928C7.98503 9.18831 8.03955 9.39258 8.03955 9.62207C8.03955 9.97038 7.91992 10.2454 7.68066 10.4473C7.44303 10.6475 7.11344 10.7476 6.69189 10.7476H6.0498ZM6.0498 10.1543H6.7041C6.89779 10.1543 7.04508 10.1087 7.146 10.0176C7.24854 9.92643 7.2998 9.79622 7.2998 9.62695C7.2998 9.4528 7.24854 9.31201 7.146 9.20459C7.04346 9.09717 6.90186 9.04183 6.72119 9.03857H6.0498V10.1543ZM9.27734 10.7476V12H8.54492V8.44531H9.93164C10.1986 8.44531 10.4329 8.49414 10.6348 8.5918C10.8382 8.68945 10.9945 8.82861 11.1035 9.00928C11.2126 9.18831 11.2671 9.39258 11.2671 9.62207C11.2671 9.97038 11.1475 10.2454 10.9082 10.4473C10.6706 10.6475 10.341 10.7476 9.91943 10.7476H9.27734ZM9.27734 10.1543H9.93164C10.1253 10.1543 10.2726 10.1087 10.3735 10.0176C10.4761 9.92643 10.5273 9.79622 10.5273 9.62695C10.5273 9.4528 10.4761 9.31201 10.3735 9.20459C10.271 9.09717 10.1294 9.04183 9.94873 9.03857H9.27734V10.1543ZM14.4482 9.03857H13.3594V12H12.627V9.03857H11.5527V8.44531H14.4482V9.03857Z" fill="white"/>
<path d="M14.7931 3.18082H16.6231L14.1177 0.675369V2.50544C14.1177 2.89759 14.4227 3.18082 14.7931 3.18082Z" fill="#044C5A"/>
</g>
<defs>
<clipPath id="clip0">
<rect width="20" height="20" fill="white"/>
</clipPath>
</defs>
</svg>
