<svg width="20" height="20" xmlns="http://www.w3.org/2000/svg" version="1.1">

 <g>
  <title>Layer 1</title>
  <g id="surface1">
   <path id="svg_1" fill-rule="nonzero" fill="rgb(1.568627%,29.803922%,35.294118%)" d="m2.92969,0.07813c-0.06641,0.03906 -0.15625,0.1289 -0.19922,0.19531c-0.07813,0.1289 -0.07813,0.21484 -0.07813,9.67969c0,9.40625 0,9.55468 0.07813,9.69921c0.05078,0.09766 0.12891,0.17188 0.23828,0.23047l0.16406,0.07813l-1.57422,0.01172c-0.87109,0.0039 2.92969,0.00781 8.44141,0.00781c5.51172,0 9.30078,-0.00781 8.42188,-0.01953c-0.875,-0.01172 -1.5625,-0.02344 -1.52735,-0.03125c0.1211,-0.01563 0.28125,-0.14844 0.35156,-0.28906c0.0586,-0.11719 0.0625,-0.80469 0.0625,-7.82032l0,-7.6914l-1.3125,0c-1.41796,0 -1.57421,-0.01563 -1.96875,-0.21875c-0.26562,-0.12891 -0.55468,-0.4375 -0.69531,-0.73438l-0.12109,-0.25l-0.01172,-1.46484l-0.01172,-1.46094l-5.0625,0c-4.99219,0 -5.07031,0 -5.19531,0.07813zm10.22265,8.1914c0.11719,0.04688 0.26563,0.14063 0.33594,0.19531c0.14844,0.12891 0.3086,0.4375 0.33985,0.6836l0.02734,0.17578l-0.16797,0.02734c-0.08984,0.01172 -0.23828,0.01563 -0.32031,0.01172c-0.14844,-0.01172 -0.15625,-0.01953 -0.1875,-0.17578c-0.0625,-0.34375 -0.42578,-0.51953 -0.89063,-0.43359c-0.28515,0.05468 -0.36328,0.09765 -0.42578,0.2539c-0.04687,0.11328 -0.04687,0.15625 -0.00781,0.23828c0.0625,0.13672 0.23047,0.21094 0.79297,0.35547c0.59375,0.14844 0.76172,0.21875 0.97265,0.40625c0.21875,0.19532 0.30079,0.39063 0.30079,0.70313c0,0.61719 -0.48047,1.05078 -1.21485,1.09765c-0.59765,0.03516 -1.02344,-0.10546 -1.33203,-0.44921c-0.19531,-0.21094 -0.29687,-0.47266 -0.29687,-0.73438c0,-0.11719 0.01562,-0.14844 0.07031,-0.14844c0.03906,0 0.17969,-0.01172 0.30859,-0.02343l0.23438,-0.02344l0,0.10937c0,0.06641 0.03906,0.19141 0.08984,0.28125c0.125,0.25391 0.39844,0.38282 0.79297,0.38282c0.20312,0 0.33984,-0.01954 0.45312,-0.07032c0.25,-0.11718 0.35157,-0.38281 0.21875,-0.57031c-0.08984,-0.125 -0.23046,-0.1875 -0.78906,-0.33203c-0.80078,-0.21484 -1.01172,-0.33594 -1.17187,-0.6875c-0.25,-0.53125 0.05078,-1.125 0.65625,-1.32031c0.33984,-0.11328 0.92187,-0.08985 1.21093,0.04687zm-6.77734,0.52735c0.21875,0.30468 0.40625,0.55859 0.42188,0.5625c0.01953,0.0039 0.20312,-0.22657 0.41406,-0.51172c0.21094,-0.28125 0.41406,-0.54297 0.44531,-0.57422c0.05078,-0.03906 0.14844,-0.05078 0.41016,-0.04297l0.34375,0.01172l-0.60547,0.8164c-0.33985,0.44922 -0.61328,0.83594 -0.61328,0.85157c0,0.02734 1.0664,1.54297 1.28125,1.8164c0.02734,0.03907 -0.05078,0.05078 -0.36328,0.05078l-0.40625,0l-0.45704,-0.64843c-0.25,-0.35938 -0.46484,-0.65235 -0.47656,-0.64844c-0.01172,0 -0.22656,0.29297 -0.48047,0.64844l-0.46093,0.64843l-0.40235,0c-0.30859,0 -0.38672,-0.01171 -0.35547,-0.05078c0.14063,-0.17578 1.28907,-1.73437 1.30469,-1.77343c0.01172,-0.03516 -0.87109,-1.32032 -1.15625,-1.6836c-0.03125,-0.03906 0.03906,-0.04687 0.36328,-0.03906l0.39453,0.01172l0.39844,0.55469zm2.85547,0.89843l0,1.47266l0.82031,0.00781l0.81641,0.00781l0.00781,0.29688l0.01172,0.29687l-2.30859,0l0,-3.55468l0.65234,0l0,1.47265zm0,0"/>
   <path id="svg_2" fill-rule="nonzero" fill="rgb(1.568627%,29.803922%,35.294118%)" d="m14.11719,1.64453c0,0.88281 0.00781,0.97266 0.07422,1.1211c0.04687,0.08984 0.13672,0.21093 0.20312,0.25781c0.125,0.09375 0.13281,0.09375 1.16016,0.10547c0.84375,0.00781 1.02734,0.0039 0.99219,-0.03907c-0.07032,-0.08593 -2.40625,-2.40234 -2.41797,-2.40234c-0.00391,0 -0.01172,0.43359 -0.01172,0.95703zm0,0"/>
  </g>
 </g>
</svg>